<svg xmlns="http://www.w3.org/2000/svg" viewBox="0 0 500 500"><g id="freepik--background-simple--inject-1"><path d="M332.3,54.7s-77-27.37-152.56,16.21S66,201,33.29,270.32s-13.9,139.8,43.79,171.94S174,427,254.93,424.71,357.62,434,424.78,388.26s79.29-153.69,26.32-233.58S332.3,54.7,332.3,54.7Z" style="fill:#FB3D77"></path><path d="M332.3,54.7s-77-27.37-152.56,16.21S66,201,33.29,270.32s-13.9,139.8,43.79,171.94S174,427,254.93,424.71,357.62,434,424.78,388.26s79.29-153.69,26.32-233.58S332.3,54.7,332.3,54.7Z" style="fill:#fff;opacity:0.7000000000000001"></path></g><g id="freepik--Plants--inject-1"><path d="M83.62,234.4s0-5.59-7.82-13.41S63,208.7,63,208.7,59,221.55,66.3,229.37a137.61,137.61,0,0,0,17.32,15.09Z" style="fill:#FB3D77"></path><path d="M72.27,269.29s0-5.59-7.83-13.41-12.85-12.29-12.85-12.29S47.68,256.44,55,264.26a137.61,137.61,0,0,0,17.32,15.09Z" style="fill:#FB3D77"></path><path d="M83.13,243.92s.59-5.56,9.19-12.51,14.08-10.87,14.08-10.87,2.53,13.19-5.52,20.21a137.47,137.47,0,0,1-18.82,13.17Z" style="fill:#FB3D77"></path><path d="M69.41,285.12s1.17-5.46,10.46-11.47S95,264.32,95,264.32s1.13,13.39-7.61,19.51A137.58,137.58,0,0,1,67.31,295Z" style="fill:#FB3D77"></path><path d="M72,330.05s0-5.59,7.82-13.41,12.85-12.29,12.85-12.29S96.57,317.2,89.31,325A137.61,137.61,0,0,1,72,340.11Z" style="fill:#FB3D77"></path><path d="M71.86,341s.79-5.53-5.84-14.39-11-14-11-14-5.7,12.16.38,20.94a137.86,137.86,0,0,0,15,17.39Z" style="fill:#FB3D77"></path><path d="M64.15,373.51s0-5.58,7.82-13.4,12.85-12.29,12.85-12.29,3.91,12.85-3.35,20.67a137.87,137.87,0,0,1-17.32,15.08Z" style="fill:#FB3D77"></path><path d="M69.37,403s-1.42-5.4,4.17-15,9.32-15.15,9.32-15.15,7,11.44,2,20.85a136.84,136.84,0,0,1-12.93,19Z" style="fill:#FB3D77"></path><path d="M84.33,233a159,159,0,0,1-2.15,17.35c-3.09,16-10.82,26.28-13.91,40.71s5.78,33,3.41,51.55-9.59,28.83-7.53,41.2S77,429.65,77,429.65" style="fill:none;stroke:#263238;stroke-linecap:round;stroke-linejoin:round"></path><line x1="83.05" y1="247.63" x2="91.48" y2="241.16" style="fill:none;stroke:#263238;stroke-linecap:round;stroke-linejoin:round"></line><line x1="83.44" y1="240.18" x2="79.91" y2="233.91" style="fill:none;stroke:#263238;stroke-linecap:round;stroke-linejoin:round"></line><path d="M68.74,290.36s7.06-5.29,14.31-10.58" style="fill:none;stroke:#263238;stroke-linecap:round;stroke-linejoin:round"></path><path d="M72.27,279.35s-5.88-11.53-12.55-19.18" style="fill:none;stroke:#263238;stroke-linecap:round;stroke-linejoin:round"></path><path d="M72.27,338a87.43,87.43,0,0,1,15.09-20.19" style="fill:none;stroke:#263238;stroke-linecap:round;stroke-linejoin:round"></path><path d="M70.89,345.84a98.17,98.17,0,0,0-7.64-14.51c-4.12-6.07-4.71-6.86-4.71-6.86" style="fill:none;stroke:#263238;stroke-linecap:round;stroke-linejoin:round"></path><path d="M64.15,383.78a93,93,0,0,1,6.35-12.85,82.44,82.44,0,0,1,8.24-10.78" style="fill:none;stroke:#263238;stroke-linecap:round;stroke-linejoin:round"></path><path d="M71.92,412.71S71.09,406,74,400.33s6.27-13.13,7.65-16.07" style="fill:none;stroke:#263238;stroke-linecap:round;stroke-linejoin:round"></path><path d="M32.4,309s-.61-3.51,3.45-9.26,6.72-9.1,6.72-9.1,3.85,7.63.14,13.32a86.57,86.57,0,0,1-9.22,11.34Z" style="fill:#FB3D77"></path><path d="M43.3,329.69s-.6-3.51,3.45-9.26,6.73-9.1,6.73-9.1,3.84,7.63.14,13.32A87.49,87.49,0,0,1,44.4,336Z" style="fill:#FB3D77"></path><path d="M33.74,315s-1-3.42-7.12-6.84-10-5.29-10-5.29-.16,8.55,5.65,12.07a88,88,0,0,0,13.23,6.22Z" style="fill:#FB3D77"></path><path d="M46.81,339.3s-1.33-3.3-7.8-6.06S28.5,329,28.5,329s.75,8.52,6.89,11.41a87.79,87.79,0,0,0,13.81,4.79Z" style="fill:#FB3D77"></path><path d="M50.07,367.76s-.6-3.51-6.36-7.56-9.39-6.32-9.39-6.32-1.06,8.49,4.35,12.6a87.05,87.05,0,0,0,12.49,7.58Z" style="fill:#FB3D77"></path><path d="M51.34,374.62s-1.09-3.38,2.1-9.66,5.37-10,5.37-10,4.89,7,2,13.17a87.44,87.44,0,0,1-7.52,12.53Z" style="fill:#FB3D77"></path><path d="M61.16,402.88s.41-3.53,5.92-7.91,9-6.84,9-6.84,1.54,8.41-3.62,12.83a88.2,88.2,0,0,1-12.05,8.28Z" style="fill:#FB3D77"></path><path d="M59.71,394.16s-.61-3.5-6.36-7.56S44,380.29,44,380.29s-1.06,8.48,4.34,12.6a88.55,88.55,0,0,0,12.5,7.58Z" style="fill:#FB3D77"></path><path d="M59.63,413.2s.3-3.54-4.24-8.92-7.48-8.48-7.48-8.48-3.17,7.93,1,13.28a87.25,87.25,0,0,0,10.17,10.5Z" style="fill:#FB3D77"></path><path d="M31.8,308.22A101.63,101.63,0,0,0,35,318.86c3.68,9.68,9.64,15.31,13.15,24s0,21.33,3.46,32.7,9.14,17,9.19,25-3.1,30.16-3.1,30.16" style="fill:none;stroke:#263238;stroke-linecap:round;stroke-linejoin:round"></path><line x1="34.19" y1="317.27" x2="28.2" y2="314.13" style="fill:none;stroke:#263238;stroke-linecap:round;stroke-linejoin:round"></line><line x1="33.14" y1="312.64" x2="34.67" y2="308.33" style="fill:none;stroke:#263238;stroke-linecap:round;stroke-linejoin:round"></line><path d="M47.8,342.52s-5-2.56-10.12-5.09" style="fill:none;stroke:#263238;stroke-linecap:round;stroke-linejoin:round"></path><path d="M44.4,336a71.16,71.16,0,0,1,5.78-13.38" style="fill:none;stroke:#263238;stroke-linecap:round;stroke-linejoin:round"></path><path d="M50.76,372.77a55.28,55.28,0,0,0-11.66-11" style="fill:none;stroke:#263238;stroke-linecap:round;stroke-linejoin:round"></path><path d="M52.47,377.54a63.12,63.12,0,0,1,3.22-9.93c1.92-4.26,2.21-4.81,2.21-4.81" style="fill:none;stroke:#263238;stroke-linecap:round;stroke-linejoin:round"></path><path d="M60.55,406.65s4-4.86,6.44-6.68a34.08,34.08,0,0,0,4.18-3.64" style="fill:none;stroke:#263238;stroke-linecap:round;stroke-linejoin:round"></path><path d="M60.82,400.6a59.46,59.46,0,0,0-5.38-7.37,52.81,52.81,0,0,0-6.33-5.87" style="fill:none;stroke:#263238;stroke-linecap:round;stroke-linejoin:round"></path><path d="M59.09,419.58a15.27,15.27,0,0,0-2.67-7.53c-2.46-3.24-5.36-7.55-6.54-9.25" style="fill:none;stroke:#263238;stroke-linecap:round;stroke-linejoin:round"></path><path d="M88.35,447.69A34.4,34.4,0,0,0,81.9,427h-30a34.47,34.47,0,0,0-6.44,20.67c0,12.34,5.73,22.86,13.79,27V477H74.83v-2.29h-.28C82.62,470.55,88.35,460,88.35,447.69Z" style="fill:#263238;stroke:#263238;stroke-linecap:round;stroke-linejoin:round"></path></g><g id="freepik--Character--inject-1"><rect x="196.17" y="183.54" width="34.86" height="12.81" style="fill:#545454"></rect><rect x="198.18" y="183.54" width="32.86" height="12.81" style="fill:#263238"></rect><rect x="198.18" y="183.54" width="32.86" height="2.97" style="fill:#545454"></rect><polygon points="215.27 195.1 202.13 195.1 303.88 477 317.02 477 215.27 195.1" style="fill:#545454"></polygon><polygon points="217.65 195.1 204.51 195.1 306.26 477 319.4 477 217.65 195.1" style="fill:#263238"></polygon><rect x="296.56" y="441.47" width="24.48" height="5.21" style="fill:#fff;stroke:#263238;stroke-miterlimit:10"></rect><rect x="276.57" y="386.36" width="24.48" height="5.21" style="fill:#fff;stroke:#263238;stroke-miterlimit:10"></rect><rect x="256.58" y="331.26" width="24.48" height="5.21" style="fill:#fff;stroke:#263238;stroke-miterlimit:10"></rect><rect x="236.59" y="276.15" width="24.48" height="5.21" style="fill:#fff;stroke:#263238;stroke-miterlimit:10"></rect><rect x="216.6" y="221.04" width="24.48" height="5.21" style="fill:#fff;stroke:#263238;stroke-miterlimit:10"></rect><path d="M242.13,242.73l17.11-12.06,5.94-44.22S247.36,224,245,228.53,242.13,242.73,242.13,242.73Z" style="fill:#263238;stroke:#263238;stroke-miterlimit:10"></path><path d="M280.91,365.66s-3.88,6.1-13.66,6.59c-4.76.24-6.42,1.43-6.66,4.28s2.14,4.52,7.13,6.18,13.79,2.85,18.07,3.09,10.45,1.67,11.17-1.42,2.14-10.7,2.14-11.41S280.91,365.66,280.91,365.66Z" style="fill:#263238;stroke:#263238;stroke-miterlimit:10"></path><path d="M259.07,220.93c-1.25,15.48-2.68,35.76-2.68,47.53,0,20.92,7.61,39.7,10.46,46.59s7.77,21.31,8,22.26,2.62,14.26,3.57,17.59,1.42,5.71,1.42,5.71-2.61,5-2.61,7.13,2.93-.93,2.93-.93a101.6,101.6,0,0,0,12.13,3.56c6.41,1.43,8,5.55,8,5.55s.43-4.62.91-24.82S289.67,291,289.67,284.86s4.51-59.66,4.51-59.66-24.95.24-32.56-3.32Z" style="fill:#5c5c5c;stroke:#263238;stroke-miterlimit:10"></path><path d="M295.53,370.35s-6.18,4-8.08,5-10,2.62-10.7,4.52.48,5.23.48,5.23,15.92,3.09,23.29,3.56,17.35,1.19,18.54,0,.95-13.78.95-13.78S299.33,368.69,295.53,370.35Z" style="fill:#263238;stroke:#263238;stroke-miterlimit:10"></path><path d="M279,250.4s3.09,38.27,5,44.92,12.52,42.71,13,47.22a74.48,74.48,0,0,1,.47,11.65c-.23,1.42-1.42,3.09-1.66,6.65s-.24,9.51-.24,9.51a18.11,18.11,0,0,1,7.85,3.33c3.8,2.85,10,3.56,13.07,3.09s3.56-.24,3.56-1.9v-6.18c0-4.52-.47-8.56,0-16.88s-2.53-34.15-4-41.75-5.94-17.83-6.18-20.92,5-27.81,5-35.89-1.42-27.09-1.42-27.09l-30.66-.72" style="fill:#5c5c5c;stroke:#263238;stroke-miterlimit:10"></path><path d="M287.13,138.35l-6.58.3S267.4,159.57,265,173.92s-6.57,51.46-6.57,51.46,7.78,2.69,23.62,3,31.09-.6,31.09-.6,7.76-40.7,10.45-57.74-2.09-20.92-6.88-25.11a25.87,25.87,0,0,0-10.46-5.38Z" style="fill:#263238;stroke:#263238;stroke-miterlimit:10"></path><path d="M259,218.2a72.65,72.65,0,0,0,21.23,3.89c11.65.3,33.78-.6,33.78-.6v8.07l-12,.6s0,23.62-.3,24.51,1.49,1.8-10.16,1.8-22.72-2.09-23.32-4.49,2-22.66,2-22.66l-11.91-3.94Z" style="fill:#fff;stroke:#263238;stroke-miterlimit:10"></path><path d="M280.07,227.31l-5.23-.09.18-10.58a2.63,2.63,0,0,1,2.67-2.57h0a2.63,2.63,0,0,1,2.57,2.66Z" style="fill:#fff;stroke:#263238;stroke-miterlimit:10"></path><line x1="277.57" y1="227.04" x2="277.26" y2="244.33" style="fill:#fff;stroke:#263238;stroke-miterlimit:10"></line><rect x="273.91" y="226.81" width="6.83" height="2.28" transform="translate(4.1 -4.9) rotate(1.02)" style="fill:#fff;stroke:#263238;stroke-miterlimit:10"></rect><path d="M277.33,225.59h0a1,1,0,0,1-1.05-1.05V217a1,1,0,0,1,1.05-1h0a1,1,0,0,1,1.05,1v7.5A1,1,0,0,1,277.33,225.59Z" style="fill:#fff;stroke:#263238;stroke-miterlimit:10"></path><path d="M291.11,229.76l-5.24-.1.19-10.57a2.61,2.61,0,0,1,2.66-2.57h0a2.6,2.6,0,0,1,2.57,2.66Z" style="fill:#fff;stroke:#263238;stroke-miterlimit:10"></path><line x1="288.61" y1="229.49" x2="288.3" y2="246.78" style="fill:#fff;stroke:#263238;stroke-miterlimit:10"></line><rect x="284.95" y="229.25" width="6.83" height="2.28" transform="matrix(1, 0.02, -0.02, 1, 4.15, -5.1)" style="fill:#fff;stroke:#263238;stroke-miterlimit:10"></rect><path d="M288.37,228h0a1.06,1.06,0,0,1-1.06-1.06v-7.49a1.06,1.06,0,0,1,1.06-1.06h0a1.06,1.06,0,0,1,1.05,1.06V227A1.06,1.06,0,0,1,288.37,228Z" style="fill:#fff;stroke:#263238;stroke-miterlimit:10"></path><path d="M271.24,231.1A30.4,30.4,0,0,0,282,232l-.93,23s-7.73,1.64-11.95-3.52Z" style="fill:#fff;stroke:#263238;stroke-miterlimit:10"></path><path d="M282,232s4.69,2.35,14.06.94l1.17,22.72s-9.37,3.28-16.16-.7Z" style="fill:#fff;stroke:#263238;stroke-miterlimit:10"></path><path d="M261.74,170.57s-19.11.45-21.62-.46-1.36-5.69.46-16.38,13.19-47.79,13.19-47.79-3.86-4.09-4.09-6.37,1.82-10.69,1.82-10.69-4.1,1.82-5.23.68,3.41-5.46,3.41-5.46,4.32-1.37,7.28.68,5.92,5.46,6.37,9.79-.91,13.65-2.05,20.48-3.18,31.17-3.18,31.17,10.24-6.6,13.42-8a24.52,24.52,0,0,1,14.11-1.59s-3.87,17.07-5.91,23-14.84,33.48-20.07,45.54-17.52,37.55-17.52,37.55-1.82-10,3.64-24.35S261.74,170.57,261.74,170.57Z" style="fill:#b2b2b2;stroke:#263238;stroke-miterlimit:10"></path><polygon points="251.63 109.2 263.28 110.86 261.62 117.75 250.44 115.61 251.63 109.2" style="fill:#fff;stroke:#263238;stroke-miterlimit:10"></polygon><path d="M249.73,113.48l14,2.61-4,27.57s9-5,13.31-6.42,11.18,0,11.18,0,1.74,1.93-.32,7-8,24.82-10.86,32-31.84,69.65-31.84,69.65-1.19-10.22,1.43-18.3,17.58-57.06,17.58-57.06-18.3,1.19-20.44.48-1.9-8.32-1.67-10.22S249.73,113.48,249.73,113.48Z" style="fill:#FB3D77;stroke:#263238;stroke-miterlimit:10"></path><path d="M260.32,195.64l23.88-58.4-4.88-.56L256.4,194.1l-2.72-.9c-.46,1.43-1.28,3.76-1.76,5.25l2.46,1.73,5.27,5c1.13-2.35,3.11-6.31,4.16-8.49Z" style="fill:#fff;stroke:#263238;stroke-miterlimit:10"></path><path d="M282.49,94.61s4.62-9.93,9.7-12.47,14.32,1.15,14.32,1.15S318.75,88.6,322,96.92s-2.54,23.56-2.54,23.56L281.8,96.23Z" style="fill:#fff;stroke:#263238;stroke-miterlimit:10"></path><path d="M294.73,93.43a38,38,0,0,0,2.51-5.23,9,9,0,0,0-.23-5.47,14.73,14.73,0,0,1,6.6.91" style="fill:none;stroke:#263238;stroke-miterlimit:10"></path><path d="M279.49,106.39s-7.62-6.93-7.62-9.47,20.32-4.62,25.17-3,12,12,15,15,12,9,10.16,13.16-7.85,7.4-15,3S280,107.31,280,107.31c2.54-2.31,4.16-.23,4.16-.23" style="fill:#fff;stroke:#263238;stroke-miterlimit:10"></path><path d="M314.6,114.24s-8.78-10.39-15.94-13.39-15.48-.93-17.55,1.38-6.24,13.4-6.47,16.86S274,133.18,276,134.34s8.55,1.84,8.55,1.84a98.92,98.92,0,0,0-1.15,15c.23,6,4.45,5.81,7.68,4.42s16.57-14.35,16.57-16a37.5,37.5,0,0,0-.7-5.08l2.78-7.63S318.52,121.63,314.6,114.24Z" style="fill:#b2b2b2;stroke:#263238;stroke-miterlimit:10"></path><path d="M303.69,103.84a12,12,0,0,1,1.44,4.17c0,1.84-2.08,12.47-2.08,12.47s2.54,1.38,3.23-.7,1.62-7.39,8.32-5.54A76.48,76.48,0,0,0,303.69,103.84Z" style="fill:#263238;stroke:#263238;stroke-miterlimit:10"></path><path d="M284.8,119.09c-.69-.23-6-2.08-6.23-3.46s6.46-6.7,6.46-6.7v-2.31s-2-1.87-5.08.69" style="fill:none;stroke:#263238;stroke-miterlimit:10"></path><path d="M282,118.63s-7.62-1.62-6.47,3.23c.36,1.51,8.09,2.78,10.63,3s8.77.46,7.62-2.31S285,117.94,282,118.63Z" style="fill:#263238;stroke:#263238;stroke-miterlimit:10"></path><path d="M290.81,107.54s5.31-2.77,7.62,2.08" style="fill:none;stroke:#263238;stroke-miterlimit:10"></path><path d="M295.18,112.11c-.18,1.14-.84,2-1.47,1.87s-1-1.1-.81-2.23.84-2,1.47-1.87S295.36,111,295.18,112.11Z" style="fill:#263238"></path><path d="M282,110.31c-.15.94-.69,1.63-1.21,1.54s-.82-.9-.67-1.84.69-1.62,1.21-1.54S282.18,109.38,282,110.31Z" style="fill:#263238"></path><path d="M291,113.78s1.15,3,5.54,2.77" style="fill:none;stroke:#263238;stroke-miterlimit:10"></path><polygon points="284.57 136.18 293.35 136.88 283.88 144.27 284.57 136.18" style="fill:#263238;stroke:#263238;stroke-miterlimit:10"></polygon><path d="M307.67,139.65S294.73,167.6,292.42,175s.67,40.36.67,46.83,4,37.11,4,37.11,14.09-1.62,22.41-5.31a73,73,0,0,0,12.93-7.16l-13.23-41.27s14.12-36.9,16-45.68-3-13.63-9-15.94S307.67,139.65,307.67,139.65Z" style="fill:#FB3D77;stroke:#263238;stroke-miterlimit:10"></path><path d="M319.2,205.23l-15.12-3.59s-2.6-17.85,3.08-35.66,12.51-23.88,12.51-23.88l-8.34-1.52s-8,17.06-11.75,27.29-2.7,35.29-2.7,35.29l-4.75,1.35c.29,3.16.49,5.14.76,7.86,4.85-1.31,12.75-2.65,14.61-2.39,1.67.24,8.89,1.53,14,2.45Z" style="fill:#fff;stroke:#263238;stroke-miterlimit:10"></path><path d="M247.91,119.57l-3.76-10.87H235.6l-3.42,11.09a9,9,0,0,0-1.19,4.5,9.12,9.12,0,1,0,16.92-4.72Z" style="fill:#fff;stroke:#263238;stroke-miterlimit:10"></path><rect x="235.6" y="101.77" width="8.78" height="6.93" style="fill:#263238;stroke:#263238;stroke-miterlimit:10"></rect><rect x="235.14" y="75.9" width="4.39" height="4.62" style="fill:#263238;stroke:#263238;stroke-miterlimit:10"></rect><path d="M236.53,79.83a41,41,0,0,1-5.78,8.77c-3.23,3.47-1.38,6,1.16,6.47s6.93.46,6.93,2.08v4.39" style="fill:none;stroke:#263238;stroke-miterlimit:10"></path><path d="M238.15,80.75s-7.16,9.47-6.93,10.86,8.08,2.77,9.7,3.46,1.15,6.47,1.15,6.47" style="fill:none;stroke:#263238;stroke-miterlimit:10"></path><line x1="236.53" y1="76.13" x2="236.53" y2="14.23" style="fill:none;stroke:#263238;stroke-miterlimit:10"></line><line x1="238.84" y1="14" x2="238.84" y2="77.29" style="fill:none;stroke:#263238;stroke-miterlimit:10"></line><path d="M256.62,142.88l-3.46-6.47s-2.31-10.85-2.31-11.77-3-7.16-4.16-9.24-2.31-1.85-2.31.46,2.08,6.23,2.08,6.93a12.34,12.34,0,0,1-.69,2.54s-9.7-6.93-10.86-8.09-3.23.47-3.23,1.85a11.45,11.45,0,0,0,.69,3.47c.23.69-1.15,5.54-1.15,7.16a12.54,12.54,0,0,0,2.08,5.77c1.15,1.85,9.46,4.62,9.46,4.62l7.4,10.39Z" style="fill:#b2b2b2;stroke:#263238;stroke-miterlimit:10"></path><path d="M261.94,144.5l-6.47-5.31-9.84,9.57s7,7.32,7.67,7.32S261.94,144.5,261.94,144.5Z" style="fill:#fff;stroke:#263238;stroke-miterlimit:10"></path><path d="M316.68,149.12l-20.56,15.94-35.57-22.41L249.46,157.2s21.25,16.86,28.41,23.79,18.48,13.4,24,10.4,27.72-19.87,28.41-20.56" style="fill:#FB3D77;stroke:#263238;stroke-miterlimit:10"></path><path d="M301.43,160.9s13.17-.23,15.48,20.09l9.47-6.93s-2.08-16.16-17.1-18.71Z" style="fill:#fff;stroke:#263238;stroke-miterlimit:10"></path><polygon points="265.63 71.51 210.2 71.51 228.82 49.34 247.01 49.34 265.63 71.51" style="fill:#fff;stroke:#263238;stroke-miterlimit:10"></polygon><rect x="228.82" y="40.1" width="17.64" height="9.24" style="fill:#fff;stroke:#263238;stroke-miterlimit:10"></rect><line x1="219.72" y1="66.33" x2="217.41" y2="69.31" style="fill:none;stroke:#263238;stroke-miterlimit:10"></line><polyline points="221.91 63.49 232.5 49.82 232.5 42.9" style="fill:none;stroke:#263238;stroke-miterlimit:10"></polyline><path d="M257.11,81.36s-2.26-1.9-3.92-1.94-6.66,1.49-5.85,2.7S257.11,81.36,257.11,81.36Z" style="fill:#b2b2b2;stroke:#263238;stroke-miterlimit:10"></path><path d="M260.47,83.6a8.26,8.26,0,0,0-3.36-2.24c-2-.61-7.53,1.22-7.37,2.22s4.41,1.15,5.42,1S260.47,83.6,260.47,83.6Z" style="fill:#b2b2b2;stroke:#263238;stroke-miterlimit:10"></path><path d="M265.11,91.6s-1.44-7.7-2.58-8.72-7.46.56-8.36,1.26.56,2.28,1.22,2.46a46.13,46.13,0,0,0,4.69.09l.72,5.15Z" style="fill:#b2b2b2;stroke:#263238;stroke-miterlimit:10"></path><path d="M247.9,87.58l3.29-4.08,8.24,6.64a2.62,2.62,0,0,1,.39,3.68h0a2.62,2.62,0,0,1-3.68.39Z" style="fill:#fff;stroke:#263238;stroke-miterlimit:10"></path><line x1="249.65" y1="85.77" x2="236.18" y2="74.92" style="fill:#fff;stroke:#263238;stroke-miterlimit:10"></line><rect x="245.67" y="83.88" width="6.83" height="2.28" transform="translate(471.56 -55.6) rotate(128.86)" style="fill:#fff;stroke:#263238;stroke-miterlimit:10"></rect><path d="M258.1,102.76c-.91-3.42,2.5-8.65,2.5-8.65a19.57,19.57,0,0,1-3.87-2.5c-1.13-1.14-1.13-3.87.46-3.41s7.73,3,7.73,3a3.84,3.84,0,0,1,1.83,4.1c-.46,3-4.33,11.6-4.33,11.6" style="fill:#b2b2b2;stroke:#263238;stroke-miterlimit:10"></path><rect x="176.6" y="354.35" width="109.34" height="5.23" style="fill:#545454"></rect><polygon points="219.16 237.55 132.73 477 141.12 477 223.8 247.93 220.2 237.55 219.16 237.55" style="fill:#545454"></polygon><polygon points="216.78 237.55 130.35 477 133.99 477 220.3 237.86 220.2 237.55 216.78 237.55" style="fill:#263238"></polygon><polygon points="236.67 195.1 223.53 195.1 325.28 477 338.42 477 236.67 195.1" style="fill:#545454"></polygon><polygon points="239.04 195.1 225.9 195.1 327.65 477 340.79 477 239.04 195.1" style="fill:#263238"></polygon><polygon points="241.03 237.55 154.6 477 162.98 477 245.67 247.93 242.06 237.55 241.03 237.55" style="fill:#545454"></polygon><polygon points="238.65 237.55 152.22 477 155.85 477 242.17 237.86 242.06 237.55 238.65 237.55" style="fill:#263238"></polygon><rect x="212.06" y="183.54" width="34.86" height="12.81" style="fill:#545454"></rect><rect x="214.07" y="183.54" width="32.86" height="12.81" style="fill:#454545"></rect></g></svg>