<svg xmlns="http://www.w3.org/2000/svg" viewBox="0 0 500 500"><g id="freepik--background-complete--inject-78"><rect x="325.33" y="238.51" width="104.03" height="143.97" style="fill:#ebebeb"></rect><rect x="320.29" y="233.17" width="114.11" height="5.34" style="fill:#dbdbdb"></rect><rect x="434.41" y="233.17" width="35.89" height="5.34" style="fill:#ebebeb"></rect><rect x="429.36" y="238.51" width="35.25" height="143.97" style="fill:#dbdbdb"></rect><path d="M418.16,305.14H336.54V259h81.62Zm-81.37-.25h81.12V259.26H336.79Z" style="fill:#c7c7c7"></path><rect x="365.96" y="272.49" width="15.89" height="9.13" style="fill:#c7c7c7"></rect><path d="M386.67,281.06H370.53v-8h16.14Zm-15.89-.25h15.64v-7.5H370.78Z" style="fill:#c7c7c7"></path><path d="M418.16,363.1H336.54V317h81.62Zm-81.37-.25h81.12V317.22H336.79Z" style="fill:#c7c7c7"></path><rect x="365.96" y="330.45" width="15.89" height="9.13" style="fill:#c7c7c7"></rect><path d="M386.67,339H370.53v-8h16.14Zm-15.89-.25h15.64v-7.5H370.78Z" style="fill:#c7c7c7"></path><path d="M277.89,36.14H442.78v145.5H277.89Zm160.54,4.35H282.24v136.8H438.43Z" style="fill:#ebebeb"></path><rect x="359.85" y="41.63" width="4.35" height="137.84" style="fill:#ebebeb"></rect><rect x="273.95" y="44.93" width="172.77" height="6.05" transform="translate(720.67 95.92) rotate(180)" style="fill:#ebebeb"></rect><rect x="273.95" y="51.75" width="172.77" height="6.05" transform="translate(720.67 109.55) rotate(180)" style="fill:#ebebeb"></rect><rect x="273.95" y="58.56" width="172.77" height="6.05" transform="translate(720.67 123.17) rotate(180)" style="fill:#ebebeb"></rect><rect x="273.95" y="65.37" width="172.77" height="6.05" transform="translate(720.67 136.79) rotate(180)" style="fill:#ebebeb"></rect><rect x="273.95" y="72.18" width="172.77" height="6.05" transform="translate(720.67 150.41) rotate(180)" style="fill:#ebebeb"></rect><rect x="273.95" y="78.99" width="172.77" height="6.05" transform="translate(720.67 164.03) rotate(180)" style="fill:#ebebeb"></rect><rect x="273.95" y="85.8" width="172.77" height="6.05" transform="translate(720.67 177.66) rotate(180)" style="fill:#ebebeb"></rect><rect x="273.95" y="92.61" width="172.77" height="6.05" transform="translate(720.67 191.28) rotate(180)" style="fill:#ebebeb"></rect><rect x="273.95" y="99.42" width="172.77" height="6.05" transform="translate(720.67 204.9) rotate(180)" style="fill:#ebebeb"></rect><rect x="286.86" y="43.71" width="1.09" height="69.55" style="fill:#263238"></rect><polygon points="285.48 118.32 289.33 118.32 288.37 112.78 286.44 112.78 285.48 118.32" style="fill:#263238"></polygon><rect x="282.95" y="43.71" width="1.09" height="131.88" style="fill:#263238"></rect><polygon points="281.56 179.66 285.42 179.66 284.45 174.12 282.53 174.12 281.56 179.66" style="fill:#263238"></polygon><rect x="267.2" y="35.3" width="186.26" height="12.67" transform="translate(720.67 83.26) rotate(180)" style="fill:#dbdbdb"></rect><polygon points="307.87 193.78 334.15 193.78 287.07 382.44 260.79 382.44 307.87 193.78" style="fill:#ebebeb"></polygon><polygon points="334.15 193.78 339.63 193.78 292.55 382.44 287.07 382.44 334.15 193.78" style="fill:#dbdbdb"></polygon><g style="opacity:0.98"><path d="M314.47,197c-1.8,8.26-3.69,16.5-5.6,24.73l-5.82,24.67L297,271l-3.08,12.29-3.17,12.27,2.75-12.37,2.84-12.35,5.83-24.68,6-24.62C310.26,213.37,312.32,205.18,314.47,197Z" style="fill:#dbdbdb"></path><path d="M308.51,237c-1.2,5.58-2.49,11.15-3.8,16.71s-2.68,11.1-4,16.65L296.46,287l-2.18,8.28c-.76,2.76-1.49,5.52-2.27,8.26.59-2.79,1.23-5.57,1.85-8.36l1.94-8.35,4-16.65c1.41-5.53,2.78-11.08,4.23-16.6S307,242.5,308.51,237Z" style="fill:#dbdbdb"></path><path d="M320.81,209.77c-1,4.8-2.05,9.57-3.14,14.34s-2.25,9.52-3.37,14.28-2.34,9.5-3.57,14.23l-1.85,7.1c-.65,2.36-1.27,4.72-1.95,7.08.48-2.4,1-4.79,1.53-7.18l1.61-7.16c1.09-4.77,2.25-9.52,3.37-14.28s2.34-9.5,3.57-14.23S319.48,214.48,320.81,209.77Z" style="fill:#dbdbdb"></path><path d="M325.68,198.9c-.47,2.68-1,5.33-1.6,8s-1.19,5.29-1.82,7.93-1.31,5.26-2,7.88l-1.09,3.92c-.39,1.3-.75,2.6-1.17,3.9.23-1.34.5-2.67.75-4l.85-4c.56-2.66,1.19-5.29,1.82-7.93s1.3-5.26,2-7.88S324.86,201.49,325.68,198.9Z" style="fill:#dbdbdb"></path><path d="M312.79,265.59c-1.37,6.05-2.84,12.09-4.32,18.12l-4.55,18.08-4.75,18-2.44,9c-.85,3-1.66,6-2.54,9,.68-3,1.41-6.05,2.12-9.08l2.2-9.05,4.55-18.07,4.75-18C309.42,277.58,311.06,271.58,312.79,265.59Z" style="fill:#dbdbdb"></path><path d="M291.4,328.92c-.59,3.38-1.28,6.73-2,10.08s-1.48,6.68-2.22,10-1.57,6.65-2.41,10l-1.28,5c-.46,1.65-.88,3.31-1.37,5,.29-1.69.64-3.36.95-5.05l1-5c.7-3.35,1.48-6.68,2.21-10s1.58-6.66,2.42-10S290.45,332.22,291.4,328.92Z" style="fill:#dbdbdb"></path><path d="M276.12,337.86c-.69,3.5-1.48,7-2.28,10.43s-1.68,6.91-2.52,10.36-1.77,6.89-2.71,10.32l-1.43,5.14c-.5,1.7-1,3.42-1.52,5.12.34-1.75.74-3.49,1.1-5.23l1.19-5.2c.8-3.46,1.68-6.91,2.52-10.36s1.77-6.89,2.71-10.32S275.07,341.27,276.12,337.86Z" style="fill:#dbdbdb"></path><path d="M288.53,308.42c-1.06,5.23-2.2,10.44-3.36,15.65s-2.4,10.38-3.59,15.58-2.49,10.37-3.79,15.54l-2,7.75c-.69,2.58-1.35,5.16-2.06,7.73.52-2.61,1.09-5.22,1.64-7.83l1.72-7.81c1.16-5.2,2.39-10.39,3.59-15.58s2.49-10.37,3.79-15.54S287.12,313.57,288.53,308.42Z" style="fill:#dbdbdb"></path><path d="M329.28,199.59c-1,5-2.11,10-3.22,15.06s-2.3,10-3.45,15-2.4,10-3.65,15l-1.9,7.46c-.66,2.48-1.29,5-2,7.44.49-2.52,1-5,1.56-7.54l1.66-7.52c1.11-5,2.3-10,3.45-15s2.4-10,3.65-15S327.92,204.54,329.28,199.59Z" style="fill:#dbdbdb"></path><path d="M291.35,274.21c-.91,4.31-1.91,8.59-2.93,12.87s-2.11,8.54-3.16,12.81-2.2,8.51-3.36,12.76L280.15,319c-.61,2.11-1.2,4.23-1.84,6.34.45-2.16.95-4.3,1.42-6.45l1.51-6.42c1-4.28,2.11-8.54,3.16-12.81s2.21-8.51,3.36-12.76S290.09,278.43,291.35,274.21Z" style="fill:#dbdbdb"></path></g><polygon points="285.01 204.18 313.11 204.18 241.37 382.44 213.27 382.44 285.01 204.18" style="fill:#ebebeb"></polygon><polygon points="313.11 204.18 318.97 204.18 247.23 382.44 241.37 382.44 313.11 204.18" style="fill:#dbdbdb"></polygon><path d="M293,204.18c-3,8-6.16,16-9.29,24l-9.46,24-9.62,24-4.87,12-4.93,12,4.61-12,4.68-12,9.46-24,9.62-24C286.46,220.16,289.7,212.17,293,204.18Z" style="fill:#dbdbdb"></path><path d="M281.15,242.53c-2,5.41-4.17,10.82-6.31,16.23L268.35,275l-6.64,16.21-3.37,8.1-3.45,8.09,3.12-8.11,3.19-8.12,6.49-16.22,6.64-16.21C276.58,253.32,278.83,247.92,281.15,242.53Z" style="fill:#dbdbdb"></path><path d="M297.39,215.07c-1.72,4.64-3.51,9.28-5.31,13.91l-5.49,13.89L281,256.76l-2.88,6.94c-1,2.31-1.94,4.62-2.94,6.93.85-2.32,1.74-4.63,2.62-6.95l2.69-6.95,5.48-13.9L291.57,229C293.48,224.32,295.4,219.69,297.39,215.07Z" style="fill:#dbdbdb"></path><path d="M303.83,204.12c-.9,2.57-1.86,5.14-2.83,7.71s-2,5.14-3,7.71-2.08,5.13-3.16,7.69l-1.63,3.84c-.57,1.28-1.12,2.56-1.71,3.84.44-1.29.92-2.57,1.38-3.86l1.45-3.85c1-2.57,2-5.14,3-7.71s2.08-5.13,3.16-7.69S302.66,206.68,303.83,204.12Z" style="fill:#dbdbdb"></path><path d="M281.11,268.55c-2.29,5.88-4.66,11.76-7,17.63l-7.22,17.64-7.37,17.63-3.74,8.81-3.81,8.81,3.49-8.83,3.55-8.82,7.22-17.62,7.37-17.63C276,280.3,278.54,274.43,281.11,268.55Z" style="fill:#dbdbdb"></path><path d="M250.5,331.23c-1.13,3.25-2.33,6.49-3.53,9.74s-2.48,6.48-3.71,9.72-2.55,6.48-3.86,9.72l-2,4.85c-.69,1.62-1.35,3.24-2.06,4.85.56-1.62,1.15-3.24,1.73-4.87l1.8-4.86c1.21-3.25,2.47-6.49,3.7-9.73s2.55-6.48,3.87-9.71S249.1,334.46,250.5,331.23Z" style="fill:#dbdbdb"></path><path d="M234,342.08c-1.24,3.38-2.55,6.74-3.88,10.11s-2.7,6.73-4,10.1-2.78,6.72-4.21,10.08l-2.15,5c-.75,1.68-1.47,3.36-2.23,5,.61-1.68,1.27-3.37,1.9-5.05l2-5.06c1.32-3.36,2.7-6.73,4-10.09s2.78-6.73,4.21-10.09S232.53,345.43,234,342.08Z" style="fill:#dbdbdb"></path><path d="M250.71,312.54c-1.85,5.06-3.78,10.11-5.72,15.16l-5.89,15.16-6,15.14L230,365.56l-3.15,7.57,2.82-7.59,2.89-7.57,5.9-15.16,6-15.14C246.53,322.63,248.58,317.58,250.71,312.54Z" style="fill:#dbdbdb"></path><path d="M307.29,204.18c-1.78,4.86-3.63,9.73-5.5,14.59l-5.67,14.59-5.83,14.57-3,7.28c-1,2.43-2,4.86-3,7.28.88-2.43,1.81-4.86,2.71-7.3l2.78-7.29,5.68-14.59,5.82-14.57C303.25,213.88,305.23,209,307.29,204.18Z" style="fill:#dbdbdb"></path><path d="M258.62,280.11c-1.58,4.17-3.22,8.33-4.88,12.5s-3.38,8.32-5.06,12.48-3.45,8.32-5.21,12.48l-2.66,6.23c-.91,2.07-1.8,4.15-2.73,6.22.78-2.08,1.6-4.16,2.4-6.25l2.48-6.24c1.66-4.17,3.37-8.33,5.06-12.49s3.44-8.32,5.21-12.47S256.77,284.26,258.62,280.11Z" style="fill:#dbdbdb"></path><rect x="76.22" width="1" height="83.77" style="fill:#c7c7c7"></rect><polygon points="105.81 111.81 103.47 116.95 49.97 116.95 47.63 111.81 70.41 96.04 83.03 96.04 105.81 111.81" style="fill:#ebebeb"></polygon><polygon points="84.61 80.85 83.03 96.04 70.41 96.04 68.83 80.85 84.61 80.85" style="fill:#dbdbdb"></polygon><polygon points="105.81 111.81 103.47 116.95 49.96 116.95 47.63 111.81 105.81 111.81" style="fill:#dbdbdb"></polygon><rect x="146.57" width="1" height="67.18" style="fill:#c7c7c7"></rect><polygon points="176.16 95.21 173.82 100.36 120.31 100.36 117.98 95.21 140.76 79.45 153.38 79.45 176.16 95.21" style="fill:#ebebeb"></polygon><polygon points="154.96 64.26 153.38 79.45 140.76 79.45 139.18 64.26 154.96 64.26" style="fill:#dbdbdb"></polygon><polygon points="176.15 95.22 173.81 100.36 120.31 100.36 117.98 95.22 176.15 95.22" style="fill:#dbdbdb"></polygon><path d="M393.62,153.34a68.9,68.9,0,0,1,1.59-11.18,24.88,24.88,0,0,1,4-9.44,12,12,0,0,1,7.83-4.88,10.94,10.94,0,0,1,8.25,2.92,40,40,0,0,1,7.06,8.64,107.44,107.44,0,0,1,6.11,10.68c.06.13-.13.23-.19.11a65.33,65.33,0,0,0-5.46-8.94,55.21,55.21,0,0,0-6.28-7.61c-2.11-2.06-4.78-4-7.84-4.08a9.65,9.65,0,0,0-7.66,3.95,23.44,23.44,0,0,0-3.86,9.07,67.07,67.07,0,0,0-1.58,10.65c-.6,7.37-.76,14.78-.93,22.17q-.14,6.27-.19,12.55c0,2.12,0,4.24-.05,6.35a39.1,39.1,0,0,1-.24,6.13c-.07.42-.75.38-.81,0a36.25,36.25,0,0,1-.29-5.8c0-2-.05-4-.07-6,0-3.9-.05-7.81,0-11.71C393,169,393.09,161.16,393.62,153.34Z" style="fill:#a6a6a6"></path><path d="M404.15,147.79a17.32,17.32,0,0,1,2.28-6.42c2.14-2.9,4.44-1.64,2.31,1.57a19.18,19.18,0,0,0-3,7.93s3.58,5.12,7.91,7.64a34.06,34.06,0,0,1-.36-7.92c.83-6.33,4.66-6,3.72-1a43.46,43.46,0,0,0-.87,10.17,21.61,21.61,0,0,0,4.63,2.27c-.25-.73-.52-1.62-.81-2.68-1.53-5.68,2.25-7.45,2.37-4.26a44.58,44.58,0,0,0,1.47,8.05c2.08.7,3.8,1.18,4.85,1.55a17.7,17.7,0,0,1,7.1,4.85,22.53,22.53,0,0,0,4.83-6.26c-1.32-1.14-3.41-2.83-6.31-4.88-5.44-3.84-3.55-8.69.77-5.67,3.11,2.17,5.52,6.2,6.62,8.27a33.42,33.42,0,0,0,2.46-11.32c-4.27-4-14.84-9.6-11.65-9.6,2.87,0,9.28,4.2,11.63,5.82a28.79,28.79,0,0,0-.36-3.29c-4-2.64-17.1-6.74-15-7.92,2.29-1.3,11.41,2.93,14.17,4.26a16.62,16.62,0,0,0-2.41-5c-5.56-7.45-15.59-10-20-8.59-3.09,1-2.19,8.86-2.85,8.59C405.23,129,399.58,132.53,404.15,147.79Zm30.48-.86c.89-1.07,5,2.06,3.79,3.78S433.5,148.29,434.63,146.93Zm-21.32-6.7c1.07.68-.51,4.65-2.17,3.45C409.73,142.65,412.23,139.54,413.31,140.23Z" style="fill:#ebebeb"></path><path d="M414.94,141.44c.56-1.11,1.14-2.21,1.79-3.28a18.78,18.78,0,0,1,2-3c-.18-.21-.35-.44-.53-.65a.09.09,0,1,1,.13-.12c.21.23.4.48.61.72a.14.14,0,0,1,.08.1c.77.92,1.5,1.87,2.19,2.84a34.62,34.62,0,0,1,3.61,1c1.22.41,2.43.84,3.61,1.34.13.05.06.25-.06.2-1.17-.52-2.36-1-3.58-1.44s-2.32-.68-3.49-1q.57.8,1.11,1.62a42.09,42.09,0,0,1,6.38,2.61c2.16,1,4.24,2.21,6.31,3.41.11.06,0,.25-.11.18a68.93,68.93,0,0,0-6.27-3.25c-2-.93-4.07-1.7-6.09-2.59,5.08,7.92,8.13,17.06,12.2,25.53.06.12-.14.23-.19.1-1.24-3-2.67-5.86-4-8.78-1.21-2.62-2.4-5.26-3.62-7.88-.35-.77-.72-1.53-1.09-2.3.22,4.23.13,8.54.83,12.72a.11.11,0,1,1-.21,0c-.3-4.53-1.09-9-1.06-13.53,0,0,0,0,0-.06-.86-1.73-1.77-3.43-2.77-5.09-1.68,4-3.45,8-4.23,12.23a.1.1,0,1,1-.2-.06c1.14-4.26,2.2-8.53,4.25-12.47a49.34,49.34,0,0,0-3.57-5.16c-.57,1.06-1.29,2-1.93,3.06s-1.24,2-1.82,3a43,43,0,0,0-3.18,6.72c-.05.12-.25.06-.2-.06C412.85,145.9,413.83,143.63,414.94,141.44Z" style="fill:#a6a6a6"></path><path d="M374.91,151.08c3.26-3.27,7-7.56,12.08-7.55,4.86,0,8.44,3.92,10.49,8,2.15,4.22,2.93,9,3.53,13.65a165.53,165.53,0,0,1,1.29,16.79c.09,3.12.08,6.24,0,9.35a62,62,0,0,1-.71,9.44c-.09.51-.9.52-.93,0-.15-2.62,0-5.26,0-7.89s0-5.17-.12-7.76c-.19-5.23-.57-10.45-1.19-15.65-.53-4.54-1-9.2-2.32-13.59-1.22-3.95-3.52-8.48-7.53-10.22-5.47-2.37-10.82,2-14.4,5.62C375,151.31,374.81,151.17,374.91,151.08Z" style="fill:#a6a6a6"></path><path d="M358.28,158.38h0c0,.67.07,1.33.11,2a12,12,0,0,1,5.34-2.21c4.63-.49,4.33,3,1.24,3.17a17.53,17.53,0,0,0-6.34,1.27c.75,6.11,2.43,11,2.68,11.09a89.24,89.24,0,0,0,12.22-1.55c-1.15-2.45-3.77-5.7-2.43-6s2.79,2.64,3.53,5.75a58.13,58.13,0,0,0,8.89-2.45c-2-1.76-5.18-4-4-4.88s3.7,2.15,5.2,4.39a17.78,17.78,0,0,0,3.84-2.14c-2.74-4-9.42-4.85-8.55-7.76s7.12,1.13,9.93,6.52c3.29-3.42,4.26-8.26,3.91-12.39-2.87-.33-8.39.27-8-1.79s4.39-1.67,7.66-.46a11.63,11.63,0,0,0-1.92-4.55c-3-3.88-12.26,1.06-12.26,1.06s1-9.28-2.54-10.89c-2-.92-5.61-.91-9.2,1.21,2,.16,4.45.8,5.43,2.2,1.25,1.78-.72,2.75-2,1.93-.88-.58-2.53-2.42-5.51-2.66a18.36,18.36,0,0,0-3.34,3.69,17.42,17.42,0,0,0-1,1.53,12.71,12.71,0,0,1,10.81.2c4,2,1.76,6.14-1.68,4.53S363.66,146,360,146.91a25.84,25.84,0,0,0-1.76,10.35,18.1,18.1,0,0,1,5.93-2.85c4-1,5.18,1.34.81,1.78A17.56,17.56,0,0,0,358.28,158.38Zm4.84-6.39c-.27-1.29,2.55-1.66,3-.61C366.53,152.27,363.39,153.28,363.12,152Zm24.15,7.14c.27-.7,2.15.1,2,1C389,161.28,387,159.84,387.27,159.13Zm-13.33,4.53c1.38-.55,3.53,2.87,2,3.65S372.82,164.11,373.94,163.66Z" style="fill:#ebebeb"></path><path d="M361.85,173c2.08-3.47,4.13-6.95,6.3-10.36,1-1.58,2.08-3.14,3.18-4.66l-.49-.12c-.27-.05-.55-.11-.83-.15-.63-.12-1.28-.21-1.92-.27s-1.21-.1-1.82-.1a9.12,9.12,0,0,0-1.95.1c-.07,0-.09-.11,0-.11.65,0,1.31-.05,2-.06s1.26,0,1.89,0,1.18.09,1.76.18l1,.17c.19,0,.39.07.58.13q1.68-2.32,3.5-4.54a41.74,41.74,0,0,0-11.36-3.63c-.06,0,0-.11,0-.1A38.7,38.7,0,0,1,375.16,153l2-2.43c.75-.9,1.55-1.78,2.23-2.74,0-.06.13,0,.08.06a41.13,41.13,0,0,0-2.63,3.23h0a40.39,40.39,0,0,1,4.22,3.39c1.38,1.22,2.73,2.49,4,3.79.05,0,0,.12-.07.07q-1.94-1.92-4-3.68c-1.41-1.16-2.88-2.23-4.29-3.38,0,0,0,0,0,0-.32.42-.64.85-1,1.27l-.48.63a.1.1,0,0,1,0,.05l-1.61,2.11a17,17,0,0,1,1.6,2.89c.47,1,.87,2,1.25,3a45.43,45.43,0,0,1,1.73,6.5c0,.06-.09.1-.11,0a38.16,38.16,0,0,0-1.88-6.37c-.41-1.06-.87-2.1-1.34-3.13s-.95-1.84-1.35-2.78c-.47.61-.93,1.24-1.39,1.86l-.39.55a.07.07,0,0,1,0,.1h0c-1.43,2-2.79,4-4.1,6.08a2.23,2.23,0,0,1,.18.45c.08.25.16.5.23.76.15.51.27,1,.37,1.54s.15,1,.2,1.48a13.43,13.43,0,0,0,.13,1.68c0,.08-.12.09-.11,0a5.2,5.2,0,0,0-.11-1.57q-.12-.79-.3-1.59c-.11-.48-.24-.95-.38-1.42-.07-.24-.15-.47-.23-.7s-.1-.25-.14-.38c-.62,1-1.23,1.94-1.83,2.91-1.2,1.94-2.38,3.89-3.57,5.83C362,173.16,361.79,173.07,361.85,173Z" style="fill:#a6a6a6"></path><path d="M393.84,199.6c.05-2,.36-3.94.57-5.9s.44-3.92.65-5.89a88.56,88.56,0,0,1,1.52-11.36,16.57,16.57,0,0,1,4.62-8.5,7.52,7.52,0,0,1,4.54-2.16,7.79,7.79,0,0,1,4.81,1.48,17,17,0,0,1,4.05,4.27,41.37,41.37,0,0,1,3.15,5.12c0,.07-.07.11-.1.05a26.31,26.31,0,0,0-6.83-7.65,8.08,8.08,0,0,0-4.31-1.8,5.81,5.81,0,0,0-4.17,1.67,15.67,15.67,0,0,0-4.41,7.8,79,79,0,0,0-1.71,10.5l-.81,6.23c-.28,2.07-.45,4.19-.89,6.23A.34.34,0,0,1,393.84,199.6Z" style="fill:#a6a6a6"></path><path d="M403.5,184.34a11,11,0,0,0,2.14,2.18c-.32-1.92-.71-5.32.26-7.14,1.5-2.81,3.28-1.41,2.38,1a19.7,19.7,0,0,0-1.44,6.94,29.66,29.66,0,0,0,6.52,3.08,11.17,11.17,0,0,1-.21-3.36c.3-3,2.61-3,2,.18a18.93,18.93,0,0,0-.32,3.68,68.21,68.21,0,0,0,10.17,2.3,29.47,29.47,0,0,0,4.21-7.5c-2.45-.61-7.41-.75-7.3-2.51.14-2.35,4.94-.54,7.76,1.17a18.92,18.92,0,0,0,.85-6.34,31.41,31.41,0,0,0-6.76-1.12c-5-.44-4.8-3.3-1.15-3.23,2.7,0,6.12,1.7,7.73,2.56-1.05-6.87-6.29-11.27-10.49-11.44-7.06-.28-4.52,8.5-4.52,8.5s-4.78-3.36-9.29-3.27S398.68,177.62,403.5,184.34Zm18.86-12.7c-.16-1,3-1.23,3.16,0S422.52,172.64,422.36,171.64ZM427.43,182c-.06-.65,1.3-.76,1.6.05C429.24,182.53,427.49,182.58,427.43,182Zm-16.95.6c1.06.15,1.67,3.95-.16,3.88C408.92,186.37,409.58,182.42,410.48,182.55Z" style="fill:#ebebeb"></path><path d="M412,186.77c.18-.47.33-1,.48-1.44a15.14,15.14,0,0,0-.35,1.48A.07.07,0,1,1,412,186.77Z" style="fill:#a6a6a6"></path><path d="M413.81,180.66c.34-1,.71-1.94,1.09-2.9.2-.51.41-1,.63-1.52a6.53,6.53,0,0,1,.63-1.27,9.17,9.17,0,0,1-.57-1.24,0,0,0,1,1,.06,0,14.92,14.92,0,0,1,1.38,2.13c.2.33.38.67.57,1a9.49,9.49,0,0,1,1.19.18c.43.08.85.16,1.27.26l1.26.29c.41.1.83.24,1.25.3a.07.07,0,1,1,0,.13,9.83,9.83,0,0,0-1.32-.34c-.4-.09-.81-.16-1.22-.22s-.82-.11-1.24-.15l-.93-.07.51.88.07.15a4,4,0,0,1,1,.12c.36.06.73.13,1.09.21.73.16,1.47.34,2.19.54,1.53.43,3,.91,4.55,1.41.08,0,0,.15-.05.12a43,43,0,0,0-4.57-1.26c-.72-.17-1.44-.33-2.17-.48l-1.09-.23a7.86,7.86,0,0,1-.84-.19c.78,1.44,1.51,2.89,2.18,4.38,1.47,3.24,2.7,6.58,4,9.9,0,.09-.09.14-.12.06a91.31,91.31,0,0,0-4.21-9.68c-.28-.58-.57-1.15-.86-1.72,0,.11-.05.23-.07.35l-.21,1.18c-.13.79-.26,1.57-.38,2.36a27.18,27.18,0,0,0-.57,4.91c0,.1-.15.1-.14,0a23.79,23.79,0,0,0,.18-2.39c.05-.83.11-1.65.21-2.47s.19-1.59.32-2.38l.21-1.18a2.23,2.23,0,0,1,.22-.85c-.41-.83-.82-1.66-1.24-2.49s-.79-1.55-1.19-2.32l-.54-1a8.18,8.18,0,0,1-.47,1.19l-.54,1.34c-.41,1-.79,2-1.16,3-.54,1.42-1.13,2.86-1.57,4.33C413,183.55,413.33,182.08,413.81,180.66Z" style="fill:#a6a6a6"></path><path d="M412.43,185.33c0-.11.07-.22.1-.34A3.37,3.37,0,0,1,412.43,185.33Z" style="fill:#a6a6a6"></path><polygon points="382.03 195.78 382.53 206.29 383.81 233.38 411.75 233.38 413.03 206.29 413.53 195.78 382.03 195.78" style="fill:#c7c7c7"></polygon><polygon points="382.03 195.78 382.53 206.29 413.03 206.29 413.53 195.78 382.03 195.78" style="fill:#a6a6a6"></polygon><rect x="380.05" y="191.53" width="35.47" height="8.5" transform="translate(795.56 391.56) rotate(180)" style="fill:#c7c7c7"></rect></g><g id="freepik--Shadow--inject-78"><ellipse cx="250" cy="443.38" rx="177.62" ry="23.07" style="fill:#ebebeb"></ellipse></g><g id="freepik--wooden-planks--inject-78"><polygon points="100.76 124.21 141.47 124.21 123.98 382.44 83.27 382.44 100.76 124.21" style="fill:#FFC727"></polygon><polygon points="100.76 124.21 141.47 124.21 123.98 382.44 83.27 382.44 100.76 124.21" style="opacity:0.1"></polygon><polygon points="141.47 124.21 149.96 124.21 132.47 382.44 123.98 382.44 141.47 124.21" style="fill:#FFC727"></polygon><polygon points="141.47 124.21 149.96 124.21 132.47 382.44 123.98 382.44 141.47 124.21" style="opacity:0.30000000000000004"></polygon><g style="opacity:0.1"><path d="M112.37,124.21c-.52,11.6-1.16,23.2-1.81,34.79l-2.07,34.78-2.3,34.76L105,245.92l-1.34,17.36.86-17.4,1-17.39,2.08-34.77,2.3-34.77C110.62,147.37,111.44,135.79,112.37,124.21Z"></path><path d="M113.77,179.76c-.34,7.85-.8,15.68-1.27,23.52L111,226.77l-1.77,23.48-1,11.74-1.06,11.72.58-11.76.69-11.75L110,226.7l1.77-23.48C112.38,195.4,113,187.58,113.77,179.76Z"></path><path d="M124,140c-.24,6.72-.58,13.43-1,20.14l-1.2,20.13-1.44,20.11-.8,10.05c-.3,3.35-.57,6.7-.9,10,.11-3.37.28-6.72.42-10.08l.52-10.07,1.21-20.13,1.44-20.11C122.8,153.39,123.34,146.69,124,140Z"></path><path d="M128,124.13c0,3.73-.19,7.45-.35,11.17s-.42,7.44-.62,11.16-.53,7.44-.85,11.15l-.5,5.56c-.21,1.86-.38,3.71-.61,5.56,0-1.86.08-3.72.13-5.59l.23-5.58c.16-3.72.41-7.44.62-11.16s.52-7.43.84-11.15S127.55,127.83,128,124.13Z"></path><path d="M126.33,217.46c-.47,8.51-1,17-1.64,25.54l-1.91,25.55-2.13,25.54-1.15,12.77-1.25,12.75.77-12.79.87-12.77,1.91-25.54L123.93,243C124.68,234.48,125.45,226,126.33,217.46Z"></path><path d="M112.37,308.25c-.05,4.71-.21,9.41-.39,14.11s-.44,9.39-.65,14.08-.55,9.39-.88,14.08l-.53,7c-.2,2.34-.38,4.69-.62,7,0-2.36.1-4.7.14-7.06l.25-7c.18-4.7.44-9.4.65-14.09s.55-9.39.89-14.07S111.91,312.94,112.37,308.25Z"></path><path d="M93.8,324c-.16,4.89-.43,9.77-.72,14.65s-.65,9.75-1,14.62-.76,9.75-1.21,14.61l-.68,7.3c-.26,2.43-.49,4.86-.79,7.29.07-2.44.21-4.88.31-7.33l.41-7.31c.28-4.88.65-9.75,1-14.63s.76-9.74,1.2-14.61S93.23,328.83,93.8,324Z"></path><path d="M103.62,281.19c-.23,7.32-.57,14.64-.93,22l-1.19,21.94L100.07,347l-.79,11-.9,10.95.42-11,.52-11,1.19-22,1.43-21.93C102.45,295.79,103,288.49,103.62,281.19Z"></path><path d="M133,124.21c-.22,7-.55,14.1-.89,21.14L131,166.48l-1.38,21.11-.76,10.55c-.3,3.52-.55,7-.88,10.55.1-3.53.27-7.05.39-10.58l.5-10.56L130,166.42l1.38-21.11C131.9,138.27,132.41,131.24,133,124.21Z"></path><path d="M99.35,234.2c-.26,6-.62,12.08-1,18.11s-.85,12.05-1.27,18.08-1,12.05-1.5,18.07l-.83,9c-.32,3-.6,6-.94,9,.12-3,.3-6,.45-9.06l.56-9.05c.39-6,.85-12,1.28-18.08s1-12.05,1.5-18.07S98.69,240.21,99.35,234.2Z"></path></g><polygon points="83.27 232.11 116.76 232.11 107.44 382.44 73.95 382.44 83.27 232.11" style="fill:#FFC727"></polygon><polygon points="116.76 232.11 123.74 232.11 114.42 382.44 107.44 382.44 116.76 232.11" style="fill:#FFC727"></polygon><polygon points="116.76 232.11 123.74 232.11 114.42 382.44 107.44 382.44 116.76 232.11" style="opacity:0.30000000000000004"></polygon><g style="opacity:0.1"><path d="M97.76,232.2c-.21,6.65-.54,13.29-.88,19.93S96.12,265.4,95.75,272l-1.37,19.89-.76,9.94c-.29,3.32-.55,6.63-.87,9.94.1-3.32.26-6.64.39-10l.49-10L94.77,272c.45-6.64.86-13.27,1.36-19.9S97.14,238.82,97.76,232.2Z"></path><path d="M98.56,264c-.11,4.5-.33,9-.57,13.47s-.55,9-.83,13.45-.66,9-1,13.44l-.61,6.71c-.24,2.24-.45,4.48-.71,6.71,0-2.25.15-4.49.23-6.74l.33-6.73c.24-4.49.56-9,.83-13.45s.67-9,1.06-13.44S98,268.47,98.56,264Z"></path><path d="M104.41,241.24c0,3.85-.21,7.7-.39,11.54s-.43,7.68-.64,11.53-.54,7.67-.87,11.5l-.52,5.75c-.2,1.92-.38,3.83-.62,5.75,0-1.93.1-3.85.14-5.78l.24-5.77c.18-3.84.44-7.68.65-11.52s.54-7.68.87-11.51S104,245.06,104.41,241.24Z"></path><path d="M106.7,232.16c.06,2.14,0,4.27,0,6.4s-.18,4.27-.31,6.4-.3,4.25-.53,6.37l-.35,3.18c-.15,1.06-.27,2.12-.45,3.18,0-1.07,0-2.14,0-3.21l.07-3.2c.06-2.13.18-4.26.31-6.39s.31-4.25.54-6.37S106.36,234.27,106.7,232.16Z"></path><path d="M105.75,285.58c-.18,4.87-.47,9.75-.78,14.62s-.7,9.76-1,14.63-.81,9.75-1.27,14.62l-.72,7.31c-.27,2.43-.51,4.86-.82,7.29.09-2.45.23-4.89.34-7.33l.44-7.31c.31-4.88.7-9.74,1-14.62s.8-9.73,1.27-14.6S105.16,290.45,105.75,285.58Z"></path><path d="M86.94,237.42c-.32,9.53-.75,19.07-1.19,28.61l-1.46,28.62L82.6,323.27l-.92,14.3-1,14.29.54-14.32.65-14.31,1.46-28.61L85,266C85.59,256.49,86.21,247,86.94,237.42Z"></path><path d="M97.76,337.55c-.05,3.75-.2,7.5-.37,11.25S97,356.28,96.76,360s-.53,7.48-.85,11.21l-.51,5.6c-.21,1.87-.38,3.74-.61,5.6,0-1.88.08-3.75.13-5.63l.23-5.62c.17-3.74.42-7.48.63-11.23s.53-7.48.86-11.21S97.31,341.28,97.76,337.55Z"></path><path d="M87.13,346.55c0,3-.15,6-.3,9s-.34,6-.55,9-.47,6-.79,9L85,378c-.19,1.5-.35,3-.57,4.48,0-1.51.06-3,.09-4.51l.2-4.5c.13-3,.34-6,.56-9s.47-6,.78-9S86.7,349.53,87.13,346.55Z"></path><path d="M92.75,322.06c0,4.19-.2,8.39-.37,12.58S92,343,91.74,347.2s-.53,8.37-.86,12.55L90.37,366c-.21,2.09-.38,4.18-.62,6.27,0-2.1.09-4.2.14-6.29l.24-6.29c.17-4.19.42-8.38.63-12.57s.54-8.37.87-12.55S92.3,326.23,92.75,322.06Z"></path><path d="M109.59,232.2c0,4.05-.18,8.08-.35,12.11s-.4,8.07-.6,12.1-.52,8.06-.84,12.08l-.5,6c-.2,2-.37,4-.6,6,0-2,.08-4,.12-6.06l.23-6.05c.16-4,.4-8.07.6-12.1s.52-8.06.84-12.08S109.15,236.22,109.59,232.2Z"></path><path d="M90.31,295.16c-.06,3.47-.23,6.92-.42,10.38s-.43,6.9-.68,10.35-.55,6.9-.91,10.34l-.53,5.17c-.22,1.71-.4,3.44-.64,5.15,0-1.73.11-3.46.16-5.19l.26-5.18c.17-3.46.42-6.91.68-10.36s.55-6.9.91-10.34S89.84,298.6,90.31,295.16Z"></path><path d="M108.73,306.51c-.29,6.05-.69,12.09-1.1,18.14s-.92,12.07-1.37,18.11-1,12.07-1.59,18.1l-.87,9c-.33,3-.63,6-1,9,.13-3,.33-6.05.49-9.07l.61-9.07c.41-6,.91-12.08,1.36-18.12s1-12.07,1.59-18.09S108,312.53,108.73,306.51Z"></path></g><polygon points="85.54 172.21 114.82 172.21 62.36 382.44 33.07 382.44 85.54 172.21" style="fill:#FFC727"></polygon><polygon points="114.82 172.21 120.93 172.21 68.47 382.44 62.36 382.44 114.82 172.21" style="fill:#FFC727"></polygon><polygon points="114.82 172.21 120.93 172.21 68.47 382.44 62.36 382.44 114.82 172.21" style="opacity:0.30000000000000004"></polygon><g style="opacity:0.1"><path d="M92.89,175.79c-2,9.21-4.11,18.38-6.24,27.56l-6.49,27.49-6.71,27.44L70,272l-3.53,13.68,3.06-13.79,3.17-13.77,6.49-27.49,6.72-27.44C88.2,194,90.49,184.9,92.89,175.79Z"></path><path d="M86.25,220.36C84.91,226.59,83.47,232.79,82,239s-3,12.37-4.49,18.56L72.82,276l-2.43,9.24c-.84,3.07-1.66,6.14-2.53,9.2.66-3.11,1.38-6.21,2.06-9.32l2.17-9.3,4.49-18.56c1.57-6.16,3.09-12.34,4.7-18.5S84.52,226.49,86.25,220.36Z"></path><path d="M100,190c-1.1,5.35-2.29,10.66-3.5,16S94,216.61,92.7,221.91s-2.61,10.58-4,15.86l-2.06,7.91c-.73,2.63-1.42,5.27-2.17,7.89.53-2.68,1.13-5.34,1.7-8l1.8-8c1.21-5.31,2.5-10.61,3.75-15.91s2.61-10.58,4-15.86S98.47,195.27,100,190Z"></path><path d="M105.38,177.91c-.52,3-1.14,5.94-1.78,8.89s-1.33,5.9-2,8.83-1.45,5.87-2.26,8.78l-1.2,4.37c-.44,1.45-.84,2.91-1.31,4.35.25-1.5.56-3,.84-4.46l.94-4.44c.63-2.95,1.33-5.89,2-8.83s1.46-5.86,2.26-8.78S104.47,180.8,105.38,177.91Z"></path><path d="M91,252.23c-1.52,6.74-3.16,13.46-4.81,20.18l-5.07,20.15-5.29,20.1-2.72,10c-.94,3.33-1.85,6.67-2.82,10,.75-3.38,1.57-6.75,2.35-10.12l2.46-10.08,5.06-20.14,5.29-20.08C87.27,265.58,89.09,258.9,91,252.23Z"></path><path d="M67.19,322.8c-.67,3.76-1.43,7.49-2.22,11.23s-1.65,7.44-2.47,11.16-1.75,7.42-2.69,11.12l-1.42,5.53c-.51,1.84-1,3.69-1.52,5.52.32-1.88.7-3.75,1.05-5.62l1.16-5.61c.78-3.73,1.64-7.44,2.47-11.16s1.75-7.42,2.69-11.11S66.13,326.47,67.19,322.8Z"></path><path d="M50.16,332.76c-.78,3.89-1.66,7.76-2.55,11.62s-1.87,7.7-2.8,11.55-2,7.67-3,11.49l-1.59,5.73c-.56,1.9-1.09,3.81-1.69,5.7.38-1.94.82-3.88,1.23-5.82l1.32-5.79c.89-3.86,1.87-7.7,2.8-11.55s2-7.68,3-11.5S49,336.55,50.16,332.76Z"></path><path d="M64,300c-1.17,5.82-2.45,11.63-3.75,17.43s-2.66,11.57-4,17.36S53.46,346.31,52,352.07l-2.19,8.64c-.77,2.87-1.5,5.75-2.29,8.61.57-2.91,1.21-5.81,1.82-8.72l1.92-8.71c1.29-5.79,2.67-11.57,4-17.36S58.05,323,59.5,317.21,62.41,305.69,64,300Z"></path><path d="M109.39,178.68c-1.12,5.61-2.34,11.2-3.59,16.78s-2.56,11.14-3.84,16.72-2.67,11.12-4.07,16.67l-2.11,8.31c-.74,2.76-1.44,5.53-2.21,8.29.55-2.81,1.16-5.6,1.74-8.4l1.85-8.38c1.24-5.58,2.56-11.15,3.84-16.72s2.67-11.12,4.07-16.67S107.88,184.2,109.39,178.68Z"></path><path d="M67.13,261.83c-1,4.8-2.14,9.57-3.27,14.34s-2.35,9.52-3.52,14.27-2.46,9.49-3.74,14.22l-2,7.09c-.69,2.35-1.34,4.72-2.06,7.06.5-2.4,1.06-4.79,1.59-7.18l1.68-7.16c1.14-4.76,2.35-9.51,3.52-14.27s2.46-9.49,3.75-14.22S65.72,266.53,67.13,261.83Z"></path></g></g><g id="freepik--Floor--inject-78"><polygon points="29.71 382.48 84.78 382.24 139.85 382.15 250 381.98 360.15 382.15 415.22 382.23 470.29 382.48 415.22 382.72 360.15 382.81 250 382.98 139.85 382.81 84.78 382.72 29.71 382.48" style="fill:#263238"></polygon></g><g id="freepik--Character--inject-78"><path d="M279.14,444.35c-2.32.75-68.47-.11-71-1.74-1-.6-1.4-10.25-1.59-21.92v-.37c-.05-2.4-.08-4.88-.08-7.39,0-.34,0-.69,0-1l43.1.12-.05,1.34-.27,7,0,.72s25.17,11.66,27.73,13.74S281.46,443.61,279.14,444.35Z" style="fill:#ebebeb"></path><path d="M279.14,444.35c-1.19.38-19.16.34-36.73,0-3.53-.07-7-.15-10.39-.25-12.53-.34-22.88-.86-23.84-1.48s-1.39-10-1.58-21.44c0-.16,0-.32,0-.48s0-.25,0-.38h0l42.63.09,0,.72s25.18,11.65,27.73,13.74S281.46,443.61,279.14,444.35Z" style="fill:#FFC727"></path><path d="M278.42,441.78c-11.15-.42-56.15-1.06-67.2-.62-.09,0-.09.06,0,.07,11,.65,56,.92,67.2.73C278.66,442,278.66,441.79,278.42,441.78Z" style="fill:#263238"></path><path d="M254,420.58c-4.38-.87-9.75-.27-13.15,2.81-.13.12,0,.31.19.27A61.09,61.09,0,0,1,254,421.14.28.28,0,0,0,254,420.58Z" style="fill:#263238"></path><path d="M257.15,422.53c-4.37-.87-9.75-.27-13.14,2.81-.14.12,0,.31.18.27a61.21,61.21,0,0,1,12.94-2.52A.28.28,0,0,0,257.15,422.53Z" style="fill:#263238"></path><path d="M260.3,424.48c-4.38-.87-9.76-.27-13.15,2.81-.13.12,0,.31.18.27A61.21,61.21,0,0,1,260.27,425,.28.28,0,0,0,260.3,424.48Z" style="fill:#263238"></path><path d="M242.41,444.34c-3.53-.07-7-.15-10.39-.25-12.53-.34-22.88-.86-23.84-1.48s-1.39-10-1.58-21.44c0-.16,0-.32,0-.48s0-.25,0-.38h0C212.47,424.41,233.05,438.11,242.41,444.34Z" style="fill:#263238"></path><path d="M252.16,420.55H204.52s9.6-111.28,9.22-113.22c-.47-2.49-18.25-72.1-21.66-85.27L183,187h40.37S228,201.94,234,221.34c9.66,31.55,22.58,75,23.85,85.51C259.89,323.9,252.16,420.55,252.16,420.55Z" style="fill:#455a64"></path><path d="M250.05,412.42c-7.27-.15-5.18-.21-12.46-.28-3.56,0-27-.24-30.29.31-.07,0-.07.14,0,.15,3.33.55,26.73.35,30.29.31,7.28-.07,5.19-.13,12.46-.28A.1.1,0,0,0,250.05,412.42Z" style="fill:#263238"></path><path d="M222.71,300.53c-1.57-6.89-3.9-13.64-5.93-20.4q-6.19-20.6-12.47-41.18-3.12-10.29-6.28-20.58c-1.07-3.46-2.13-6.92-3.21-10.38s-2.27-6.73-3.23-10.14c-.39-1.39-.6-.63-.1,1.14,1,3.55,2,7.11,3,10.65q3.09,10.53,6.2,21.05,6.19,20.94,12.5,41.84,3.14,10.49,6.3,21a84.61,84.61,0,0,1,2.58,10.14,46.89,46.89,0,0,1,.42,10.85c-.46,7.29-1.3,14.57-2,21.84s-1.34,14.57-2,21.86q-2,21.75-4,43.51c-.17,1.84-.33,3.68-.47,5.52,0,.61.89.57.95,0,1.57-14.34,2.77-28.73,4.12-43.1l4-42.87c.33-3.59.71-7.18.72-10.79A44.66,44.66,0,0,0,222.71,300.53Z" style="fill:#263238"></path><path d="M218.75,187c-2.47,19.15-5.9,83.47-6.66,113.58-4.56-18.24-17.19-67.66-20-78.54-4.73-18.18-8.49-32.62-9.05-34.76a0,0,0,0,1,0,0,1.24,1.24,0,0,0-.05-.19.28.28,0,0,1,0-.06Z" style="fill:#263238"></path><path d="M229.39,444.35c-2.32.75-68.47-.11-71-1.74-1-.6-1.4-10.25-1.59-21.92,0-.12,0-.25,0-.37,0-2.4-.07-4.88-.08-7.39,0-.34,0-.69,0-1l43.1.12-.06,1.34-.26,7,0,.72s25.18,11.66,27.73,13.74S231.72,443.61,229.39,444.35Z" style="fill:#ebebeb"></path><path d="M229.4,444.35c-1.19.38-19.17.34-36.73,0-3.54-.07-7-.15-10.4-.25-12.52-.34-22.88-.86-23.84-1.48s-1.38-10-1.58-21.44c0-.16,0-.32,0-.48s0-.25,0-.38h0l42.64.09,0,.72s25.17,11.65,27.72,13.74S231.72,443.61,229.4,444.35Z" style="fill:#FFC727"></path><path d="M228.68,441.78c-11.15-.42-56.15-1.06-67.2-.62-.09,0-.09.06,0,.07,11,.65,56,.92,67.2.73C228.91,442,228.91,441.79,228.68,441.78Z" style="fill:#263238"></path><path d="M204.27,420.58c-4.38-.87-9.76-.27-13.15,2.81-.13.12,0,.31.18.27a61.21,61.21,0,0,1,12.94-2.52A.28.28,0,0,0,204.27,420.58Z" style="fill:#263238"></path><path d="M207.41,422.53c-4.38-.87-9.75-.27-13.15,2.81-.13.12,0,.31.19.27a61.12,61.12,0,0,1,12.93-2.52A.28.28,0,0,0,207.41,422.53Z" style="fill:#263238"></path><path d="M210.55,424.48c-4.38-.87-9.75-.27-13.14,2.81-.14.12,0,.31.18.27A61.21,61.21,0,0,1,210.53,425,.28.28,0,0,0,210.55,424.48Z" style="fill:#263238"></path><path d="M222,187s-.93,19.32-5.35,34.62c-.36,1.26-.74,2.51-1.16,3.7,0,0,.61-.49-6.42,3.82,0,0,2.72,76.82,2.83,81.4.41,17.16-12.06,110.69-12.06,110.69l-47.64.19s17-106.06,17-112.34c-.09-10.1-6.1-54-4.25-86.56A92,92,0,0,1,174.62,187Z" style="fill:#455a64"></path><path d="M198.24,412.77c-7.28-.12-5.19-.19-12.47-.23-3.56,0-27-.12-30.29.45a.07.07,0,0,0,0,.14c3.33.54,26.73.24,30.29.19,7.28-.1,5.19-.15,12.47-.34A.11.11,0,0,0,198.24,412.77Z" style="fill:#263238"></path><path d="M177.46,189.9c-6,11.58-8.27,24.76-8.76,37.68-.53,14,1.15,28,2.63,42,1.55,14.65,2.9,29.32,1.78,44-1.13,14.88-3.77,29.65-5.9,44.41s-4.38,29.52-6.21,44.32c-.23,1.87-.47,3.74-.69,5.62,0,.09.13.14.15,0,2.61-14.58,4.76-29.25,7-43.9s4.73-29.18,6.23-43.85.87-29.24-.6-43.88c-1.41-14.09-3.28-28.18-3.33-42.37,0-13.19,1.29-26.69,6-39.13.62-1.66,1.3-3.3,2-4.93C177.8,189.67,177.59,189.66,177.46,189.9Z" style="fill:#263238"></path><path d="M217.5,224.19a89.14,89.14,0,0,0-13.62,7.13.16.16,0,0,0,.15.28c4.59-2.23,9.28-4.38,13.75-6.86A.31.31,0,0,0,217.5,224.19Z" style="fill:#263238"></path><path d="M217.77,207.8c-.32,1.69-.73,3.37-1.09,5s-.6,3.19-1,4.75a8,8,0,0,1-2.22,4c-.62.58-1.3,1.09-2,1.62-.35.28-.74.55-1.11.84.05-.22.09-.45.13-.68l.33-1.93c.24-1.42.46-2.85.68-4.28.43-2.81.83-5.65,1.41-8.43a.09.09,0,1,0-.17,0c-.7,2.75-1.47,5.48-2.08,8.26-.3,1.36-1.37,8.09-1.42,8.57s-.09,1-.1,1.48a5.87,5.87,0,0,0,0,1.51c0,.12.18.1.23,0h0a5.48,5.48,0,0,0,.43-1.46c.12-.48.23-1,.32-1.45,0-.18.05-.36.08-.54.66-.4,1.28-.94,1.9-1.39s1.35-1,2-1.48a7.58,7.58,0,0,0,2.41-3.78,27.17,27.17,0,0,0,.8-4.84c.21-1.91.37-3.83.63-5.74C218,207.73,217.79,207.68,217.77,207.8Z" style="fill:#263238"></path><polygon points="290.03 438.88 279.5 438.88 314.02 243.6 324.55 243.6 290.03 438.88" style="fill:#a6a6a6"></polygon><polygon points="360 438.88 370.53 438.88 336.01 243.6 325.49 243.6 360 438.88" style="fill:#a6a6a6"></polygon><rect x="318.6" y="348.54" width="10.87" height="64.6" transform="translate(704.87 56.81) rotate(90)" style="fill:#a6a6a6"></rect><rect x="145.93" y="248.24" width="84.58" height="9.94" style="fill:#FFC727"></rect><rect x="145.93" y="248.24" width="84.58" height="9.94" style="opacity:0.30000000000000004"></rect><polygon points="369.91 235.15 285.34 235.15 145.94 248.24 230.51 248.24 369.91 235.15" style="fill:#FFC727"></polygon><polygon points="369.91 244.63 369.91 235.15 230.51 248.24 230.51 258.18 369.91 244.63" style="fill:#FFC727"></polygon><polygon points="369.91 244.63 369.91 235.15 230.51 248.24 230.51 258.18 369.91 244.63" style="opacity:0.1"></polygon><polygon points="188.22 248.24 219.03 245.16 205.17 248.24 188.22 248.24" style="fill:#FFC727"></polygon><polygon points="188.22 248.24 219.03 245.16 205.17 248.24 188.22 248.24" style="opacity:0.30000000000000004"></polygon><polygon points="167.75 248.24 177.9 246.7 172.82 248.24 167.75 248.24" style="fill:#FFC727"></polygon><polygon points="167.75 248.24 177.9 246.7 172.82 248.24 167.75 248.24" style="opacity:0.30000000000000004"></polygon><polygon points="154.61 453.45 144.08 453.45 178.6 258.18 189.13 258.18 154.61 453.45" style="fill:#a6a6a6"></polygon><polygon points="224.58 453.45 235.11 453.45 200.59 258.18 190.06 258.18 224.58 453.45" style="fill:#a6a6a6"></polygon><rect x="183.18" y="363.11" width="10.87" height="64.6" transform="translate(584.02 206.8) rotate(90)" style="fill:#a6a6a6"></rect><path d="M228.37,135.53c19.27,19.83,47.49,70.16,51,77.39,2.37,4.9-23.25,18-24.36,14.43-1.42-4.57-24.13-60.94-30.2-82.23C221.45,133.38,224.39,131.44,228.37,135.53Z" style="fill: rgb(247, 169, 160);"></path><path d="M253.76,224c.91,2.44,4,12.82,6.17,14.11s13.33.94,19,.9,6.74-1.61,6.64-3.55-11.95-2.24-11.95-2.24,15.84,4.44,19.83,5.16,13.16,3,14.47-.33c.58-1.49-1.93-3-1.93-3s3.85,1.1,4.45-.82c.68-2.18-2.38-3.36-2.38-3.36s2.41.47,2.45-1.3c.1-4-14.95-5.83-14.95-5.83s11.55,5.54,11.9,2.31c.48-4.48-23.15-9.26-25.62-11.2a16.56,16.56,0,0,1-4-4.83Z" style="fill: rgb(247, 169, 160);"></path><path d="M285.47,236.43a1.73,1.73,0,0,0-.54-1.51,5.16,5.16,0,0,0-1.39-.89,19.13,19.13,0,0,0-3.24-1c-2.22-.55-4.51-.93-6.78-1.51a27.45,27.45,0,0,1,7,.75,12.93,12.93,0,0,1,3.33,1.25,4.49,4.49,0,0,1,1.39,1.18A1.79,1.79,0,0,1,285.47,236.43Z" style="fill:#263238"></path><path d="M306,235.05c-1.63-.39-3.24-.84-4.84-1.3s-3.2-.93-4.8-1.4l-4.77-1.47c-1.59-.49-3.18-1-4.79-1.44a37.93,37.93,0,0,1,5,.85c1.63.37,3.24.82,4.84,1.3s3.19,1,4.75,1.59S304.44,234.35,306,235.05Z" style="fill:#263238"></path><path d="M290.56,225.47a31.94,31.94,0,0,1,4.57.6,43,43,0,0,1,4.47,1.12,41.54,41.54,0,0,1,4.33,1.59,33,33,0,0,1,4.11,2.09c-1.46-.49-2.88-1-4.33-1.52s-2.88-1-4.34-1.4-2.91-.87-4.38-1.29S292.05,225.86,290.56,225.47Z" style="fill:#263238"></path><path d="M292.87,221.68a28.23,28.23,0,0,1,7.27,1.49,27.7,27.7,0,0,1,6.7,3.2c-2.34-.82-4.62-1.69-6.95-2.45S295.23,222.42,292.87,221.68Z" style="fill:#263238"></path><path d="M225.06,150.64c5.91,19.18,19.84,56.59,19.84,56.59l26-12.74s-24-37.29-37.52-54.55C223.86,127.77,219.67,133.11,225.06,150.64Z" style="fill:#FFC727"></path><polygon points="241.03 204.3 270.61 191.18 274 198.11 244.42 211.73 241.03 204.3" style="fill:#FFC727"></polygon><polygon points="241.03 204.3 270.61 191.18 274 198.11 244.42 211.73 241.03 204.3" style="opacity:0.1"></polygon><path d="M167.73,205.57l63.1,5.74s.35-45.42-.41-56.75-1.46-23-3.5-25.9-9.81-5.31-14.63-3.65-14,9.37-25.16,32S167.73,205.57,167.73,205.57Z" style="fill:#FFC727"></path><path d="M210.52,125.77s1.19,21.07,1.3,21.36,16.58.12,16.78,0-2.54-19.36-2.54-19.36l1.5,1.49s3.76,19.1,4.43,32.33-.94,50.26-.94,50.26l-63.5-5.91A199.41,199.41,0,0,1,183,164.14S196.67,162,200.39,160s8.16-33.29,8.16-33.29Z" style="fill:#455a64"></path><path d="M168.26,208c-.36.34-3.28,21.47-1.95,22.36s19.47,4.32,20.82,3.66,3.4-21.83,3.29-22.11S168.94,207.31,168.26,208Z" style="fill:#FFC727"></path><path d="M189.5,221.29c-.69,5.85-1.63,12.32-2.37,12.68-1.35.66-19.49-2.77-20.82-3.66-.73-.49-.18-7,.52-12.87a93.22,93.22,0,0,1,1.44-9.49c.67-.64,22,3.63,22.15,3.91C190.47,212,190.07,216.42,189.5,221.29Z" style="opacity:0.1"></path><path d="M166,207.23c-.31-.29,2-8.14,3.21-10.1,0,0,19.49,4,36.14,5.8,12.45,1.32,26.71,1.07,26.76,1.42s.38,8.86.07,9.55-19.22.34-29.95-.55S167,208.21,166,207.23Z" style="fill:#FFC727"></path><path d="M222.68,203.38c-.75-.37-12.72-.83-13.36-.49-1.08.58-1.29,11.07-1,11.38s13.83.54,14.23.26S223.44,203.76,222.68,203.38Zm-1.47,9.82a96.19,96.19,0,0,1-11.54-.2c-.2-.23,0-8.34.84-8.79a71.86,71.86,0,0,1,10.84.38C222,204.88,221.54,213,221.21,213.2Z" style="fill:#dbdbdb"></path><rect x="218.4" y="208.14" width="3.8" height="1.45" transform="translate(5.65 -5.8) rotate(1.53)" style="fill:#dbdbdb"></rect><path d="M204.94,208.29a.56.56,0,1,1-.55-.56A.55.55,0,0,1,204.94,208.29Z" style="fill:#263238"></path><path d="M199.18,207.73a.56.56,0,1,1-.55-.55A.56.56,0,0,1,199.18,207.73Z" style="fill:#263238"></path><path d="M173.51,185.27h1.76a2.5,2.5,0,0,1,2.5,2.5v17.11a0,0,0,0,1,0,0H171a0,0,0,0,1,0,0V187.77a2.5,2.5,0,0,1,2.5-2.5Z" transform="translate(29.61 -22.88) rotate(8.2)" style="fill:#37474f"></path><rect x="170.59" y="204.77" width="4.56" height="1.81" transform="translate(31.11 -22.56) rotate(8.2)" style="fill:#37474f"></rect><rect x="170.63" y="206.47" width="1.45" height="19.45" transform="translate(32.59 -22.23) rotate(8.2)" style="fill:#ebebeb"></rect><path d="M171.16,227.73s-1.3,2.83-1.4,2.82l-.47-.07h0l-.47-.07c-.1,0-.55-3.1-.55-3.1l1-1.58,1.42.2Z" style="fill:#ebebeb"></path><rect x="171.63" y="187.51" width="1.18" height="15.16" transform="translate(29.59 -22.57) rotate(8.2)" style="fill:#263238"></rect><rect x="173.8" y="187.82" width="1.18" height="15.16" transform="translate(29.65 -22.88) rotate(8.2)" style="fill:#263238"></rect><rect x="175.97" y="188.13" width="1.18" height="15.16" transform="translate(29.72 -23.18) rotate(8.2)" style="fill:#263238"></rect><rect x="175.51" y="191.7" width="3.9" height="6.09" transform="matrix(0.99, 0.16, -0.16, 0.99, 33.28, -25.78)" style="fill:#ebebeb"></rect><path d="M179.58,193.85l2.61.42c.4.06,2.22-1.49,3.44-1.29l1.35.22c1.16.18,5.86,2.16,5.37,5.18s-.29,1.81-.29,1.81-.41-1.7-1.47-2.18a2.09,2.09,0,0,0-2.73,1,20.18,20.18,0,0,0-.92,2.64l-4.78-.77a17.88,17.88,0,0,0-.45-3.25c-.31-.82-2.58-1-2.58-1Z" style="fill:#ebebeb"></path><rect x="182.16" y="201.2" width="3.01" height="10.87" transform="translate(35.25 -26.61) rotate(9.16)" style="fill:#ebebeb"></rect><rect x="179.44" y="206.83" width="4.48" height="24.19" transform="translate(37.18 -26.14) rotate(9.16)" style="fill:#263238"></rect><path d="M189.5,221.29c-.69,5.85-1.63,12.32-2.37,12.68-1.35.66-19.49-2.77-20.82-3.66-.73-.49-.18-7,.52-12.87Z" style="fill:#FFC727"></path><path d="M228.74,151.8c-.49-.57-17.86-.09-18.07.5s-.6,12.08-.11,12.53c1.21,1.16,8.9,3,10.55,2.81a23.92,23.92,0,0,0,8.27-3.83C229.92,163.32,229.84,153.06,228.74,151.8Zm.07,11.65c-.82.64-5.65,3.15-7.81,3.47-1.47.22-9.5-2.25-9.8-2.59s-.16-9.11-.06-11.48c1.22-.91,16.64-.87,17.22-.38C228.75,152.8,229.37,163,228.81,163.45Z" style="fill:#263238"></path><path d="M221.46,138.49c-3.54-.66-7.4-8.7-7.81-13.63,0-.34,1.65-3,3.55-6.38,1.14-2,2.36-4.34,3.32-6.52.2-.45,1.36,1.05,1.36,1.05l2.52,1.92,8.32,6.39a38.26,38.26,0,0,0-5,7.79,6.25,6.25,0,0,0-.3.93,1.24,1.24,0,0,1,0,.16C226.88,132,224.88,139.12,221.46,138.49Z" style="fill: rgb(247, 169, 160);"></path><path d="M227.4,130a1.24,1.24,0,0,1,0,.16,9,9,0,0,1-1.44-.55c-9.11-4.27-5.09-16.48-5.09-16.48l3.57,1.76,8.32,6.39a38.26,38.26,0,0,0-5,7.79A6.25,6.25,0,0,0,227.4,130Z" style="fill:#263238"></path><path d="M226.82,95.29c-3.88,4-8.47,18.83-6.7,23.6,2.56,6.91,10.28,11.46,17,7.57,6.55-3.76,12.19-23.25,9.89-27.94C243.66,91.6,232.55,89.45,226.82,95.29Z" style="fill: rgb(247, 169, 160);"></path><path d="M219.85,118.58h0" style="fill:none;stroke:#db6a57;stroke-linecap:round;stroke-linejoin:round;stroke-width:0px"></path><path d="M235.5,110.89s-.09,0-.1.06c-.3,1-.81,2.11-1.81,2.14,0,0-.05.06,0,.06C234.73,113.36,235.39,111.89,235.5,110.89Z" style="fill:#263238"></path><path d="M235,109.56c-1.57-.65-2.75,2.52-1.3,3.12S236.27,110.1,235,109.56Z" style="fill:#263238"></path><path d="M240.8,112.74s.06.08,0,.12c-.39,1-.68,2.15.08,2.8,0,0,0,.07,0,.06C239.87,115.16,240.27,113.6,240.8,112.74Z" style="fill:#263238"></path><path d="M242.06,112c1.62.47.57,3.69-.94,3.25S240.7,111.65,242.06,112Z" style="fill:#263238"></path><path d="M234.18,107.55a12.91,12.91,0,0,0,1.27.56,2.21,2.21,0,0,0,1.41.33.72.72,0,0,0,.51-.71,1.79,1.79,0,0,0-1.18-1.36,2.62,2.62,0,0,0-1.86-.21A.76.76,0,0,0,234.18,107.55Z" style="fill:#263238"></path><path d="M243.88,110.9c-.41-.23-.75-.52-1.14-.79s-.81-.51-1-1a.71.71,0,0,1,.34-.8,1.77,1.77,0,0,1,1.77.3,2.65,2.65,0,0,1,1.14,1.49A.76.76,0,0,1,243.88,110.9Z" style="fill:#263238"></path><path d="M231.58,118.36a1.63,1.63,0,0,0,.38,1,2.8,2.8,0,0,0,1.08.42,0,0,0,0,1,0,.07,1.42,1.42,0,0,1-1.42-.28,1.13,1.13,0,0,1-.16-1.23A.06.06,0,0,1,231.58,118.36Z" style="fill:#263238"></path><path d="M233,116.65a3.58,3.58,0,0,0,1.67,2.32,5,5,0,0,0,1.19.5,1.05,1.05,0,0,0,.24.06l.22,0a.26.26,0,0,0,.28-.14h0a.36.36,0,0,0,0-.1h0l0-.09c.3-.75.65-1.92.65-1.92.23.24,1.4,1.4,1.53,1a53.73,53.73,0,0,0,2.47-10.6.1.1,0,0,0-.19,0c-1.11,3.17-1.66,6.52-2.72,9.73a6.29,6.29,0,0,0-1.4-1.07c-.12,0-.65,2.29-.81,2.61a.06.06,0,0,1,0,0,5,5,0,0,1-3.06-2.37C233,116.51,232.94,116.55,233,116.65Z" style="fill:#263238"></path><path d="M222.25,107.68c2.57,1.19,5.61-5,5.61-5s4.17,1.37,8.85-2.84c0,0,3.23,5.71,7.73,7.18,7.06,2.3,11.39-6.14,9.9-9.14-2.1-4.25-10.07-4-10.07-4s-7.81-7.52-13.9-2.78a5.36,5.36,0,0,0-6.92,2.34C220.73,97.77,220.33,106.78,222.25,107.68Z" style="fill:#263238"></path><path d="M226.59,102.89a9.64,9.64,0,0,0,6.21,0A7.21,7.21,0,0,0,237.3,98c0-.12.22-.06.19.06a8.26,8.26,0,0,1-4.32,5.54,6.67,6.67,0,0,1-6.67-.54C226.41,103,226.47,102.85,226.59,102.89Z" style="fill:#263238"></path><path d="M224.56,90.56c2.13-.92,4.2-.12,6.07,1,.11.07,0,.24-.1.17a6,6,0,0,0-6.14,0c-1.78,1-2.59,3-3.1,4.88a15.21,15.21,0,0,0,1,10.83s-.05.1-.09,0A15.21,15.21,0,0,1,221,95.53C221.58,93.6,222.59,91.41,224.56,90.56Z" style="fill:#263238"></path><path d="M243.85,94a7.1,7.1,0,0,1,5-.8,8.49,8.49,0,0,1,5,3.42,4.83,4.83,0,0,1,.28,4.81,8.62,8.62,0,0,1-4.24,3.84,0,0,0,0,1,0-.08,8.41,8.41,0,0,0,3.63-3.6,4.42,4.42,0,0,0-.43-4.69c-2-2.59-6-4.48-9.14-2.73C243.83,94.23,243.75,94.06,243.85,94Z" style="fill:#263238"></path><path d="M231.15,115.71a4.52,4.52,0,1,1,6.49-3h0a4.51,4.51,0,0,1-5.44,3.36A4.13,4.13,0,0,1,231.15,115.71Zm3.9-7.48a3.55,3.55,0,0,0-.91-.34,3.92,3.92,0,1,0,.91.34Z" style="fill:#FFC727"></path><path d="M240.87,119.36c-1.54-.8-2.11-3.1-1.27-5.31a5.35,5.35,0,0,1,2-2.61,2.81,2.81,0,0,1,4.51,1.71,5.47,5.47,0,0,1-.23,3.3c-.89,2.33-3,3.69-4.76,3Zm3.48-7.68a1,1,0,0,0-.21-.09,2.41,2.41,0,0,0-2.19.35,4.83,4.83,0,0,0-1.78,2.33c-.77,2-.24,4.1,1.18,4.64s3.21-.66,4-2.68a4.79,4.79,0,0,0,.22-2.92A2.53,2.53,0,0,0,244.35,111.68Z" style="fill:#FFC727"></path><path d="M237.31,113.17l-.19-.57c.84-.29,2.6-.45,3.21,1.05l-.56.23C239.23,112.53,237.39,113.15,237.31,113.17Z" style="fill:#FFC727"></path><path d="M218.06,107.09l-.4-.45c.21-.19,2.09-1.83,3.43-1.56s8.56,3.86,8.87,4l-.27.55c-2.09-1-7.75-3.76-8.72-4S218.57,106.63,218.06,107.09Z" style="fill:#FFC727"></path><path d="M224,107.87s-.9-6-3.46-5.86-3.42,7.69-1.49,9.74a2.68,2.68,0,0,0,3.86.31Z" style="fill: rgb(247, 169, 160);"></path><path d="M220.31,104.19a0,0,0,0,0-.05,0c1.33,1.5,1.44,3.47,1.26,5.36a1.49,1.49,0,0,0-1.81-1.35c-.05,0-.05.1,0,.12a1.65,1.65,0,0,1,1.38,1.32,8,8,0,0,1,.12,1.7c0,.19.31.24.34,0v0C222.65,109.29,222.47,105.52,220.31,104.19Z" style="fill:#263238"></path><path d="M227.5,130l-6.43,7-6.29-14.3-4.17,2.25s3.74,20.35,4.09,19.63l6.08-5.82,3,6.8,4.3-12.55Z" style="fill:#FFC727"></path><path d="M226.29,139.44c.64-2.1,1.35-4.2,1.89-6.32,0-.07-.08-.15-.13-.07-1.16,1.82-3.57,9.85-4.29,11.72v0c-.12-.29-2.9-6.07-3-6-1.16.85-5.61,5.08-6,5.49-.59-3.23-3-15.1-4-18.3a.08.08,0,0,0-.15,0c.35,3.31,3.51,19.23,3.64,19.24a86.06,86.06,0,0,0,6.4-6.16c.39,1.18,3,7.5,3.13,7.2A68.35,68.35,0,0,0,226.29,139.44Z" style="fill:#263238"></path><path d="M203.38,165.72l-22.72,19.1,20.5,24.37,22.71-19.1ZM198,198.86l-11.56-13.75,16.27-13.68,11.56,13.75Z" style="fill:#263238"></path><polygon points="260.82 263.28 260.84 263.23 258.97 264.07 258.89 264 258.89 263.99 259.72 262.18 257.85 263.01 257.77 262.93 258.61 261.11 256.73 261.95 256.65 261.87 257.49 260.06 255.62 260.88 255.54 260.81 256.38 258.99 254.5 259.83 254.42 259.75 255.25 257.93 253.37 258.76 253.3 258.69 253.29 258.69 254.13 256.87 252.26 257.7 252.19 257.63 253.02 255.81 251.14 256.64 251.07 256.57 251.06 256.57 251.9 254.75 250.03 255.58 249.96 255.51 249.95 255.5 250.79 253.69 248.91 254.52 248.84 254.45 249.67 252.63 247.79 253.46 247.71 253.39 248.56 251.56 246.68 252.4 246.6 252.32 247.44 250.51 245.56 251.34 245.48 251.27 246.32 249.44 244.44 250.27 244.37 250.2 245.2 248.38 243.32 249.21 243.25 249.15 244.08 247.32 242.21 248.15 242.13 248.08 242.97 246.26 241.09 247.09 241.01 247.02 241.85 245.2 239.97 246.04 239.89 245.97 240.73 244.14 238.86 244.97 238.78 244.9 239.61 243.08 237.73 243.91 237.66 243.84 238.5 242.01 236.62 242.84 236.54 242.77 237.38 240.95 235.5 241.79 235.42 241.72 236.26 239.89 234.38 240.73 234.3 240.66 235.14 238.83 233.26 239.67 233.19 239.6 234.03 237.77 232.14 238.61 232.07 238.54 232.91 236.71 231.03 237.54 230.96 237.47 231.79 235.65 229.91 236.49 229.84 236.42 230.68 234.59 228.8 235.42 228.79 235.42 228.72 235.35 229.55 233.52 227.67 234.36 227.6 234.29 228.44 232.46 226.55 233.3 226.48 233.23 227.32 231.4 225.44 232.24 225.37 232.17 226.21 230.34 224.32 231.18 224.25 231.11 225.09 229.28 223.21 230.12 223.14 230.05 223.98 228.22 222.08 229.05 222.02 228.99 222.86 227.16 220.96 227.99 220.9 227.92 221.74 226.1 219.85 226.93 219.78 226.86 220.62 225.03 218.73 225.87 218.66 225.8 219.5 223.97 217.62 224.81 217.54 224.74 218.39 222.91 216.5 223.75 216.42 223.68 217.26 221.85 215.39 222.69 215.31 222.62 216.15 220.79 214.26 221.62 214.19 221.56 215.03 219.73 213.14 220.57 213.07 220.51 213.92 218.67 212.03 219.5 211.95 219.43 212.79 217.6 210.91 218.45 210.83 218.38 211.68 216.54 209.79 217.38 209.72 217.31 210.56 215.48 208.67 216.32 208.6 216.26 209.44 214.43 207.55 215.27 207.49 215.19 208.33 213.36 206.44 214.2 206.37 214.13 207.21 212.3 205.32 213.14 205.25 213.08 206.1 211.24 204.2 212.08 204.14 212.01 204.98 210.18 203.08 211.02 203.01 210.95 203.86 209.11 201.97 209.95 201.16 209.19 223.87 190.09 272.24 253.5 260.82 263.28" style="fill:#c7c7c7"></polygon><g style="opacity:0.30000000000000004"><polygon points="239.62 210.74 211.48 216.97 209.94 217.31 209.76 217.35 209.72 217.31 210.56 215.48 208.67 216.32 208.6 216.26 209.44 214.43 207.55 215.27 207.49 215.19 208.33 213.36 206.44 214.2 206.37 214.13 206.95 212.87 236.29 206.37 239.62 210.74" style="fill:#fff"></polygon><polygon points="269.92 255.49 261.87 262.38 259.38 262.93 259.72 262.18 257.85 263.01 257.77 262.93 258.61 261.11 256.73 261.95 256.65 261.87 257.49 260.06 255.62 260.88 255.54 260.81 256.38 258.99 254.5 259.83 254.42 259.75 254.84 258.83 269.92 255.49" style="fill:#fff"></polygon><polygon points="242.21 246.6 241.09 247.09 241.01 247.02 241.09 246.84 242.21 246.6" style="fill:#fff"></polygon><polygon points="266.73 246.27 247.42 250.55 247.27 250.58 245.63 250.95 246.32 249.44 244.44 250.27 244.37 250.2 245.2 248.38 243.32 249.21 243.25 249.15 244.08 247.32 242.21 248.15 242.13 248.08 242.88 246.45 263.39 241.9 266.73 246.27" style="fill:#fff"></polygon><polygon points="233.55 202.78 203.73 209.38 202.76 209.6 201.82 209.81 201.16 209.19 204.06 206.75 231.88 200.59 233.55 202.78" style="fill:#fff"></polygon><polygon points="237.08 241.6 237.38 240.95 235.5 241.79 235.42 241.72 235.95 240.57 258.55 235.56 259.39 236.65 237.08 241.6" style="fill:#fff"></polygon><polygon points="230.73 199.08 206.91 204.35 208.98 202.62 229.89 197.98 230.73 199.08" style="fill:#fff"></polygon></g><path d="M210.89,178.85a4.47,4.47,0,0,1-4.09,3.05,6.64,6.64,0,0,1-.34,4.5c-1.23,2.43-5.59,1.57-5.59,1.57a8.19,8.19,0,0,1-1.11,4.68c-1.42,2.21-5.94,2-5.94,2a7.18,7.18,0,0,1-3.57,3.5c-4.27,1.71-9.94-2.45-13.57-5.06s-11.42-13.49-13.13-15.4L180,154.32s19.61,7.05,23.44,10.72C206.67,168.13,211.86,175.5,210.89,178.85Z" style="fill: rgb(247, 169, 160);"></path><path d="M206.9,181.41c-2.64-4.11-6.36-7.22-9.89-10.52-.08-.08-.2.05-.12.12,3.56,3.25,6.42,7.16,9.83,10.55A.12.12,0,0,0,206.9,181.41Z" style="fill:#263238"></path><path d="M201,187.61a12.56,12.56,0,0,0-2.39-2.33c-.9-.76-1.81-1.51-2.74-2.24q-2.77-2.21-5.67-4.26c-.08-.06-.2.05-.11.12,1.84,1.47,3.67,3,5.45,4.5.89.77,1.77,1.55,2.65,2.34a14.88,14.88,0,0,0,2.59,2.1A.17.17,0,0,0,201,187.61Z" style="fill:#263238"></path><path d="M193.74,194.55a9,9,0,0,0-2.26-2l-2.56-2c-1.7-1.32-3.4-2.65-5.06-4-.08-.06-.2.06-.11.13,1.67,1.41,3.33,2.84,5,4.24l2.5,2a8.45,8.45,0,0,0,2.42,1.65S193.77,194.59,193.74,194.55Z" style="fill:#263238"></path><path d="M194.45,128c-33,0-70.09,9.11-63.36,19.95,5.81,9.36,31.17,29,37,33,3.28,2.25,19.61-23.67,15.66-25.26a136.2,136.2,0,0,1-14.61-8.11c-.67-.88,14.72-2.13,27.12-6.84C209.64,135.66,210.09,128,194.45,128Z" style="fill: rgb(247, 169, 160);"></path><path d="M175.71,150.43l-33.84,17.22s-11.4-11.49-12.37-21.28,21-19,67.93-19.54c3.28,0,10.8.19,10.72,1.17-.5,5.78-1.86,11.35-10.69,14.39a124,124,0,0,1-26.09,5.77Z" style="fill:#FFC727"></path><path d="M139.08,167.65l35.39-18.43,6.19,3.66s-32.3,22.86-32.71,22.53S139.08,167.65,139.08,167.65Z" style="fill:#FFC727"></path><path d="M139.08,167.65l35.39-18.43,6.19,3.66s-32.3,22.86-32.71,22.53S139.08,167.65,139.08,167.65Z" style="opacity:0.1"></path></g><g id="freepik--Tools--inject-78"><rect x="328.51" y="396.51" width="3.66" height="57.15" style="fill:#FFC727"></rect><polygon points="377.97 428 374.96 426.94 376.53 426.23 375.75 424.68 377.32 423.96 376.54 422.42 378.12 421.69 377.33 420.16 378.91 419.43 378.13 417.88 379.7 417.17 378.92 415.62 380.49 414.9 379.71 413.36 381.28 412.63 380.5 411.09 382.07 410.37 381.29 408.82 382.87 408.1 382.08 406.56 383.66 405.84 382.87 404.3 384.45 403.57 383.67 402.03 385.24 401.31 384.46 399.76 386.03 399.04 385.25 397.5 386.82 396.78 386.04 395.23 387.62 394.51 386.83 392.97 388.41 392.24 387.63 390.7 389.2 389.98 388.42 388.43 389.99 387.72 389.21 386.17 390.78 385.45 390 383.91 391.57 383.18 390.79 381.64 392.37 380.92 391.58 379.37 393.16 378.66 392.38 377.11 393.95 376.39 393.17 374.85 394.74 374.12 393.96 372.58 395.53 371.86 394.75 370.31 396.32 369.6 395.54 368.05 398.56 369.1 377.97 428" style="fill:#c7c7c7"></polygon><rect x="392.6" y="360.7" width="13.3" height="3.21" transform="translate(873 104.94) rotate(109.26)" style="fill:#37474f"></rect><path d="M378,428l.8-2.29L390,429.64a2.13,2.13,0,0,0,2.7-1.31l18-51.45a2.13,2.13,0,0,0-1.3-2.71l-11.21-3.91L399,368l11.21,3.92a4.54,4.54,0,0,1,2.79,5.79l-18,51.45a4.55,4.55,0,0,1-5.79,2.79Z" style="fill:#263238"></path><rect x="406.6" y="396.51" width="3.66" height="57.15" style="fill:#FFC727"></rect><rect x="332.16" y="401.06" width="74.63" height="2.94" style="fill:#FFC727"></rect><path d="M331.18,390.51l19.73-4.28-4.59-21.17-19.73,4.28Zm1.37-7.22-2.59-12,14.13-3.06,2.59,11.94Z" style="fill:#263238"></path><polygon points="355.21 440.85 355.18 440.84 356.41 440.18 356.4 440.11 356.4 440.1 355.08 439.8 356.3 439.13 356.29 439.06 354.96 438.75 356.2 438.09 356.19 438.01 354.86 437.71 356.08 437.05 356.08 436.98 354.75 436.67 355.98 436.01 355.97 435.93 354.65 435.62 355.88 434.96 355.87 434.89 355.87 434.88 354.54 434.58 355.77 433.92 355.76 433.85 354.44 433.54 355.66 432.87 355.65 432.81 355.66 432.8 354.33 432.5 355.56 431.83 355.55 431.77 355.55 431.76 354.22 431.46 355.45 430.79 355.44 430.73 354.12 430.41 355.35 429.75 355.34 429.68 354 429.37 355.24 428.71 355.23 428.63 353.9 428.33 355.13 427.67 355.13 427.59 353.79 427.28 355.02 426.62 355.01 426.55 353.69 426.24 354.92 425.57 354.91 425.51 353.58 425.2 354.81 424.54 354.8 424.46 353.48 424.16 354.7 423.49 354.7 423.42 353.37 423.12 354.61 422.45 354.6 422.38 353.27 422.07 354.49 421.41 354.49 421.34 353.16 421.03 354.39 420.36 354.38 420.29 353.05 419.99 354.28 419.32 354.27 419.25 352.94 418.94 354.18 418.28 354.17 418.21 352.84 417.9 354.07 417.23 354.07 417.16 352.73 416.85 353.97 416.19 353.96 416.12 352.62 415.81 353.86 415.15 353.85 415.08 352.52 414.77 353.75 414.1 353.74 414.04 352.42 413.73 353.65 413.06 353.64 413 352.31 412.69 353.54 412.02 353.54 412.02 353.53 411.95 352.2 411.64 353.43 410.97 353.43 410.91 352.09 410.6 353.33 409.93 353.32 409.86 351.99 409.55 353.22 408.89 353.21 408.82 351.88 408.51 353.12 407.85 353.11 407.78 351.77 407.47 353.01 406.81 353 406.74 351.66 406.43 352.9 405.75 352.89 405.7 351.56 405.39 352.8 404.71 352.78 404.65 351.45 404.35 352.69 403.67 352.68 403.61 351.35 403.3 352.58 402.63 352.57 402.56 351.24 402.25 352.47 401.59 352.47 401.52 351.13 401.21 352.37 400.55 352.37 400.48 351.03 400.17 352.26 399.51 352.26 399.44 350.92 399.13 352.15 398.46 352.15 398.39 350.82 398.08 352.06 397.42 352.05 397.35 350.71 397.05 351.94 396.37 351.94 396.3 350.6 395.99 351.84 395.33 351.84 395.26 350.49 394.95 351.73 394.29 351.72 394.22 350.39 393.91 351.63 393.24 351.62 393.18 350.29 392.87 351.53 392.2 351.51 392.14 350.18 391.83 351.41 391.16 351.4 391.09 350.07 390.78 351.31 390.12 351.31 390.05 349.96 389.75 351.2 389.07 351.19 389.01 349.86 388.7 351.1 388.03 351.09 387.96 349.75 387.65 350.99 386.99 350.91 386.23 331.19 390.51 345.19 442.92 355.21 440.85" style="fill:#c7c7c7"></polygon><g style="opacity:0.30000000000000004"><polygon points="335.75 407.58 350.81 395.02 351.63 394.34 351.73 394.26 351.72 394.22 350.39 393.91 351.63 393.24 351.62 393.18 350.29 392.87 351.53 392.2 351.51 392.14 350.18 391.83 351.41 391.16 351.4 391.09 350.49 390.88 334.78 403.97 335.75 407.58" style="fill:#fff"></polygon><polygon points="347.23 442.5 354.29 441.04 355.62 439.93 355.08 439.8 356.3 439.13 356.29 439.06 354.96 438.75 356.2 438.09 356.19 438.01 354.86 437.71 356.08 437.05 356.08 436.98 354.75 436.67 355.98 436.01 355.97 435.93 355.3 435.78 347.23 442.5" style="fill:#fff"></polygon><polygon points="353.97 423.89 354.7 423.49 354.7 423.42 354.57 423.39 353.97 423.89" style="fill:#fff"></polygon><polygon points="343.6 436.95 353.93 428.34 354.01 428.27 354.89 427.54 353.79 427.28 355.02 426.62 355.01 426.55 353.69 426.24 354.92 425.57 354.91 425.51 353.58 425.2 354.81 424.54 354.8 424.46 353.62 424.19 342.63 433.34 343.6 436.95" style="fill:#fff"></polygon><polygon points="333.99 401 349.95 387.7 350.47 387.27 350.97 386.85 350.91 386.23 348.39 386.78 333.51 399.19 333.99 401" style="fill:#fff"></polygon><polygon points="353.42 419.05 352.94 418.94 354.18 418.28 354.17 418.21 353.33 418.01 341.24 428.09 341.47 429 353.42 419.05" style="fill:#fff"></polygon><polygon points="333.17 397.94 345.92 387.32 344.12 387.71 332.93 397.04 333.17 397.94" style="fill:#fff"></polygon></g><path d="M345.06,413.3h4.69a2.5,2.5,0,0,1,2.5,2.5v25.62a0,0,0,0,1,0,0h-9.69a0,0,0,0,1,0,0V415.8A2.5,2.5,0,0,1,345.06,413.3Z" transform="translate(797.35 744.98) rotate(164.33)" style="fill:#37474f"></path><rect x="339.99" y="411.28" width="6.53" height="2.59" transform="translate(785.21 717.09) rotate(164.33)" style="fill:#37474f"></rect><rect x="338.1" y="383.95" width="2.07" height="27.9" transform="translate(773.16 689.38) rotate(164.33)" style="fill:#ebebeb"></rect><path d="M332.69,382.67s.07-4.47.2-4.51l.66-.18h0l.67-.18c.13,0,2.51,3.75,2.51,3.75l-.37,2.64-2,.56Z" style="fill:#ebebeb"></path><rect x="349.4" y="415.23" width="1.69" height="21.73" transform="translate(802.57 741.73) rotate(164.33)" style="fill:#263238"></rect><rect x="346.37" y="416.08" width="1.69" height="21.73" transform="translate(796.86 744.21) rotate(164.33)" style="fill:#263238"></rect><rect x="343.35" y="416.92" width="1.69" height="21.73" transform="translate(791.15 746.69) rotate(164.33)" style="fill:#263238"></rect><path d="M354,382.73h4.69a2.5,2.5,0,0,1,2.5,2.5v25.62a0,0,0,0,1,0,0h-9.69a0,0,0,0,1,0,0V385.23A2.5,2.5,0,0,1,354,382.73Z" transform="translate(20.2 -17.25) rotate(2.85)" style="fill:#37474f"></path><rect x="352.33" y="410.83" width="6.53" height="2.59" transform="translate(20.96 -17.19) rotate(2.85)" style="fill:#37474f"></rect><rect x="353.8" y="413.4" width="2.07" height="27.9" transform="translate(21.72 -17.14) rotate(2.85)" style="fill:#ebebeb"></rect><path d="M356.11,443.83s-1.48,4.23-1.62,4.22l-.69,0h0l-.68,0c-.14,0-1.2-4.36-1.2-4.36l1.19-2.38,2.06.1Z" style="fill:#ebebeb"></path><rect x="352.42" y="386.22" width="1.69" height="21.73" transform="translate(20.21 -17.1) rotate(2.85)" style="fill:#263238"></rect><rect x="355.56" y="386.38" width="1.69" height="21.73" transform="matrix(1, 0.05, -0.05, 1, 20.22, -17.25)" style="fill:#263238"></rect><rect x="358.7" y="386.53" width="1.69" height="21.73" transform="translate(20.21 -17.39) rotate(2.85)" style="fill:#263238"></rect><rect x="366.41" y="387.05" width="8.35" height="51.79" transform="translate(787.98 778.52) rotate(173.12)" style="fill:#263238"></rect><rect x="362.31" y="382.24" width="10.41" height="10.41" transform="translate(778.79 728.09) rotate(173.12)" style="fill:#c7c7c7"></rect><path d="M372.12,382.15s9.84-7.08,15-7.7l2.15,17.83-16-.79Z" style="fill:#c7c7c7"></path><g style="opacity:0.2"><polygon points="388.09 382.69 381.42 391.89 381.41 391.89 377.36 391.69 387.5 377.75 388.09 382.69" style="fill:#fff"></polygon><path d="M386.34,374.59,374,391.53l-.78,0-.18-1.52,10.52-14.49A15.57,15.57,0,0,1,386.34,374.59Z" style="fill:#fff"></path><path d="M381.42,376.48l-8.56,11.78-.15-1.24,7-9.65C380.28,377.06,380.85,376.76,381.42,376.48Z" style="fill:#fff"></path></g><rect x="382.51" y="383.09" width="6.38" height="9.96" transform="translate(66.72 -56.47) rotate(9.16)" style="fill:#ebebeb"></rect><path d="M389.16,386.6l4.27.69c.65.1,3.62-2.43,5.62-2.11l2.19.36c1.9.3,9.59,3.53,8.79,8.48s-.48,2.94-.48,2.94-.68-2.77-2.4-3.55a3.39,3.39,0,0,0-4.46,1.63,31.49,31.49,0,0,0-1.5,4.32l-7.82-1.26a29.62,29.62,0,0,0-.73-5.31c-.5-1.35-4.21-1.64-4.21-1.64Z" style="fill:#ebebeb"></path><rect x="393.37" y="398.61" width="4.92" height="17.76" transform="translate(69.94 -57.84) rotate(9.16)" style="fill:#ebebeb"></rect><rect x="388.92" y="407.82" width="7.32" height="39.53" transform="translate(73.1 -57.06) rotate(9.16)" style="fill:#263238"></rect><rect x="332.16" y="414.23" width="74.44" height="39.43" style="fill:#FFC727"></rect><g style="opacity:0.1"><path d="M332.16,418.79c3.61-.15,7.22-.22,10.83-.28s7.22-.06,10.83-.09l10.84.08c3.61.06,7.22.14,10.83.29-3.61.16-7.22.23-10.83.29l-10.84.09c-3.61,0-7.22,0-10.83-.09S335.77,419,332.16,418.79Z"></path><path d="M349.81,422.38c4.74-.16,9.47-.23,14.2-.29l14.2-.09,14.19.09c4.74.06,9.47.13,14.2.29-4.73.15-9.46.22-14.2.28l-14.19.09-14.2-.09C359.28,422.6,354.55,422.53,349.81,422.38Z"></path><path d="M394,427.77c-4.36.16-8.71.23-13.07.29l-13.07.09-13.07-.09c-4.36-.06-8.72-.13-13.07-.29,4.35-.15,8.71-.23,13.07-.29l13.07-.08,13.07.08C385.26,427.54,389.61,427.62,394,427.77Z"></path><path d="M332.16,429.93c2.77-.15,5.54-.22,8.31-.28s5.54-.06,8.31-.09,5.54,0,8.3.08,5.54.14,8.31.29c-2.77.16-5.54.23-8.31.29s-5.53.06-8.3.09-5.54,0-8.31-.09S334.93,430.09,332.16,429.93Z"></path><polygon points="332.16 432.54 340.47 432.35 348.78 432.25 365.4 432.16 382.02 432.25 390.33 432.35 398.64 432.54 390.33 432.72 382.02 432.82 365.4 432.91 348.78 432.82 340.47 432.72 332.16 432.54"></polygon><path d="M406.6,434.59c-3,.15-6.07.23-9.11.29s-6.08.05-9.11.08-6.08,0-9.12-.08-6.07-.14-9.11-.29c3-.16,6.07-.23,9.11-.29s6.08-.06,9.12-.09,6.07,0,9.11.09S403.56,434.43,406.6,434.59Z"></path><path d="M360.31,437.75c2.8-.16,5.61-.23,8.41-.29s5.61-.06,8.42-.09,5.61,0,8.41.09,5.62.13,8.42.29c-2.8.15-5.61.23-8.42.29s-5.61,0-8.41.08-5.61,0-8.42-.09S363.11,437.9,360.31,437.75Z"></path><path d="M332.16,443.59c4.63-.15,9.25-.22,13.87-.28l13.88-.09,13.87.08c4.62.06,9.25.14,13.87.29-4.62.16-9.25.23-13.87.29l-13.87.09L346,443.88C341.41,443.82,336.79,443.75,332.16,443.59Z"></path><path d="M406.6,447.56c-3.1.15-6.2.22-9.3.28s-6.21.06-9.31.09-6.2,0-9.3-.08-6.21-.14-9.31-.29c3.1-.16,6.2-.23,9.31-.29s6.2-.06,9.3-.09,6.2,0,9.31.09S403.5,447.4,406.6,447.56Z"></path><path d="M332.16,450.88c2.6-.15,5.19-.22,7.78-.28s5.19-.06,7.78-.09,5.19,0,7.78.08,5.19.14,7.78.29c-2.59.16-5.18.23-7.78.29s-5.18.06-7.78.09-5.18,0-7.78-.09S334.76,451,332.16,450.88Z"></path></g></g></svg>