<svg xmlns="http://www.w3.org/2000/svg" viewBox="0 0 750 500"><g id="freepik--background-complete--inject-226"><polygon points="58.31 375.95 169.09 375.95 172.66 305.66 54.75 305.66 58.31 375.95" style="fill:#ebebeb"></polygon><path d="M161,337.83H63.41l-1.34-24.4H162.54ZM64.23,337h95.93l1.46-22.67H63Z" style="fill:#dbdbdb"></path><path d="M159.65,365.91H66.22l-1.1-22H161ZM67,365h91.8l1.27-20.29H66Z" style="fill:#dbdbdb"></path><path d="M123.41,328.28H102.73l-.76-5.89h22.2Zm-19.92-.87h19.16l.54-4.15H103Z" style="fill:#dbdbdb"></path><path d="M123.41,357.84H102.73L102,352h22.2ZM103.49,357h19.16l.54-4.15H103Z" style="fill:#dbdbdb"></path><polygon points="73.67 375.95 72.6 383.61 70.44 398.99 66.2 398.99 66.2 375.95 73.67 375.95" style="fill:#ebebeb"></polygon><polygon points="73.67 375.95 72.6 383.61 66.2 383.61 66.2 375.95 73.67 375.95" style="fill:#dbdbdb"></polygon><polygon points="153.73 375.95 154.8 383.61 156.97 398.99 161.2 398.99 161.2 375.95 153.73 375.95" style="fill:#ebebeb"></polygon><polygon points="153.73 375.95 154.8 383.61 161.2 383.61 161.2 375.95 153.73 375.95" style="fill:#dbdbdb"></polygon><path d="M368.45,174H283.63V89.18h84.82Zm-80.82-4h76.82V93.18H287.63Z" style="fill:#c7c7c7"></path><rect x="323.02" y="98.71" width="26.56" height="59.88" style="fill:#ebebeb"></rect><rect x="432.81" y="117.8" width="20.06" height="57.95" transform="translate(589.62 -296.06) rotate(90)" style="fill:#c7c7c7"></rect><rect x="526" y="119.32" width="25.2" height="42.16" transform="translate(1077.2 280.81) rotate(180)" style="fill:#ebebeb"></rect><path d="M482.4,174H397.58V89.18H482.4Zm-80.82-4H478.4V93.18H401.58Z" style="fill:#c7c7c7"></path><path d="M596.35,174H511.53V89.18h84.82Zm-80.82-4h76.82V93.18H515.53Z" style="fill:#c7c7c7"></path><rect x="310.7" y="116.25" width="30.68" height="30.68" style="fill:#c7c7c7"></rect><rect x="424.65" y="116.25" width="30.68" height="30.68" style="fill:#ebebeb"></rect><rect x="538.6" y="116.25" width="30.68" height="30.68" style="fill:#c7c7c7"></rect></g><g id="freepik--Floor--inject-226"><polygon points="39.68 399.06 123.51 398.82 207.34 398.73 375 398.57 542.66 398.73 626.49 398.82 710.32 399.06 626.49 399.31 542.66 399.4 375 399.56 207.34 399.4 123.51 399.31 39.68 399.06" style="fill:#263238"></polygon></g><g id="freepik--Sofa--inject-226"><rect x="282.81" y="201.4" width="314.36" height="159.53" style="fill:#FFE086"></rect><rect x="241.83" y="253.4" width="40.98" height="107.53" style="fill:#FFE086"></rect><rect x="597.17" y="253.4" width="40.98" height="107.53" style="fill:#FFE086"></rect><g style="opacity:0.1"><rect x="439.5" y="201.4" width="0.98" height="127.82"></rect><rect x="282.33" y="253.4" width="0.98" height="107.53"></rect><rect x="596.68" y="253.4" width="0.98" height="107.53"></rect><path d="M440.49,329.72H282.33V296.37H440.49Zm-157.16-1H439.49V297.37H283.33Z"></path><path d="M597.66,329.72H439.49V296.37H597.66Zm-157.17-1H596.66V297.37H440.49Z"></path></g><g style="opacity:0.1"><path d="M293.5,236.5a.68.68,0,0,0,0,1.36A.68.68,0,0,0,293.5,236.5Z"></path><path d="M294.66,319.53a.68.68,0,0,0,0,1.35A.68.68,0,0,0,294.66,319.53Z"></path><path d="M333.57,306.56a1.24,1.24,0,0,0-.1-.2.31.31,0,0,0-.53,0c0,.06-.07.13-.11.2C332.45,307.36,334,307.36,333.57,306.56Z"></path><path d="M265.83,321.23a2,2,0,0,0-.11-.2.3.3,0,0,0-.52,0,2,2,0,0,0-.11.2C264.71,322,266.21,322,265.83,321.23Z"></path><path d="M299.33,240.64a.52.52,0,0,0,0,1A.52.52,0,0,0,299.33,240.64Z"></path><path d="M511.18,257.53a.52.52,0,0,0,0,1A.52.52,0,0,0,511.18,257.53Z"></path><path d="M255.75,293.26a.52.52,0,0,0,0,1A.52.52,0,0,0,255.75,293.26Z"></path><path d="M323.8,211.72a.71.71,0,0,0-1,0,1,1,0,0,0-.25,1,.79.79,0,0,0,1.51,0A1,1,0,0,0,323.8,211.72Z"></path><path d="M300.34,315.68a.73.73,0,0,0-1,0,1,1,0,0,0-.25,1,.79.79,0,0,0,1.51,0A1,1,0,0,0,300.34,315.68Z"></path><path d="M568.72,321.33a.68.68,0,0,0,0-1.36A.68.68,0,0,0,568.72,321.33Z"></path><path d="M428,322.68a.68.68,0,0,0,0-1.35A.68.68,0,0,0,428,322.68Z"></path><path d="M564.81,213.52a.68.68,0,0,0,0-1.36A.68.68,0,0,0,564.81,213.52Z"></path><path d="M394.25,232.1a.68.68,0,0,0,0-1.36A.68.68,0,0,0,394.25,232.1Z"></path><path d="M518.65,251.27a1.24,1.24,0,0,0,.1.2.31.31,0,0,0,.53,0,1.24,1.24,0,0,0,.1-.2C519.77,250.46,518.26,250.46,518.65,251.27Z"></path><path d="M457.43,316.28l.11.2a.31.31,0,0,0,.53,0,1.86,1.86,0,0,0,.1-.2C458.56,315.47,457.05,315.47,457.43,316.28Z"></path><path d="M619.92,304a2.12,2.12,0,0,0,.11.21.31.31,0,0,0,.53,0l.1-.21C621.05,303.19,619.54,303.19,619.92,304Z"></path><path d="M562.88,317.19a.52.52,0,0,0,0-1A.52.52,0,0,0,562.88,317.19Z"></path><path d="M606.47,264.56a.52.52,0,0,0,0-1A.52.52,0,0,0,606.47,264.56Z"></path><path d="M610.17,334.07a.52.52,0,0,0,0-1A.52.52,0,0,0,610.17,334.07Z"></path><path d="M528.42,346.11a.71.71,0,0,0,1,0,1,1,0,0,0,.25-1,.79.79,0,0,0-1.51,0A1,1,0,0,0,528.42,346.11Z"></path><path d="M561.88,242.14a.71.71,0,0,0,1,0,1,1,0,0,0,.25-1,.79.79,0,0,0-1.51,0A1,1,0,0,0,561.88,242.14Z"></path><path d="M373.55,275.39a.71.71,0,0,0,1,0,1,1,0,0,0,.25-1,.79.79,0,0,0-1.51,0A1,1,0,0,0,373.55,275.39Z"></path><path d="M624,297.25a.74.74,0,0,0,1,0,1,1,0,0,0,.24-1,.78.78,0,0,0-1.5,0A1,1,0,0,0,624,297.25Z"></path></g><path d="M283.3,328.81a345.29,345.29,0,0,0,78.05,9.34,377,377,0,0,0,79.13-8.93Z" style="opacity:0.1"></path><path d="M440,328.81a345.29,345.29,0,0,0,78,9.34,377,377,0,0,0,79.13-8.93Z" style="opacity:0.1"></path><rect x="241.83" y="351.48" width="396.32" height="9.45" style="fill:#37474f"></rect><polygon points="296.73 360.93 286.31 382.27 275.84 403.71 266.73 403.71 270.11 382.27 273.48 360.93 296.73 360.93" style="fill:#37474f"></polygon><polygon points="273.48 360.93 296.73 360.93 290.41 373.87 271.44 373.87 273.48 360.93" style="fill:#263238"></polygon><polygon points="609.36 403.71 600.24 403.71 589.77 382.27 579.35 360.93 602.6 360.93 605.97 382.27 609.36 403.71" style="fill:#37474f"></polygon><polygon points="604.64 373.87 585.67 373.87 579.35 360.93 602.6 360.93 604.64 373.87" style="fill:#263238"></polygon></g><g id="freepik--Shadow--inject-226"><ellipse cx="375" cy="453.33" rx="277.4" ry="19.62" style="fill:#ebebeb"></ellipse></g><g id="freepik--Lamp--inject-226"><rect x="641.02" y="393.26" width="51.08" height="5.81" style="fill:#455a64"></rect><rect x="663.54" y="165.57" width="6.05" height="227.69" style="fill:#455a64"></rect><rect x="663.54" y="165.57" width="6.05" height="30.67" style="fill:#263238"></rect><polygon points="698.6 183.32 634.52 183.32 639.18 168.02 639.35 167.48 652.9 122.95 680.23 122.95 693.79 167.49 693.79 167.5 693.94 168 698.6 183.32" style="fill:#FFE086"></polygon><path d="M655.16,133.24a.43.43,0,0,1-.43.43.43.43,0,1,1,0-.86A.43.43,0,0,1,655.16,133.24Zm7.46-.43a.43.43,0,1,0,.44.43A.43.43,0,0,0,662.62,132.81Zm7.9,0a.43.43,0,1,0,.43.43A.44.44,0,0,0,670.52,132.81Zm7.89,0a.43.43,0,0,0,0,.86.43.43,0,0,0,0-.86Zm-19.73-5.53a.43.43,0,0,0-.43.43.43.43,0,0,0,.86,0A.43.43,0,0,0,658.68,127.28Zm7.89,0a.43.43,0,0,0-.43.43.43.43,0,1,0,.86,0A.43.43,0,0,0,666.57,127.28Zm7.89,0a.43.43,0,0,0-.43.43.43.43,0,1,0,.86,0A.43.43,0,0,0,674.46,127.28Zm-27.62,17a.44.44,0,0,0-.43.43.43.43,0,0,0,.43.43.43.43,0,0,0,.43-.43A.43.43,0,0,0,646.84,144.28Zm7.89,0a.44.44,0,0,0-.43.43.43.43,0,0,0,.43.43.43.43,0,0,0,.43-.43A.43.43,0,0,0,654.73,144.28Zm7.89,0a.44.44,0,0,0-.43.43.44.44,0,0,0,.87,0A.44.44,0,0,0,662.62,144.28Zm7.9,0a.44.44,0,0,0-.44.43.44.44,0,0,0,.87,0A.44.44,0,0,0,670.52,144.28Zm7.89,0a.43.43,0,0,0-.43.43.43.43,0,0,0,.43.43.43.43,0,0,0,.43-.43A.44.44,0,0,0,678.41,144.28Zm7.89,0a.43.43,0,0,0-.43.43.43.43,0,0,0,.43.43.43.43,0,0,0,.43-.43A.44.44,0,0,0,686.3,144.28Zm-35.51-5.52a.43.43,0,1,0,.43.43A.43.43,0,0,0,650.79,138.76Zm7.89,0a.43.43,0,1,0,.43.43A.43.43,0,0,0,658.68,138.76Zm7.89,0a.43.43,0,1,0,.43.43A.43.43,0,0,0,666.57,138.76Zm7.89,0a.43.43,0,1,0,.43.43A.43.43,0,0,0,674.46,138.76Zm7.89,0a.43.43,0,1,0,.43.43A.43.43,0,0,0,682.35,138.76Zm-35.51,17a.43.43,0,0,0,0,.86.43.43,0,0,0,0-.86Zm7.89,0a.43.43,0,0,0,0,.86.43.43,0,0,0,0-.86Zm7.89,0a.43.43,0,1,0,.44.43A.43.43,0,0,0,662.62,155.76Zm7.9,0a.43.43,0,1,0,.43.43A.44.44,0,0,0,670.52,155.76Zm7.89,0a.43.43,0,1,0,0,.86.43.43,0,1,0,0-.86Zm7.89,0a.43.43,0,1,0,0,.86.43.43,0,1,0,0-.86Zm-35.51-5.53a.43.43,0,1,0,.43.43A.43.43,0,0,0,650.79,150.23Zm7.89,0a.43.43,0,1,0,.43.43A.43.43,0,0,0,658.68,150.23Zm7.89,0a.43.43,0,1,0,.43.43A.43.43,0,0,0,666.57,150.23Zm7.89,0a.43.43,0,1,0,.43.43A.43.43,0,0,0,674.46,150.23Zm7.89,0a.43.43,0,1,0,.43.43A.43.43,0,0,0,682.35,150.23Zm-43,17.25-.17.54a.4.4,0,0,0,.21-.36A.39.39,0,0,0,639.35,167.48Zm7.49-.25a.43.43,0,0,0,0,.86.43.43,0,0,0,0-.86Zm7.89,0a.43.43,0,0,0,0,.86.43.43,0,0,0,0-.86Zm7.89,0a.43.43,0,1,0,.44.43A.43.43,0,0,0,662.62,167.23Zm7.9,0a.43.43,0,1,0,.43.43A.44.44,0,0,0,670.52,167.23Zm7.89,0a.43.43,0,1,0,0,.86.43.43,0,1,0,0-.86Zm7.89,0a.43.43,0,1,0,0,.86.43.43,0,1,0,0-.86Zm7.49.27a.41.41,0,0,0,0,.16.39.39,0,0,0,.18.34Zm-50.89-5.8a.44.44,0,1,0,.43.44A.44.44,0,0,0,642.9,161.7Zm7.89,0a.44.44,0,1,0,.43.44A.44.44,0,0,0,650.79,161.7Zm7.89,0a.44.44,0,1,0,.43.44A.44.44,0,0,0,658.68,161.7Zm7.89,0a.44.44,0,1,0,.43.44A.44.44,0,0,0,666.57,161.7Zm7.89,0a.44.44,0,1,0,.43.44A.44.44,0,0,0,674.46,161.7Zm7.89,0a.44.44,0,1,0,.43.44A.44.44,0,0,0,682.35,161.7Zm7.89,0a.44.44,0,1,0,.43.44A.44.44,0,0,0,690.24,161.7ZM639,178.7a.44.44,0,1,0,.43.44A.44.44,0,0,0,639,178.7Zm7.89,0a.44.44,0,0,0,0,.87.44.44,0,0,0,0-.87Zm7.89,0a.44.44,0,0,0,0,.87.44.44,0,0,0,0-.87Zm7.89,0a.44.44,0,1,0,.44.44A.44.44,0,0,0,662.62,178.7Zm7.9,0a.44.44,0,1,0,.43.44A.44.44,0,0,0,670.52,178.7Zm7.89,0a.44.44,0,0,0,0,.87.44.44,0,0,0,0-.87Zm7.89,0a.44.44,0,0,0,0,.87.44.44,0,0,0,0-.87Zm7.89,0a.44.44,0,1,0,.43.44A.44.44,0,0,0,694.19,178.7Zm-51.29-5.52a.43.43,0,1,0,.43.43A.43.43,0,0,0,642.9,173.18Zm7.89,0a.43.43,0,1,0,.43.43A.43.43,0,0,0,650.79,173.18Zm7.89,0a.43.43,0,1,0,.43.43A.43.43,0,0,0,658.68,173.18Zm7.89,0a.43.43,0,1,0,.43.43A.43.43,0,0,0,666.57,173.18Zm7.89,0a.43.43,0,1,0,.43.43A.43.43,0,0,0,674.46,173.18Zm7.89,0a.43.43,0,1,0,.43.43A.43.43,0,0,0,682.35,173.18Zm7.89,0a.43.43,0,1,0,.43.43A.43.43,0,0,0,690.24,173.18Z" style="fill:#fff"></path></g><g id="freepik--Carpet--inject-226"><polygon points="691.78 464.63 401.31 464.63 411.31 413.43 618.78 413.43 691.78 464.63" style="fill:#FFE086"></polygon><g style="opacity:0.1"><polygon points="421.81 413.43 415.94 464.63 414.92 464.63 420.79 413.43 421.81 413.43"></polygon><polygon points="435.27 413.43 431.29 464.63 430.29 464.63 434.28 413.43 435.27 413.43"></polygon><polygon points="448.78 413.43 447.61 464.63 446.61 464.63 447.78 413.43 448.78 413.43"></polygon><polygon points="464.91 464.63 463.9 464.63 461.32 413.43 462.33 413.43 464.91 464.63"></polygon><polygon points="482.2 464.63 481.2 464.63 474.86 413.43 475.86 413.43 482.2 464.63"></polygon><polygon points="500.47 464.63 499.45 464.63 488.42 413.43 489.44 413.43 500.47 464.63"></polygon><polygon points="519.72 464.63 518.67 464.63 502 413.43 503.05 413.43 519.72 464.63"></polygon><polygon points="539.95 464.63 538.85 464.63 515.61 413.43 516.71 413.43 539.95 464.63"></polygon><polygon points="560.18 464.63 559.03 464.63 529.21 413.43 530.36 413.43 560.18 464.63"></polygon><polygon points="581.39 464.63 580.15 464.63 542.83 413.43 544.07 413.43 581.39 464.63"></polygon><polygon points="603.59 464.63 602.25 464.63 556.47 413.43 557.8 413.43 603.59 464.63"></polygon><polygon points="626.76 464.63 625.29 464.63 570.13 413.43 571.6 413.43 626.76 464.63"></polygon><polygon points="651.92 464.63 650.29 464.63 584.79 413.43 586.41 413.43 651.92 464.63"></polygon><polygon points="673.19 464.63 671.48 464.63 600.36 413.43 602.07 413.43 673.19 464.63"></polygon></g><path d="M459.29,464.63h-58l10-51.2h29.16C445.79,428.28,454.87,453.43,459.29,464.63Z" style="opacity:0.1"></path><path d="M616.26,413.76a63.93,63.93,0,0,1,16,0,63.93,63.93,0,0,1-16,0Z" style="fill:#FFE086"></path><path d="M621.42,417.36a64,64,0,0,1,16,0,64,64,0,0,1-16,0Z" style="fill:#FFE086"></path><path d="M626.59,421a64,64,0,0,1,16,0,64,64,0,0,1-16,0Z" style="fill:#FFE086"></path><path d="M631.75,424.56a64,64,0,0,1,16,0,64,64,0,0,1-16,0Z" style="fill:#FFE086"></path><path d="M636.92,428.16a64,64,0,0,1,16,0,64,64,0,0,1-16,0Z" style="fill:#FFE086"></path><path d="M642.09,431.76a65.22,65.22,0,0,1,16,0,63.93,63.93,0,0,1-16,0Z" style="fill:#FFE086"></path><path d="M647.25,435.37a64,64,0,0,1,16,0,64,64,0,0,1-16,0Z" style="fill:#FFE086"></path><path d="M652.42,439a64,64,0,0,1,16,0,64,64,0,0,1-16,0Z" style="fill:#FFE086"></path><path d="M657.58,442.57a64,64,0,0,1,16,0,64,64,0,0,1-16,0Z" style="fill:#FFE086"></path><path d="M662.75,446.17a64,64,0,0,1,16,0,64,64,0,0,1-16,0Z" style="fill:#FFE086"></path><path d="M667.92,449.77a63.93,63.93,0,0,1,16,0,63.93,63.93,0,0,1-16,0Z" style="fill:#FFE086"></path><path d="M673.08,453.37a64,64,0,0,1,16,0,64,64,0,0,1-16,0Z" style="fill:#FFE086"></path><path d="M678.25,457a56.26,56.26,0,0,1,8-.5,55,55,0,0,1,8,.5,64,64,0,0,1-16,0Z" style="fill:#FFE086"></path><path d="M683.41,460.57a58,58,0,0,1,8-.5,54.82,54.82,0,0,1,8,.5,64,64,0,0,1-16,0Z" style="fill:#FFE086"></path><path d="M688.58,464.17a57.78,57.78,0,0,1,8-.5,55,55,0,0,1,8,.5,64,64,0,0,1-16,0Z" style="fill:#FFE086"></path><path d="M378.88,393.89c.88-5.62,13.08-16.42,22.83-16.42s22.61,6.76,24.17,10.8,9.65,61,9,64.94S416,464.05,403.39,464.62s-31.58-4.42-32.29-9.84S378.88,393.89,378.88,393.89Z" style="fill:#FFE086"></path><path d="M403,451.76c1.1,0,2.2-.1,3.29-.24a10.9,10.9,0,0,0,1.61-.31,2.67,2.67,0,0,0,.75-.33.49.49,0,0,0,.22-.66,2.26,2.26,0,0,0-1.45-.64,14.92,14.92,0,0,0-1.64-.16c-1.09-.05-2.2-.05-3.3,0a14.13,14.13,0,0,0-3.23.51,7.13,7.13,0,0,0-1.51.61,1.82,1.82,0,0,0-1,1.15,1.4,1.4,0,0,0,.7,1.29,5.43,5.43,0,0,0,1.44.73,12.47,12.47,0,0,0,3.21.6,19.69,19.69,0,0,0,6.48-.75,9.24,9.24,0,0,0,2.93-1.36,2.57,2.57,0,0,0,.93-1.2,1.48,1.48,0,0,0-.25-1.4,5.36,5.36,0,0,0-2.73-1.53,19.13,19.13,0,0,0-3.21-.6,25.41,25.41,0,0,0-6.52.12,23.29,23.29,0,0,0-6.25,1.83,5.87,5.87,0,0,0-2.47,1.87c-.54.85.27,1.82,1.09,2.43a15.63,15.63,0,0,0,5.94,2.47,24.81,24.81,0,0,0,6.49.53,36.21,36.21,0,0,0,6.48-.88,18.15,18.15,0,0,0,6-2.4,4.22,4.22,0,0,0,1.87-2.36,2.64,2.64,0,0,0-1-2.63,12.93,12.93,0,0,0-5.93-2.28,41.91,41.91,0,0,0-6.52-.58,53.22,53.22,0,0,0-6.56.25,41.36,41.36,0,0,0-6.44,1.14,20.08,20.08,0,0,0-6,2.47,4,4,0,0,0-1.87,2.26,3,3,0,0,0,1.2,2.52,15.08,15.08,0,0,0,5.66,2.94,37.33,37.33,0,0,0,12.93,1.38,54.11,54.11,0,0,0,12.89-2.2,24.11,24.11,0,0,0,5.91-2.61,5.73,5.73,0,0,0,2.1-2.14,2.31,2.31,0,0,0-.7-2.52,13.65,13.65,0,0,0-5.53-3,37,37,0,0,0-6.36-1.4,63.53,63.53,0,0,0-13.08-.27,54.78,54.78,0,0,0-12.86,2.32,22.72,22.72,0,0,0-5.84,2.71,6,6,0,0,0-2.09,2.18,2.53,2.53,0,0,0,.58,2.6,13.72,13.72,0,0,0,5.17,3.63,32.2,32.2,0,0,0,6.2,2,56.83,56.83,0,0,0,13,1.12,88.18,88.18,0,0,0,13.09-1.15,53.64,53.64,0,0,0,6.38-1.48,26.31,26.31,0,0,0,6-2.52,9,9,0,0,0,2.4-2,2.66,2.66,0,0,0,.43-2.77c-.78-1.91-2.62-3.29-4.47-4.35a35.38,35.38,0,0,0-12.46-3.7,76.8,76.8,0,0,0-13.13-.46A95.52,95.52,0,0,0,389,443.76c-4.29.82-8.62,1.91-12.35,4.18a12,12,0,0,0-2.51,2,5.46,5.46,0,0,0-1.47,2.74,3,3,0,0,0,.93,2.79,11.72,11.72,0,0,0,2.53,2,42,42,0,0,0,12.34,4.34,66.85,66.85,0,0,0,13.09,1.36,99.77,99.77,0,0,0,13.15-.95,62.91,62.91,0,0,0,12.84-3,62.83,62.83,0,0,1-12.82,3.13,101.83,101.83,0,0,1-13.17,1.08,66.84,66.84,0,0,1-13.16-1.25,41.92,41.92,0,0,1-12.52-4.28,11.72,11.72,0,0,1-2.66-2.06,4.75,4.75,0,0,1-.94-1.46,3.12,3.12,0,0,1-.12-1.76,6.11,6.11,0,0,1,1.59-3,12.63,12.63,0,0,1,2.61-2.12c3.84-2.34,8.21-3.44,12.53-4.29a95.51,95.51,0,0,1,13.17-1.4,76.08,76.08,0,0,1,13.24.42A36.09,36.09,0,0,1,428,446a15.08,15.08,0,0,1,2.76,1.94,7.7,7.7,0,0,1,2,2.78,3.65,3.65,0,0,1,.23,1.8,4,4,0,0,1-.74,1.66,9.49,9.49,0,0,1-2.61,2.22,26.82,26.82,0,0,1-6.14,2.63,55.87,55.87,0,0,1-6.48,1.52,89.85,89.85,0,0,1-13.2,1.21,57.75,57.75,0,0,1-13.24-1.11,32.69,32.69,0,0,1-6.37-2,14.51,14.51,0,0,1-5.54-3.9,4.94,4.94,0,0,1-.84-1.61,2.71,2.71,0,0,1,.15-1.92,6.82,6.82,0,0,1,2.39-2.57,23.57,23.57,0,0,1,6.08-2.85,55.23,55.23,0,0,1,13.08-2.41,64.91,64.91,0,0,1,13.29.32,37.66,37.66,0,0,1,6.52,1.46,14.49,14.49,0,0,1,5.91,3.31,4.32,4.32,0,0,1,1,1.57,2.76,2.76,0,0,1-.1,1.92,6.34,6.34,0,0,1-2.44,2.53,24.64,24.64,0,0,1-6.14,2.7,54.57,54.57,0,0,1-13.11,2.2,38.29,38.29,0,0,1-13.2-1.46,16.05,16.05,0,0,1-6-3.13,5.35,5.35,0,0,1-1.1-1.38,2.85,2.85,0,0,1-.32-1.85,4.77,4.77,0,0,1,2.2-2.73,20.72,20.72,0,0,1,6.19-2.55,43.08,43.08,0,0,1,6.56-1.14,56.68,56.68,0,0,1,6.64-.24,44.64,44.64,0,0,1,6.62.61,21.51,21.51,0,0,1,3.25.83,9.06,9.06,0,0,1,3,1.63,3.87,3.87,0,0,1,1,1.44,3,3,0,0,1,.12,1.81,4.83,4.83,0,0,1-2.12,2.73,18.71,18.71,0,0,1-6.21,2.47,35.85,35.85,0,0,1-6.59.87,24.7,24.7,0,0,1-6.64-.56,16.28,16.28,0,0,1-6.15-2.58,4.75,4.75,0,0,1-1.19-1.29,2.06,2.06,0,0,1-.27-.9,1.66,1.66,0,0,1,.24-.93,6.41,6.41,0,0,1,2.7-2.08,23.31,23.31,0,0,1,6.4-1.84,26,26,0,0,1,6.65-.06,19.29,19.29,0,0,1,3.27.64,5.72,5.72,0,0,1,2.92,1.69,1.86,1.86,0,0,1,.29,1.72,3,3,0,0,1-1.07,1.37,9.48,9.48,0,0,1-3,1.38,20.08,20.08,0,0,1-6.59.71,13,13,0,0,1-3.26-.65,5.41,5.41,0,0,1-1.49-.77,1.6,1.6,0,0,1-.76-1.48,2,2,0,0,1,1.09-1.26,6.84,6.84,0,0,1,1.55-.61,14.06,14.06,0,0,1,3.28-.49c1.11,0,2.2,0,3.31.06a15,15,0,0,1,1.64.18,2.32,2.32,0,0,1,1.49.68.55.55,0,0,1-.24.74,3,3,0,0,1-.76.32,10.15,10.15,0,0,1-1.63.3C405.23,451.68,404.13,451.73,403,451.76Z" style="opacity:0.1"></path><g style="opacity:0.1"><path d="M381.6,388.78l-7.31,60.86-1-.14,7.09-59.07A18.15,18.15,0,0,1,381.6,388.78Z"></path><path d="M391.79,380.41l-4.14,63-1-.06,4.1-62.37C391.09,380.79,391.44,380.6,391.79,380.41Z"></path><path d="M432.67,449.5l-1.08-.64-7.56-63a12.61,12.61,0,0,1,1.15,1.21Z"></path><path d="M418.86,442.6l-1,.06-3.7-62.48,1,.42Z"></path><path d="M404.29,377.62,403.36,442l-1,0,.93-64.45C403.62,377.55,404,377.58,404.29,377.62Z"></path></g></g><g id="freepik--character-2--inject-226"><path d="M588.62,440.29c.17,2.3-6.39,3-9.13,1.47a62.16,62.16,0,0,1-6.32-5.19c-6.58-5.82-15.69-14.34-15.69-14.34l-6.74,3-27.55,10.63-19.28-35.61s15.94-6.74,31.09-12.78l6.87-2.69.41-.16c10.17-3.91,18.6-6.88,19.46-6.27C564.07,380,588.45,438,588.62,440.29Z" style="fill:#d3766a"></path><path d="M588.62,440.29c.17,2.3-6.39,3-9.13,1.47a62.16,62.16,0,0,1-6.32-5.19c6.83-.92-26.38-45.89-30.89-51.92,10.17-3.91,18.6-6.88,19.46-6.27C564.07,380,588.45,438,588.62,440.29Z" style="fill:#263238"></path><path d="M544.75,431.91s-71.6,16.44-97.94,11.69c-12.6-2.27-21.7-18.49-15.64-30.92,5.65-11.59,40.21-23.35,50-30.17,3.08-2.14,2.75-10.61,2.75-10.61l25.65-.35s9.15,14.53,5.27,21.6a2.25,2.25,0,0,1-.22.35l11.57-4.4Z" style="fill:#455a64"></path><path d="M528.9,412.54c-2.85-6.2-6-12.26-8.89-18.44-.06-.11-.25-.05-.19.07,2.74,6.23,5.27,12.54,8.12,18.72s5.94,12.27,8.94,18.41c.07.15.33.07.26-.09C534.38,425,531.74,418.72,528.9,412.54Z" style="fill:#263238"></path><path d="M514.76,393.8c-1.77,1-3.45,2.22-5.17,3.33s-3.4,2.17-5.13,3.21c-3.5,2.08-7.09,4-10.71,5.88a183.39,183.39,0,0,1-22.6,9.73c-4.32,1.51-8.68,3-13.12,4.1-.1,0-.06.17,0,.15,3.23-.78,6.47-1.54,9.67-2.44-1.7,1.07-3.37,2.18-5.05,3.27-.09.05,0,.18.08.13,1.84-1.11,3.71-2.19,5.54-3.32a.17.17,0,0,0,.05-.26c.55-.16,1.1-.31,1.64-.48,4-1.23,7.87-2.6,11.71-4.15a144.47,144.47,0,0,0,21.89-11.07c2-1.22,3.91-2.47,5.82-3.76A54.07,54.07,0,0,0,515,394C515.08,393.91,514.9,393.72,514.76,393.8Z" style="fill:#263238"></path><path d="M616.1,449.09c.18,2.29-6.39,3-9.13,1.47a62.8,62.8,0,0,1-6.32-5.2C594.07,439.54,585,431,585,431l-6.75,3-27.55,10.62-19.28-35.6s15.94-6.74,31.1-12.78c2.32-.93,4.62-1.82,6.86-2.69l.41-.17c10.17-3.91,18.6-6.87,19.46-6.26C591.55,388.8,615.93,446.77,616.1,449.09Z" style="fill:#d3766a"></path><path d="M616.1,449.09c.18,2.29-6.39,3-9.13,1.47a62.8,62.8,0,0,1-6.32-5.2c6.83-.91-26.38-45.88-30.89-51.92,10.17-3.91,18.6-6.87,19.46-6.26C591.55,388.8,615.93,446.77,616.1,449.09Z" style="fill:#263238"></path><path d="M492.71,371.73l44.11-.67s9.35,23.81,5.48,30.89-44.5,17.2-44.5,17.2l55.85-21.25,18.58,42.8s-67.9,14.8-103.91,11.12c-13.52-1.37-22-19-14.08-32.59,8.33-14.28,38.55-33.8,38.55-33.8Z" style="fill:#455a64"></path><path d="M552.19,397.79c-17.09,7.81-34.33,15.28-52,21.79q-3.68,1.37-7.36,2.68c-2.55.92-5.08,2-7.69,2.7a.11.11,0,0,0,.07.2c2.24-.85,4.58-1.45,6.86-2.2s4.46-1.47,6.68-2.24c1-.33,1.91-.68,2.87-1l-.58.4c-.88.59-1.76,1.18-2.63,1.79-1.78,1.25-3.44,2.74-5.31,3.86a.1.1,0,1,0,.11.17c1.78-1.26,3.78-2.21,5.61-3.4.89-.58,1.76-1.18,2.62-1.8a17.81,17.81,0,0,0,2.3-1.77c2.81-1,5.61-2,8.4-3.09q13.19-5,26-10.83,7.17-3.24,14.2-6.8C552.65,398.11,552.45,397.68,552.19,397.79Z" style="fill:#263238"></path><path d="M557.37,421c-2.86-6.21-6-12.27-8.89-18.44-.06-.12-.25-.06-.2.06,2.74,6.23,5.27,12.54,8.13,18.72s5.94,12.28,8.94,18.41c.07.16.33.07.26-.09C562.84,433.41,560.21,427.15,557.37,421Z" style="fill:#263238"></path><path d="M492,385.89a120.59,120.59,0,0,0-13.93,9.25c-4.42,3.28-8.71,6.75-12.79,10.44-2.06,1.86-4,3.81-6,5.81a45.72,45.72,0,0,0-5.07,6.13A21.57,21.57,0,0,0,450.56,431a22.77,22.77,0,0,0,1.76,7.36,27.16,27.16,0,0,0,4.08,6.31c.06.07.18,0,.11-.12a17.27,17.27,0,0,1-3.45-6,22.81,22.81,0,0,1,1.72-19.41c2.71-4.5,6.69-8.22,10.48-11.8a156.48,156.48,0,0,1,12.26-10.45c2.39-1.84,4.82-3.62,7.28-5.38s5-3.45,7.36-5.28A.16.16,0,0,0,492,385.89Z" style="fill:#263238"></path><path d="M504.81,387.67a51.86,51.86,0,0,0-11.27-2.16c-3.76-.42-7.52-.62-11.3-.67-.1,0-.1.15,0,.16,3.83.33,7.66.82,11.46,1.39s7.36,1.34,11.07,1.64C505,388.05,505,387.73,504.81,387.67Z" style="fill:#263238"></path><path d="M534.8,388.19a55,55,0,0,1-7-.63,11.61,11.61,0,0,1-5.51-1.77c-3.13-2.35-4.4-6.47-5.07-10.15,0-.09-.16-.07-.15,0,.53,4,.72,8.61,4.23,11.3a10.72,10.72,0,0,0,6,1.87,37.13,37.13,0,0,0,7.52-.46A.09.09,0,0,0,534.8,388.19Z" style="fill:#263238"></path><path d="M539.65,394.54a47.09,47.09,0,0,0-1.23-6.87c-.56-2.33-1.22-4.63-1.95-6.9-.84-2.59-1.81-5.12-2.83-7.64,0-.09-.18-.05-.15,0,1.46,4.26,2.79,8.58,3.9,12.94.55,2.16,1,4.33,1.47,6.52a13.62,13.62,0,0,1,0,6.41,11.2,11.2,0,0,1-3.53,5.49s0,.05,0,0A11.5,11.5,0,0,0,539.65,394.54Z" style="fill:#263238"></path><path d="M547.2,407.63c-3,.78-5.89,1.8-8.82,2.75s-5.86,1.9-8.78,2.87c-5.84,1.95-11.66,4-17.49,6-3.3,1.14-6.59,2.36-9.87,3.56-.09,0-.05.18,0,.15q17.65-5.47,35.08-11.63c3.3-1.16,6.64-2.23,9.87-3.58C547.29,407.7,547.27,407.61,547.2,407.63Z" style="fill:#263238"></path><path d="M475.91,279.32c1.75-3.89,7-10.15,13.89-9.15,14.81,2.14,15.43,24.08,27.4,36.89,14.46,15.49,16.29,29.72,5.7,33.07-11.88,3.75-24.77-7.93-26.7-35.37-1.21-17.15-6.83-24.33-10.29-23.53a12.88,12.88,0,0,0-5.89,3.43Z" style="fill:#263238"></path><path d="M495.29,295.33c.39,2.71.47,5.44.65,8.16s.3,5.44.53,8.14.55,5.4,1.06,8.05a40.64,40.64,0,0,0,2.18,7.76,20.86,20.86,0,0,0,4.17,6.76,23.11,23.11,0,0,0,6.58,4.66,17.67,17.67,0,0,0,7.91,1.77,16.18,16.18,0,0,0,4.09-.55,15.14,15.14,0,0,0,2-.68,7.24,7.24,0,0,0,1.8-1,10.39,10.39,0,0,1-3.66,2,16.72,16.72,0,0,1-4.16.85,18,18,0,0,1-4.27-.24,19.61,19.61,0,0,1-4.1-1.25,22.5,22.5,0,0,1-3.73-2.05l-.87-.62-.84-.64A16.67,16.67,0,0,1,503,335a21.75,21.75,0,0,1-4.48-7.12,51.38,51.38,0,0,1-3-16.2c-.15-2.73-.17-5.47-.16-8.19S495.39,298.06,495.29,295.33Z" style="fill:#263238"></path><path d="M476.79,277.76a22.27,22.27,0,0,1,3.45-4.48,12.22,12.22,0,0,1,10.17-3.41,16.15,16.15,0,0,1,2.69.61,14.3,14.3,0,0,1,2.52,1.06,15.73,15.73,0,0,1,4.14,3.54,26.37,26.37,0,0,1,3,4.67c1.75,3.31,3.12,6.86,4.62,10.36a76.23,76.23,0,0,0,5.2,10.28,73.67,73.67,0,0,0,7.08,9.06,86.74,86.74,0,0,1,7.2,8.78,22.32,22.32,0,0,1,2.65,5l.46,1.34c.12.45.21.92.31,1.38l.16.69.07.71.13,1.42a19.22,19.22,0,0,0-3.16-10.9,86.22,86.22,0,0,0-6.94-9.12,82.75,82.75,0,0,1-6.75-9.08,75.55,75.55,0,0,1-5-10.11c-1.53-3.47-2.9-7-4.75-10.44a27.76,27.76,0,0,0-3.25-4.85,15.86,15.86,0,0,0-4.6-3.7,14.74,14.74,0,0,0-2.77-1,16.82,16.82,0,0,0-2.88-.55,13.3,13.3,0,0,0-5.8.77A13.16,13.16,0,0,0,480,273,20.06,20.06,0,0,0,476.79,277.76Z" style="fill:#263238"></path><path d="M472.87,281.79c.1-1.38,1.26-3,2.17-3.2s7.22,3.32,7.61,5.07S480,286.6,480,286.6Z" style="fill:#c7c7c7"></path><path d="M483.64,329.18c-.66,12.25-12.88,39.16-17.47,44-5,5.25-25.48,17.78-39,18.25-4.91.17-2.37-21.36,2.35-23.55,6.83-3.17,19.4-8.43,22.36-10.79,3.62-2.88,21.08-26.68,23-29.24C480.5,320.5,483.94,323.43,483.64,329.18Z" style="fill:#d3766a"></path><path d="M433,366.43c-9.06-2.62-20.17-6.43-30.48-3.79a5.26,5.26,0,0,0-2.92,1.83c-4.64,1.1-5.51,3.62-5.51,3.62-4,2.35-4.55,5.05-4.55,5.05s-5.43,1.35-5.16,4.77c.29,3.84,7.87,1.19,12.92,2.28,11.58,2.49,29.05,9.66,32.32,10.71Z" style="fill:#d3766a"></path><path d="M411.22,374.29A75.9,75.9,0,0,0,401,372.68a75.65,75.65,0,0,0-11.36.56.09.09,0,0,1,0-.18,40.31,40.31,0,0,1,21.69,1.07C411.41,374.19,411.39,374.32,411.22,374.29Z" style="fill:#263238"></path><path d="M413.74,367.52c-3.37-.47-9.29-1.24-19.69.7,0,0-.06-.05,0-.06a36.08,36.08,0,0,1,19.73-.8C414,367.4,414,367.55,413.74,367.52Z" style="fill:#263238"></path><path d="M415,363.85c-5.76-.57-9.46-.2-15.46.66,0,0-.06-.06,0-.07,6.72-1.68,9.35-1.53,15.52-.78C415.29,363.69,415.25,363.88,415,363.85Z" style="fill:#263238"></path><path d="M411,384.08c1.37.92.9,1.65-2,1.88s-14.78-1.37-15,2.8,16.47,5.39,21.39,5.44c8.27.08,16.8-3.4,16.8-3.4C429,389.76,417.23,386.21,411,384.08Z" style="fill:#d3766a"></path><path d="M485,332c-.45,9-8.48,28.11-8.48,28.11l-4.65-3.2-15.41-10.59s15.87-17.84,21.28-22.6C482.56,319.44,485.36,324.26,485,332Z" style="fill:#c7c7c7"></path><path d="M477.29,355.6c-2.72-2-14.13-9.88-16.71-11.42-.18-.1-.29,0-.12.12a187.21,187.21,0,0,0,16.74,11.4C477.27,355.75,477.36,355.65,477.29,355.6Z" style="fill:#263238"></path><path d="M468.15,338.07a8.83,8.83,0,0,0-2.15.38,8.36,8.36,0,0,0,2.17.12,8.89,8.89,0,0,0,2.15-.37A8.37,8.37,0,0,0,468.15,338.07Zm-3.48,11.67a8.69,8.69,0,0,0-1.79-1.25,9,9,0,0,0,1.45,1.62,8.69,8.69,0,0,0,1.79,1.25A8.65,8.65,0,0,0,464.67,349.74Zm13.87-16.46a8.74,8.74,0,0,0-1.79-1.26A9.58,9.58,0,0,0,480,334.9,8.65,8.65,0,0,0,478.54,333.28ZM477.15,347a8.74,8.74,0,0,0-1.25,1.78,9.34,9.34,0,0,0,2.88-3.24A8.43,8.43,0,0,0,477.15,347Z" style="fill:#fff"></path><path d="M485,332c-.45,9-8.48,28.11-8.48,28.11l-4.65-3.2-5.46-3.75,13.84-30.92C483.5,321.35,485.28,325.71,485,332Z" style="fill:#263238"></path><path d="M475,342c-.06,1.58,0,3.18.06,4.78a1.09,1.09,0,0,0-.05-.17c-.24-.85-.47-1.72-.78-2.55,0,0-.09,0-.08,0a13.8,13.8,0,0,0,.59,2.62l.39,1.2c.06.72.13,1.43.22,2.13.17,1.33,1,7,1.17,8,0,.2.28.17.28-.05,0-1-.56-6.93-.66-8.26a76.54,76.54,0,0,0-1-7.7A.06.06,0,0,0,475,342Z" style="fill:#263238"></path><path d="M480.92,388.16s21.44-1.16,58.43-15.65c0,0-28.83-43-44.55-52.24-7.16-4.21-12.21-1.75-15.61,3.32-.85,1.26-9.57,23.07-8.93,29.58.56,5.76,6.78,10.5,6.78,10.5Z" style="fill:#c7c7c7"></path><path d="M486.75,338.59a8.45,8.45,0,0,1,.38,2.15,8.93,8.93,0,0,1-.12,2.18,8.45,8.45,0,0,1-.38-2.15A8.9,8.9,0,0,1,486.75,338.59ZM494,365.25a8.45,8.45,0,0,0,.38,2.15,8.9,8.9,0,0,0,.12-2.18,8.45,8.45,0,0,0-.38-2.15A8.93,8.93,0,0,0,494,365.25Zm17.11-16.42a8.89,8.89,0,0,0,.37,2.15,8.44,8.44,0,0,0,.13-2.18,8.91,8.91,0,0,0-.38-2.15A8.93,8.93,0,0,0,511.08,348.83Zm-32.3,14a8.37,8.37,0,0,0,.38,2.14,8.36,8.36,0,0,0,.12-2.17,8.89,8.89,0,0,0-.37-2.15A8.42,8.42,0,0,0,478.78,362.85Zm19.66-20.21a8.43,8.43,0,0,0-2.15.37,8.47,8.47,0,0,0,2.18.13,8.91,8.91,0,0,0,2.15-.38A8.43,8.43,0,0,0,498.44,342.64ZM514.91,361a8.45,8.45,0,0,0-2.15.38,8.9,8.9,0,0,0,2.18.12,8.45,8.45,0,0,0,2.15-.38A8.93,8.93,0,0,0,514.91,361Zm-22.42,16.61a8.37,8.37,0,0,0-2.14.38,8.82,8.82,0,0,0,2.17.12,8.45,8.45,0,0,0,2.15-.38A8.9,8.9,0,0,0,492.49,377.56Zm27-4.53a8.45,8.45,0,0,0-2.15.38,8.93,8.93,0,0,0,2.18.12,8.45,8.45,0,0,0,2.15-.38A8.9,8.9,0,0,0,519.47,373ZM486,322.41a8.45,8.45,0,0,0-2.15.38,8.93,8.93,0,0,0,2.18.12,8.45,8.45,0,0,0,2.15-.38A8.9,8.9,0,0,0,486,322.41Zm11.33,4.11a8.37,8.37,0,0,0,1.78,1.25,9.62,9.62,0,0,0-3.24-2.88A8.43,8.43,0,0,0,497.32,326.52Zm23.94,22.78a8.37,8.37,0,0,0,1.78,1.25,9.45,9.45,0,0,0-3.24-2.87A8.67,8.67,0,0,0,521.26,349.3ZM485.39,354a8.63,8.63,0,0,0,1.78,1.25,9.54,9.54,0,0,0-3.23-2.87A9,9,0,0,0,485.39,354Zm21.69,16.2a8.32,8.32,0,0,0,1.79,1.25,8.67,8.67,0,0,0-1.46-1.62,8.37,8.37,0,0,0-1.78-1.25A8.65,8.65,0,0,0,507.08,370.2Zm-28.87-36.55A8.37,8.37,0,0,0,480,334.9a9.62,9.62,0,0,0-3.24-2.88A8.43,8.43,0,0,0,478.21,333.65Zm-.68,13.63a8.69,8.69,0,0,0,1.25-1.79,8.43,8.43,0,0,0-1.63,1.46,8.74,8.74,0,0,0-1.25,1.78A8.72,8.72,0,0,0,477.53,347.28Zm50,15.54a9.1,9.1,0,0,0,1.25-1.79,9.58,9.58,0,0,0-2.88,3.24A8.72,8.72,0,0,0,527.52,362.82Zm-45.81,10.1a8.69,8.69,0,0,0,1.25-1.79,9.87,9.87,0,0,0-2.88,3.24A8.72,8.72,0,0,0,481.71,372.92Zm25.51-37.16a8.41,8.41,0,0,0,1.26-1.78,9.34,9.34,0,0,0-2.88,3.24A8.37,8.37,0,0,0,507.22,335.76Zm-4.12,46.69a8.74,8.74,0,0,0,1.26-1.79,9.58,9.58,0,0,0-2.88,3.24A8.65,8.65,0,0,0,503.1,382.45Zm-1.61-27.86a8.69,8.69,0,0,0,1.25-1.79,9.7,9.7,0,0,0-2.87,3.24A9,9,0,0,0,501.49,354.59Z" style="fill:#fff"></path><path d="M501.31,334.48c-.49,26.91-11.76,50.56-14.59,53.72-10.12,11.31-32.2,24.53-39.56,27.47-3.18,1.26-16.88-21.48-14-23.7,3.48-2.67,30.66-15.84,32-17.61a271.59,271.59,0,0,0,24.11-38.89C497.56,318.92,501.45,326.71,501.31,334.48Z" style="fill:#d3766a"></path><path d="M444.93,389.26s-10.2-2-16.94-3.06c-3.76-.57-10.28-1-13.24-.12-4.41,1.26-22.06,9.37-20.19,13.69,1.7,3.91,16-5,16-5s-15.21,7.7-12.3,12S416,399,416,399s-15.44,8.26-11.74,12.26C407,414.25,421,404,421,404s-13.23,7.19-10.48,10.42c3,3.57,16.58-5.11,16.58-5.11,8.36,7,14.94,7.07,19.81,6.44C448.13,415.56,444.93,389.26,444.93,389.26Z" style="fill:#d3766a"></path><path d="M415.63,391.79c-1.82.84-3.67,1.68-5.41,2.68s-3.44,2.06-5.08,3.21a35.33,35.33,0,0,0-5.94,5.1c3.41-3.18,9.57-6.84,11.31-7.84s3.42-2.08,5.16-3.08A0,0,0,0,0,415.63,391.79Z" style="fill:#263238"></path><path d="M419.34,398c-2.27,1.18-4.57,2.26-6.8,3.53s-4.2,2.66-6.32,4.08c-.17.11-.05.16.11.06,2.18-1.33,4.29-2.39,6.49-3.7s4.33-2.69,6.56-3.91C419.41,398,419.38,398,419.34,398Z" style="fill:#263238"></path><path d="M423.49,402.76a56.92,56.92,0,0,0-10,6.19c-.15.11,0,.16.17.06,3.28-2.12,5.84-3.81,9.88-6.13C423.61,402.85,423.57,402.73,423.49,402.76Z" style="fill:#263238"></path><path d="M470.6,366.74a47.57,47.57,0,0,1-3.89,5.72,18.74,18.74,0,0,1-5.7,4.33c-4.63,2.42-20.26,10.55-21.3,11.37,0,0-10.8-1.89-16.21-2.47a30.34,30.34,0,0,0-8-.14c-2.49.42-9,3.19-14.66,7.05-.1.06-.07.13,0,.07,1.15-.67,11.39-5.54,13.89-6.11a24.15,24.15,0,0,1,7.73-.13c2.68.27,5.35.61,8,1,3,.41,6.34.9,9.37,1.24.15,0,11.65-6.15,14.05-7.43s4.76-2.49,7.1-3.78a19.67,19.67,0,0,0,5.53-4.26,32.55,32.55,0,0,0,4.1-6.4S470.62,366.72,470.6,366.74Z" style="fill:#263238"></path><path d="M489.78,332.29c6.64-13,12.23-9.29,12.38,3.71a207,207,0,0,1-2,27l-22.44-7.18Z" style="fill:#c7c7c7"></path><path d="M489.78,332.29c6.64-13,12.23-9.29,12.38,3.71a207,207,0,0,1-2,27l-22.44-7.18Z" style="fill:#c7c7c7"></path><path d="M487.49,336.23c-.9,1.69-1.84,3.37-2.78,5,.18-.81.33-1.61.44-2.43,0,0,0,0-.06,0-.14.63-.32,1.27-.45,1.91l-.21.92a1.33,1.33,0,0,1-.05.19c-.73,1.31-1.45,2.62-2.14,3.94-.83,1.58-1.62,3.18-2.41,4.78s-1.55,3.56-2.43,5.18a11.58,11.58,0,0,0,2.18.72c.21.08.31-.12.1-.15s-1.87-.76-1.89-.78c.79-1.61,1.75-3.13,2.59-4.71s1.68-3.16,2.49-4.75c1.63-3.24,3.07-6.57,4.69-9.82C487.58,336.22,487.51,336.19,487.49,336.23Z" style="fill:#263238"></path><path d="M502.85,344.53c-.23.66-.49,1.33-.68,2l-.24.84c.16-2.34.3-4.69.45-7,0,0-.05,0-.05,0-.44,3.83-.88,7.65-1.25,11.48a110.36,110.36,0,0,0-.85,11.05,12.42,12.42,0,0,0-2.06-.39,9.71,9.71,0,0,0,2.31.74,111.13,111.13,0,0,0,1.15-11.53c.08-1.06.15-2.11.22-3.16.15-.65.35-1.29.55-1.92s.35-1.38.52-2.06C502.93,344.51,502.86,344.49,502.85,344.53Z" style="fill:#263238"></path><path d="M499.31,359.53c-3.16-1.23-16.24-5.81-19.13-6.61-.2-.05-.29.06-.09.14a186.48,186.48,0,0,0,19.16,6.59C499.33,359.67,499.39,359.56,499.31,359.53Z" style="fill:#263238"></path><path d="M485.72,353.63a8.37,8.37,0,0,0-1.78-1.25,9,9,0,0,0,1.45,1.62,8.63,8.63,0,0,0,1.78,1.25A8,8,0,0,0,485.72,353.63Zm11.93-27.48a8.74,8.74,0,0,0-1.79-1.26,9.58,9.58,0,0,0,3.24,2.88A8.65,8.65,0,0,0,497.65,326.15ZM486,322.41a8.45,8.45,0,0,0-2.15.38,8.93,8.93,0,0,0,2.18.12,8.45,8.45,0,0,0,2.15-.38A8.9,8.9,0,0,0,486,322.41Zm12.45,20.23a8.43,8.43,0,0,0-2.15.37,8.47,8.47,0,0,0,2.18.13,8.91,8.91,0,0,0,2.15-.38A8.43,8.43,0,0,0,498.44,342.64Zm-11.31-1.9a8.45,8.45,0,0,0-.38-2.15,8.9,8.9,0,0,0-.12,2.18,8.45,8.45,0,0,0,.38,2.15A8.93,8.93,0,0,0,487.13,340.74Zm14,13.52a8.37,8.37,0,0,0-1.25,1.78,7.83,7.83,0,0,0,1.24-1.05l.08-.81Z" style="fill:#fff"></path><path d="M489.28,319.36c0,1-3.24,8.33-7.7,9.1-1.46.25-3.18-7.63-3.18-7.63l-.26-.55-3.63-7.75,8.2-8.26,1.2-1.12s.86,2.18,1.9,4.91c0,.13.09.25.14.39a4.07,4.07,0,0,1,.18.44c.16.41.32.82.47,1.24s.24.62.35,1,.23.66.35,1A57.33,57.33,0,0,1,489.28,319.36Z" style="fill:#d3766a"></path><path d="M485.81,308.06a17.2,17.2,0,0,1-7.67,12.22l-3.63-7.75,8.2-8.26,1.2-1.12S484.77,305.33,485.81,308.06Z" style="fill:#263238"></path><path d="M459.19,304.19c3.3,14.64,12.44,14.32,15.6,13.61,2.86-.65,12.54-3.22,10.77-18.13s-9.61-18-16.25-16.86S455.89,289.55,459.19,304.19Z" style="fill:#d3766a"></path><path d="M461.07,301.43a10,10,0,0,0,.91-.5,1.64,1.64,0,0,0,.83-.68.54.54,0,0,0-.19-.63,1.32,1.32,0,0,0-1.33.08,2,2,0,0,0-1,1A.58.58,0,0,0,461.07,301.43Z" style="fill:#263238"></path><path d="M470.49,298.9a9.1,9.1,0,0,1-1,.08,1.64,1.64,0,0,1-1.07-.11.53.53,0,0,1-.18-.62,1.3,1.3,0,0,1,1.16-.67,1.92,1.92,0,0,1,1.36.3A.57.57,0,0,1,470.49,298.9Z" style="fill:#263238"></path><path d="M469.66,303.1s.09,0,.1.07c.24,1,.68,2.09,1.66,2.17a0,0,0,0,1,0,.06C470.3,305.54,469.73,304.08,469.66,303.1Z" style="fill:#263238"></path><path d="M470.26,301.83c1.55-.56,2.54,2.59,1.11,3.1S469,302.29,470.26,301.83Z" style="fill:#263238"></path><path d="M470.93,301.8c.33.09.7.32,1,.25s.58-.51.73-.9c0,0,.05,0,.06,0a1.2,1.2,0,0,1-.45,1.59,1.23,1.23,0,0,1-1.5-.69C470.75,302,470.79,301.76,470.93,301.8Z" style="fill:#263238"></path><path d="M464,304.44s-.06.07-.05.11c.35,1,.59,2.12-.19,2.73,0,0,0,.07,0,.06C464.85,306.83,464.52,305.3,464,304.44Z" style="fill:#263238"></path><path d="M462.84,303.71c-1.6.39-.7,3.57.78,3.2S464.19,303.38,462.84,303.71Z" style="fill:#263238"></path><path d="M462.24,304.11c-.2.24-.36.61-.66.72s-.69-.15-1-.42c0,0-.05,0,0,0,.16.61.54,1.19,1.15,1.14s.81-.68.78-1.32C462.46,304.16,462.32,304,462.24,304.11Z" style="fill:#263238"></path><path d="M472.17,310.58c-.14.31-.26.7-.59.86a2.86,2.86,0,0,1-1.12.14,0,0,0,0,0,0,.06,1.37,1.37,0,0,0,1.41.07,1.07,1.07,0,0,0,.44-1.12C472.28,310.53,472.2,310.53,472.17,310.58Z" style="fill:#263238"></path><path d="M467,308.29s.24,1.52.45,2.21c0,.06.2,0,.44,0h0a3.42,3.42,0,0,0,2.8-2.19.07.07,0,0,0-.13-.07,5.1,5.1,0,0,1-2.73,1.77c-.1-.18-.33-2.62-.44-2.6a6.77,6.77,0,0,0-1.45.83c-.6-3.15-.69-6.38-1.33-9.51a.1.1,0,0,0-.19,0,52.15,52.15,0,0,0,1,10.31C465.51,309.44,466.77,308.49,467,308.29Z" style="fill:#263238"></path><path d="M467.92,310.2a4.16,4.16,0,0,0,1.95.82,1.91,1.91,0,0,0,1.13-.23c.74-.42.56-1.16.25-1.75a4.48,4.48,0,0,0-.62-.87A5.4,5.4,0,0,1,467.92,310.2Z" style="fill:#263238"></path><path d="M469.87,311a1.91,1.91,0,0,0,1.13-.23c.74-.42.56-1.16.25-1.75A2,2,0,0,0,469.87,311Z" style="fill:#ff99ba"></path><path d="M484.47,300.73c-3.56,1-8-9.5-8.51-10.79.29.83,1.81,5.24,1.53,5.52a3.32,3.32,0,0,1-1.17.14h0a11,11,0,0,0-.63-1.55c-.11-.23.08.57.24,1.57l-.7,0a13.66,13.66,0,0,0-1.4-3.28c-.24-.39.24,1.54.36,3.32a44.22,44.22,0,0,0-9.72,1.28c-.88.24-1.64.49-2.3.73-.42-1.31-.71-2.76-.71-2.43a13.93,13.93,0,0,0,.22,2.62c-.35.13-.68.26-1,.39-.68-1.83-.73-5.07-.88-4.52a13.43,13.43,0,0,0-.35,5.13c-1.19.65-1.47,1-1.6.69a16.24,16.24,0,0,1,1.68-11.08c3.09-5.52,11.53-9.33,18.49-4.51,0,0,4.9,1.37,6.89,5.45S486.52,300.16,484.47,300.73Z" style="fill:#263238"></path><path d="M482.47,301.27s1.7-5.46,4.08-5,2.09,7.69,0,9.33a2.53,2.53,0,0,1-3.65-.27Z" style="fill:#d3766a"></path><path d="M486.41,298.35s.06,0,0,.06c-1.46,1.2-1.84,3-1.95,4.83a1.4,1.4,0,0,1,1.88-1c.06,0,0,.1,0,.1a1.58,1.58,0,0,0-1.48,1,7.61,7.61,0,0,0-.36,1.57c0,.18-.32.18-.32,0v0C483.49,302.79,484.2,299.29,486.41,298.35Z" style="fill:#263238"></path></g><g id="freepik--character-1--inject-226"><path d="M120.25,46.45v164.7h-4.12V194.43a2.06,2.06,0,0,0-4.12,0v16.72h-8.24v-5.08a2.06,2.06,0,0,0-4.12,0v5.08H87.29v-4a2.06,2.06,0,0,0-4.12,0v4H75.84V203a2.06,2.06,0,0,0-4.12,0v8.16H67.6V46.45Z" style="fill:#FFE086"></path><polygon points="153.84 97.81 101.11 111.09 67.6 46.28 120.34 33 153.84 97.81" style="fill:#FFE086"></polygon><path d="M67.6,200.93h4.12a0,0,0,0,1,0,0v49A2.06,2.06,0,0,1,69.66,252h0a2.06,2.06,0,0,1-2.06-2.06v-49A0,0,0,0,1,67.6,200.93Z" style="fill:#FFE086"></path><path d="M89.35,221.15h0a2.06,2.06,0,0,1-2.06-2.06V192.7h4.12v26.39A2.06,2.06,0,0,1,89.35,221.15Z" style="fill:#FFE086"></path><path d="M116.13,192.7h4.12a0,0,0,0,1,0,0v26.39a2.06,2.06,0,0,1-2.06,2.06h0a2.06,2.06,0,0,1-2.06-2.06V192.7a0,0,0,0,1,0,0Z" style="fill:#FFE086"></path><path d="M105.83,242.7h0a2.07,2.07,0,0,1-2.06-2.06V205.52h4.12v35.12A2.06,2.06,0,0,1,105.83,242.7Z" style="fill:#FFE086"></path><path d="M97.59,228.88h0a2.06,2.06,0,0,1-2.06-2.06V200.44h4.12v26.38A2.06,2.06,0,0,1,97.59,228.88Z" style="fill:#FFE086"></path><path d="M77.89,235.69h0a2.06,2.06,0,0,1-2.06-2.06v-49H80v49A2.06,2.06,0,0,1,77.89,235.69Z" style="fill:#FFE086"></path><path d="M91.41,184.64h4.12a0,0,0,0,1,0,0v49a2.06,2.06,0,0,1-2.06,2.06h0a2.06,2.06,0,0,1-2.06-2.06v-49A0,0,0,0,1,91.41,184.64Z" style="fill:#FFE086"></path><path d="M81.12,243.76h0a2.06,2.06,0,0,1-2.06-2.06v-49h4.12v49A2.07,2.07,0,0,1,81.12,243.76Z" style="fill:#FFE086"></path><path d="M110,251.18h0a2.06,2.06,0,0,1-2.06-2.06v-49H112v49A2.06,2.06,0,0,1,110,251.18Z" style="fill:#FFE086"></path><circle cx="118.19" cy="226.26" r="2.06" style="fill:#FFE086"></circle><path d="M95.53,237.29a2.06,2.06,0,1,1-2.06-2.06A2.06,2.06,0,0,1,95.53,237.29Z" style="fill:#FFE086"></path><path d="M71.72,257.09A2.06,2.06,0,1,1,69.66,255,2.06,2.06,0,0,1,71.72,257.09Z" style="fill:#FFE086"></path><path d="M150.52,456.49c2.2.71,64.93-.09,67.3-1.64.91-.57,1.32-9.72,1.51-20.79v-.34q.07-3.44.08-7c0-.33,0-.66,0-1l-40.86.11,0,1.28.26,6.67,0,.69s-23.87,11-26.3,13S148.32,455.79,150.52,456.49Z" style="fill:#ebebeb"></path><path d="M150.51,456.48c1.14.37,18.18.33,34.84,0,3.35-.07,6.68-.14,9.85-.23,11.88-.32,21.7-.81,22.61-1.4s1.32-9.46,1.5-20.33c0-.15,0-.3,0-.46s0-.24,0-.35h0l-40.43.06,0,.7s-23.88,11-26.3,13S148.32,455.78,150.51,456.48Z" style="fill:#FFE086"></path><path d="M151.2,454.05c10.57-.4,53.24-1,63.72-.58.09,0,.09.06,0,.07-10.47.62-53.15.86-63.73.68C151,454.21,151,454.05,151.2,454.05Z" style="fill:#263238"></path><path d="M174.35,434c4.15-.83,9.25-.25,12.47,2.67.12.11,0,.29-.17.25a58.28,58.28,0,0,0-12.27-2.39A.27.27,0,0,1,174.35,434Z" style="fill:#263238"></path><path d="M171.37,435.8c4.15-.83,9.25-.26,12.47,2.67.12.11,0,.29-.18.25a57.45,57.45,0,0,0-12.26-2.39A.27.27,0,0,1,171.37,435.8Z" style="fill:#263238"></path><path d="M168.39,437.65c4.15-.83,9.25-.26,12.47,2.67.12.11,0,.29-.18.25a58.06,58.06,0,0,0-12.27-2.4A.26.26,0,0,1,168.39,437.65Z" style="fill:#263238"></path><path d="M185.35,456.48c3.35-.07,6.68-.14,9.85-.23,11.88-.32,21.7-.81,22.61-1.4s1.32-9.46,1.5-20.33c0-.15,0-.3,0-.46s0-.24,0-.35h0C213.75,437.59,194.23,450.58,185.35,456.48Z" style="fill:#263238"></path><path d="M176.44,433.92h45.18s-9.07-105.52-8.72-107.37c.45-2.36,3.12-13,6.68-27,1.11-4.37,2.31-9.05,3.56-13.9,3.37-13.13,7.09-27.48,10.33-40,4.85-18.7,8.65-33.23,8.65-33.23H203.83s-4.47,14.14-10.09,32.55c-9.17,29.91-21.43,71.07-22.64,81.08C169.14,342.26,176.44,433.92,176.44,433.92Z" style="fill:#455a64"></path><path d="M178.44,426.21c6.9-.14,4.92-.2,11.82-.26,3.38,0,25.57-.22,28.73.3.06,0,.07.13,0,.14-3.16.52-25.35.32-28.73.29-6.9-.07-4.92-.12-11.82-.27A.1.1,0,0,1,178.44,426.21Z" style="fill:#263238"></path><path d="M204.4,320.11c1.48-6.53,3.7-12.93,5.63-19.34q5.88-19.53,11.82-39,3-9.77,6-19.51c1-3.28,2-6.57,3.05-9.84s2.15-6.39,3.06-9.62c.37-1.32.57-.6.09,1.07-1,3.37-1.89,6.75-2.87,10.11q-2.93,10-5.88,20-5.88,19.85-11.86,39.67-3,9.94-6,19.88a82.12,82.12,0,0,0-2.44,9.62,43.76,43.76,0,0,0-.4,10.29c.43,6.91,1.23,13.81,1.86,20.71l1.92,20.73q1.9,20.64,3.77,41.26c.16,1.75.31,3.49.44,5.24.05.58-.83.54-.89,0-1.49-13.59-2.63-27.24-3.9-40.86s-2.54-27.11-3.8-40.66c-.32-3.4-.68-6.81-.68-10.23A42.44,42.44,0,0,1,204.4,320.11Z" style="fill:#263238"></path><path d="M242.12,212.48a.66.66,0,0,0,0,.09c-.34,1.28-4,15.32-8.64,33.14-3.23,12.48-7,26.83-10.32,40-.24.95-.49,1.89-.73,2.82-4.43-26.39-12-58.37-14.24-76Z" style="fill:#263238"></path><path d="M173.18,321.79c-3.13,5.27.3,8.42.73,10.81s-.79,10.77,2.41,11,4.62-12.09,7.57-14.85,10.46-3.57,10.76-10.09-7-7.34-9.61-11.6-5.32-4.7-7.16-.87S175.61,317.69,173.18,321.79Z" style="fill:#FFE086"></path><path d="M196,307.88c.31,2.7,5-.38,3.88-2.44S195.74,306,196,307.88Z" style="fill:#FFE086"></path><path d="M191.62,308.25c.77.83,2.86-1.56,1.57-2.63S190.41,307,191.62,308.25Z" style="fill:#FFE086"></path><path d="M199.2,457.1c2.2.72,64.93.15,67.3-1.39.91-.57,1.36-9.72,1.59-20.78v-.35c.05-2.28.09-4.63.11-7,0-.33,0-.65,0-1l-40.86,0,0,1.27.23,6.68,0,.68s-23.92,11-26.35,12.93S197,456.39,199.2,457.1Z" style="fill:#ebebeb"></path><path d="M199.2,457.1c2.2.72,64.93.15,67.3-1.39.91-.57,1.36-9.72,1.59-20.78v-.35l-40.47-.08,0,.68s-23.92,11-26.35,12.93S197,456.39,199.2,457.1Z" style="fill:#FFE086"></path><path d="M199.89,454.66c10.57-.35,53.24-.79,63.72-.34.09,0,.09.06,0,.07-10.47.58-53.15.67-63.72.45C199.66,454.83,199.66,454.67,199.89,454.66Z" style="fill:#263238"></path><path d="M223.11,434.65c4.16-.81,9.25-.22,12.46,2.72.12.11,0,.29-.18.25a57.91,57.91,0,0,0-12.26-2.44A.27.27,0,0,1,223.11,434.65Z" style="fill:#263238"></path><path d="M220.12,436.49c4.16-.81,9.25-.22,12.46,2.72.13.11,0,.28-.17.24A58.78,58.78,0,0,0,220.15,437,.27.27,0,0,1,220.12,436.49Z" style="fill:#263238"></path><path d="M217.14,438.33c4.15-.82,9.25-.22,12.45,2.71.13.12,0,.29-.17.25a58.8,58.8,0,0,0-12.26-2.44A.26.26,0,0,1,217.14,438.33Z" style="fill:#263238"></path><path d="M205.07,212.47s.88,18.32,5.07,32.83c.33,1.2.7,2.38,1.09,3.51a68.17,68.17,0,0,1,11,5.68s.44,14.74.88,31.18c.49,18.37,1,38.87.88,43.22-.38,16.26,2,105.7,2,105.7l45.17.19s-8.14-99.88-8.08-105.84c.09-9.57-2.18-51.9-3.93-82.77-1.07-19-1.95-33.69-1.95-33.69Z" style="fill:#455a64"></path><path d="M227.58,426.56c6.9-.12,4.92-.18,11.82-.22,3.38,0,25.57-.11,28.72.43a.07.07,0,0,1,0,.14c-3.15.51-25.34.21-28.72.17-6.9-.1-4.92-.15-11.82-.32A.1.1,0,0,1,227.58,426.56Z" style="fill:#263238"></path><path d="M253.45,219c.82,25.2,1.7,50.4,2.82,75.59s2.64,50.55,4.75,75.76c1.18,14.09,2.29,33.9,3.81,48,0,.09-.14.13-.15,0-3.28-25-5.11-55.91-6.72-81.07s-2.7-50.35-3.56-75.54c-.48-14.25-.85-28.5-1.27-42.75C253.12,218.81,253.44,218.83,253.45,219Z" style="fill:#263238"></path><path d="M209.35,247.72a83.5,83.5,0,0,1,12.91,6.77.15.15,0,1,1-.13.26c-4.36-2.11-8.81-4.15-13-6.51A.29.29,0,0,1,209.35,247.72Z" style="fill:#263238"></path><path d="M209.1,232.18c.3,1.6.69,3.19,1,4.79s.56,3,1,4.5a7.62,7.62,0,0,0,2.09,3.78c.59.55,1.24,1,1.86,1.53.34.27.71.53,1.06.8-.05-.21-.09-.43-.12-.64-.11-.61-.21-1.22-.32-1.83-.22-1.35-.44-2.71-.65-4.06-.4-2.67-.78-5.36-1.33-8,0-.1.14-.15.16,0,.67,2.62,1.4,5.2,2,7.84.28,1.29,1.29,7.67,1.33,8.12s.09.94.11,1.41a6.22,6.22,0,0,1,0,1.43.12.12,0,0,1-.22,0h0a5.35,5.35,0,0,1-.4-1.38q-.18-.69-.3-1.38c0-.17-.06-.34-.08-.51-.63-.39-1.21-.89-1.8-1.32s-1.28-.9-1.88-1.41a7.16,7.16,0,0,1-2.29-3.58,26.16,26.16,0,0,1-.75-4.59c-.2-1.81-.35-3.63-.6-5.44C208.92,232.11,209.08,232.07,209.1,232.18Z" style="fill:#263238"></path><path d="M242.48,270.27c-1.7-1.87-6.78-3.37-9.16-.34s2,6.18,1.68,7.61-3.39,1.56-3.71,3.38.87,2.82,1.62,3.85.47,5.39,4.44,6.16,5.21-4.37,7.17-5.76,6.6-2.68,6.11-5.94-6.24-1.94-7-3.47S244.37,272.35,242.48,270.27Z" style="fill:#FFE086"></path><path d="M231.38,277c-.41-1.84-3.22-1-2.86.84S231.56,277.78,231.38,277Z" style="fill:#FFE086"></path><path d="M230.42,272c-.89.25-.39,1.83.62,1.63S231.1,271.78,230.42,272Z" style="fill:#FFE086"></path><path d="M219.42,163.09c-12.85,12-33.74,29.09-42.87,27.42-7.64-1.4-24.71-8.75-34.06-17.3-2.42-2.22,12-24.79,14.36-22.21,5,5.41,18.27,13.24,22,14.67,3.33,1.27,25.81-9.26,37.85-13.26C231.35,147.56,224.54,158.28,219.42,163.09Z" style="fill:#f7a9a0"></path><path d="M156,178.05c3.3-1,5.46-22.58,2.92-25-.48-.46-1.19-1.11-2.66-2.72h0a50.1,50.1,0,0,1-8.15-12.11c-2.34-5.35-5.19-13.55-8.12-12.4-4.26,1.66-1.89,12.47-.15,18.59-3.37-.81-6.34-1.19-8.15-.78-6,1.37-3.32,29,2.32,31.76C139.42,178,152.67,179,156,178.05Z" style="fill:#f7a9a0"></path><rect x="152.35" y="128.99" width="5.32" height="168.35" transform="matrix(0.97, -0.25, 0.25, 0.97, -48.13, 45.24)" style="fill:#263238"></rect><polygon points="134.37 134.75 131.08 121.96 96.95 130.73 92.62 113.85 102.66 111.28 102.91 112.24 93.83 114.57 97.67 129.51 131.8 120.75 135.34 134.5 134.37 134.75" style="fill:#c7c7c7"></polygon><rect x="132.6" y="129.24" width="7.32" height="21.73" transform="translate(-30.56 38.28) rotate(-14.4)" style="fill:#455a64"></rect><rect x="98.63" y="96.96" width="57.97" height="18.93" transform="translate(-22.46 35.08) rotate(-14.4)" style="fill:#ebebeb"></rect><path d="M141.34,143.34c1.75,2.69-2.42,3.21-2.42,3.21s6.18.7,6.91,4.17-4.37,3.79-4.73,3.83c.33,0,6,.83,6.36,4.39.39,3.71-4.77,3.29-5.1,3.26.3.13,4.19,2,3.86,4.75-.58,4.76-10.66.32-14.22,1.87,0,0,1.95,6.33,2,6.53,0,0-9.68-4-11.51-8.95a3.34,3.34,0,0,1,1.26-4s-3.27-1-3.65-3.75c-.19-1.44,1.93-3,1.93-3a4.2,4.2,0,0,1-2.77-3.38c-.15-2,2-3.28,2-3.28s-2.1-2-1.59-4.09C120.66,140.66,137.59,137.58,141.34,143.34Z" style="fill:#f7a9a0"></path><path d="M121.55,148.71c-.06,0-.09-.06,0-.08a29.85,29.85,0,0,1,17.63-2.13c.19,0,.2.36,0,.35A61.26,61.26,0,0,0,121.55,148.71Z" style="fill:#263238"></path><path d="M121.91,155.61c-.06,0-.09-.09,0-.12a28,28,0,0,1,19.38-1.13c.22.07.34.36.08.3C136.94,153.54,127.28,154.15,121.91,155.61Z" style="fill:#263238"></path><path d="M142.76,162.5c-6.26-1.84-12.48-1.49-18.82-.22-.09,0-.1-.1,0-.13,2.93-1.47,7.06-1.86,10.3-1.9a17.32,17.32,0,0,1,8.62,2C142.93,162.34,142.89,162.54,142.76,162.5Z" style="fill:#263238"></path><path d="M139,146.47c.22.05-.1.33.13.38.94.24,6.5,2.11,6.44,4.2,0,1.68-2.33,2.78-3.37,2.86l-2.62.2,2.53.72a10.78,10.78,0,0,1,3.17,1.47,3.87,3.87,0,0,1,1.8,2.58,2.2,2.2,0,0,1-1.33,2.42,6.6,6.6,0,0,1-3.32.38l-3.09-.32,2.81,1.31a10.23,10.23,0,0,1,2.17,1.38,4.19,4.19,0,0,1,1.41,1.95,2,2,0,0,1-.55,2,4.39,4.39,0,0,1-2.33.76,33.82,33.82,0,0,1-5.4-.16c-.91-.06-1.82-.13-2.74-.15a6.57,6.57,0,0,0-2.71.35,7.21,7.21,0,0,1,2.7-.1c.9.09,1.8.23,2.7.36a29.63,29.63,0,0,0,5.51.45,5.07,5.07,0,0,0,2.82-.83,2.81,2.81,0,0,0,.93-2.94A5.15,5.15,0,0,0,145,163.3a10.78,10.78,0,0,0-2.41-1.58l-.29,1a7.66,7.66,0,0,0,3.92-.41,3.19,3.19,0,0,0,1.59-1.45,3.54,3.54,0,0,0,.33-2.11,4.82,4.82,0,0,0-2.28-3.26,11.58,11.58,0,0,0-3.5-1.56l-.09.93c1.32-.15,4-1.1,4.41-3.69C146.67,147.71,140.2,146.59,139,146.47Z" style="fill:#263238"></path><path d="M138.92,146.55a6.55,6.55,0,0,0,1.75-.9,1.46,1.46,0,0,0,.64-1.36,3,3,0,0,0-.85-1.5c-.44-.47-.93-.94-1.46-1.41a5.22,5.22,0,0,1,1.93.89,3,3,0,0,1,1.28,1.91,2.17,2.17,0,0,1-.27,1.25,2.21,2.21,0,0,1-.89.81A3.48,3.48,0,0,1,138.92,146.55Z" style="fill:#263238"></path><path d="M201.39,157.87l4.7,18.89s11-9.39,16.6-16.66,4.65-11.47-8.33-7.35A97.56,97.56,0,0,0,201.39,157.87Z" style="fill:#FFE086"></path><path d="M209.28,172.88a105.63,105.63,0,0,0-4-15.41c0-.1-.18-.07-.16,0,.25,1.33,3,13,4,15.42C209.19,173,209.29,172.94,209.28,172.88Z" style="fill:#263238"></path><path d="M258,227.88H198.52c-.8-.9,12.42-68.65,18.8-77,1.37-1.79,10-4.23,15-.16,10.62,8.65,17.82,37.19,20.47,46A147.72,147.72,0,0,1,258,227.88Z" style="fill:#FFE086"></path><path d="M197.86,227.88s7.87-58.58,17.39-75.83l1.18-.8-3.3,17.55,13.71-.45,5-18.32a4.87,4.87,0,0,1,1.59,1.1s.64,23.15,2.19,29.46,7.93,20.51,10.59,22.34S257,209,257,209l1.13,18.88Z" style="fill:#455a64"></path><path d="M212,190.83c-4.46,1.14-7.73,4.71-5.89,6.07s5.33.15,7.21,2.45,4.25,2.3,5.27-2.12S216.14,189.77,212,190.83Z" style="fill:#FFE086"></path><path d="M204.84,201.56c-.72,2.88,4.83,2,4.34.23S205.33,199.6,204.84,201.56Z" style="fill:#FFE086"></path><path d="M220.06,159.93c2.15.32,8.46-3.62,10.85-7.87.16-.29-.92-12-.89-14.38,0-.48-14.77,3.41-14.77,3.41a37.22,37.22,0,0,1,1.31,9,4.88,4.88,0,0,1-.11,1s0,.1,0,.16C216.11,153.07,216.9,159.46,220.06,159.93Z" style="fill:#f7a9a0"></path><path d="M229.07,137.74c-.59,3.56-3,13.52-11.13,13.61a10.07,10.07,0,0,1-1.51-.1c0-.06,0-.12,0-.16a7.4,7.4,0,0,0,.1-1,37.34,37.34,0,0,0-1.31-9S225.8,138.31,229.07,137.74Z" style="fill:#263238"></path><path d="M221.29,148h0" style="fill:none;stroke:#f7a9a0;stroke-linecap:round;stroke-linejoin:round;stroke-width:0px"></path><path d="M233.35,122.1c.64,5.42-4.77,19.78-9,22.43-6.17,3.83-14.93,2.72-17.85-4.39-2.83-6.9,4.55-25.48,9.18-27.75C222.46,109.05,232.41,114.08,233.35,122.1Z" style="fill:#f7a9a0"></path><path d="M217.15,128.66s0,.07,0,.11c-.39,1-.68,2.12.08,2.77,0,0,0,.07,0,.05C216.23,131,216.62,129.5,217.15,128.66Z" style="fill:#263238"></path><path d="M218.39,128c1.6.46.56,3.63-.92,3.2S217,127.58,218.39,128Z" style="fill:#263238"></path><path d="M211.76,126.82s-.1,0-.11.06c-.29,1-.79,2.08-1.78,2.11,0,0-.05,0,0,.06C211,129.25,211.64,127.8,211.76,126.82Z" style="fill:#263238"></path><path d="M211.22,125.5c-1.54-.63-2.71,2.49-1.28,3.08S212.51,126,211.22,125.5Z" style="fill:#263238"></path><path d="M220.11,127.48a12.49,12.49,0,0,1-1.08-.84,2.17,2.17,0,0,1-.95-1.06.72.72,0,0,1,.37-.78,1.78,1.78,0,0,1,1.74.38,2.62,2.62,0,0,1,1.06,1.52A.76.76,0,0,1,220.11,127.48Z" style="fill:#263238"></path><path d="M210.79,122.83a12.4,12.4,0,0,0,1.36.08,2.2,2.2,0,0,0,1.41-.18.69.69,0,0,0,.23-.83,1.75,1.75,0,0,0-1.55-.85,2.56,2.56,0,0,0-1.8.44A.76.76,0,0,0,210.79,122.83Z" style="fill:#263238"></path><path d="M215.42,137.93a1.64,1.64,0,0,1-1,.31,2.72,2.72,0,0,1-1-.6,0,0,0,0,0-.06,0,1.39,1.39,0,0,0,1.07.94,1.09,1.09,0,0,0,1.06-.62C215.53,138,215.46,137.91,215.42,137.93Z" style="fill:#263238"></path><path d="M215.35,134.65a3.56,3.56,0,0,1-2.72.76,4.35,4.35,0,0,1-1.22-.34,1.12,1.12,0,0,1-.22-.1l-.21-.11a.24.24,0,0,1-.12-.28h0a.36.36,0,0,1,0-.09h0l0-.09c.22-.76.67-1.89.67-1.89-.32,0-1.94.22-1.78-.16a52.19,52.19,0,0,1,4.61-9.7.09.09,0,0,1,.17.08c-1.1,3.13-2.73,6-3.88,9.18a6.18,6.18,0,0,1,1.73,0c.1.07-.91,2.17-1,2.52a0,0,0,0,0,0,0,4.88,4.88,0,0,0,3.82.06C215.38,134.5,215.43,134.59,215.35,134.65Z" style="fill:#263238"></path><path d="M212,134.83a4.07,4.07,0,0,0,1.19,1.75,1.84,1.84,0,0,0,1.06.43c.85.05,1.1-.67,1.16-1.33a4.58,4.58,0,0,0,0-1.06A5.39,5.39,0,0,1,212,134.83Z" style="fill:#263238"></path><path d="M213.17,136.58a1.84,1.84,0,0,0,1.06.43c.85.05,1.1-.67,1.16-1.33A1.93,1.93,0,0,0,213.17,136.58Z" style="fill:#ff9cbd"></path><path d="M211.05,117.93c4.18,4.65,12.3,1.11,12.3,1.11a5.62,5.62,0,0,0,4.7,4.79s-1.06,8.73,1.18,9.25c3.41.8,7.26-10.52,6.74-13.05s-3.28-3.82-3.28-3.82a5.75,5.75,0,0,0-1.5-3.93c-1.9-2.35-10.52-1.89-10.52-1.89a7.75,7.75,0,0,0-1.38-3.28,2.17,2.17,0,0,0-3.11-.45,5.2,5.2,0,0,1,.32,2.29c-.2,2.58-2.23,2.09-1.67-.16a3.63,3.63,0,0,1,1.35-2.13c-.64-1.72-2.16-2.59-3.35-2C210.69,105.61,207.57,114.07,211.05,117.93Z" style="fill:#263238"></path><path d="M228,133.62s4.32-4.11,6.24-2.47-2,8-4.72,8.49a2.65,2.65,0,0,1-3.19-2.1Z" style="fill:#f7a9a0"></path><path d="M233.06,133a0,0,0,0,1,0,.07c-1.94.36-3.21,1.83-4.22,3.42a1.46,1.46,0,0,1,2.22,0s0,.1-.07.08a1.63,1.63,0,0,0-1.86.2A8.35,8.35,0,0,0,228,138c-.12.15-.39,0-.29-.17l0,0C228.15,135.53,230.56,132.7,233.06,133Z" style="fill:#263238"></path><path d="M146.81,229.69a4.53,4.53,0,0,0,3.06,4.17,6.76,6.76,0,0,0-1,4.47c.47,2.73,5,3.18,5,3.18a8.32,8.32,0,0,0-.31,4.88c.71,2.57,5.18,3.67,5.18,3.67a7.27,7.27,0,0,0,2.42,4.47c3.65,2.92,10.38.57,14.68-.88s15.14-9.59,17.36-10.93l-9.07-27.67s-21.13,1-25.94,3.44C154.09,220.54,146.85,226.15,146.81,229.69Z" style="fill:#f7a9a0"></path><path d="M149.92,233.36c3.79-3.21,8.32-5.12,12.73-7.28a.08.08,0,0,1,.07.15c-4.41,2.1-8.35,5.05-12.67,7.32C149.93,233.62,149.81,233.44,149.92,233.36Z" style="fill:#263238"></path><path d="M153.79,241.12a13,13,0,0,1,3-1.54c1.1-.48,2.21-.93,3.33-1.37,2.24-.87,4.49-1.69,6.77-2.45.1,0,.18.11.07.15-2.22.88-4.44,1.79-6.62,2.75l-3.28,1.48a15.15,15.15,0,0,1-3.13,1.28A.18.18,0,0,1,153.79,241.12Z" style="fill:#263238"></path><path d="M158.78,250a9.12,9.12,0,0,1,2.79-1.24l3.07-1.15c2-.78,4.09-1.55,6.1-2.4.1,0,.18.11.08.15-2,.87-4.08,1.77-6.13,2.63l-3,1.24a8.76,8.76,0,0,1-2.84.88C158.76,250.13,158.75,250.06,158.78,250Z" style="fill:#263238"></path><path d="M193.15,242.72c11.86-6.47,40.24-22.91,42.72-30.51s4.12-41.06,4-48.05-4.58-9.1-8.41-.31S217.77,199,217,200.94s-31.42,12-35.4,14.26S190.75,244,193.15,242.72Z" style="fill:#f7a9a0"></path><path d="M223.8,178.17l16.69,10s1.13-14.43-.07-23.52-4.84-11.4-11.09.71A97.35,97.35,0,0,0,223.8,178.17Z" style="fill:#FFE086"></path><path d="M239.85,182.81A104.1,104.1,0,0,0,226,175c-.09,0-.17.08-.08.13,1.13.74,11.47,6.81,13.92,7.76C239.86,182.94,239.9,182.84,239.85,182.81Z" style="fill:#263238"></path><path d="M242,174.81a.07.07,0,0,0-.14,0,13.07,13.07,0,0,0-.45,1.74l-.06.4c0-1.63-.06-3.27-.13-4.89,0-.08-.13-.08-.13,0-.13,5.33-.57,10.65-.68,16-.26-.08-1.34-.69-1.5-.76s-.09,0,0,.12,1.75,1,1.75,1,.68-7.11.69-10.55c.08-.44.16-.88.26-1.31S241.93,175.39,242,174.81Z" style="fill:#263238"></path></g></svg>