<svg xmlns="http://www.w3.org/2000/svg" viewBox="0 0 500 500"><g id="freepik--background-complete--inject-213"><polygon points="47.48 186.42 98.11 186.17 148.74 186.08 250 185.92 351.26 186.08 401.89 186.17 452.52 186.42 401.89 186.66 351.26 186.75 250 186.91 148.74 186.75 98.11 186.66 47.48 186.42" style="fill:#ebebeb"></polygon><polygon points="47.48 221 98.11 220.76 148.74 220.67 250 220.5 351.26 220.67 401.89 220.75 452.52 221 401.89 221.25 351.26 221.33 250 221.5 148.74 221.33 98.11 221.24 47.48 221" style="fill:#ebebeb"></polygon><polygon points="47.48 255.58 98.11 255.34 148.74 255.25 250 255.09 351.26 255.25 401.89 255.34 452.52 255.58 401.89 255.83 351.26 255.92 250 256.08 148.74 255.92 98.11 255.83 47.48 255.58" style="fill:#ebebeb"></polygon><polygon points="47.48 290.17 98.11 289.93 148.74 289.84 250 289.67 351.26 289.84 401.89 289.92 452.52 290.17 401.89 290.41 351.26 290.5 250 290.67 148.74 290.5 98.11 290.41 47.48 290.17" style="fill:#ebebeb"></polygon><polygon points="47.48 82.66 98.11 82.42 148.74 82.33 250 82.16 351.26 82.33 401.89 82.42 452.52 82.66 401.89 82.91 351.26 83 250 83.16 148.74 82.99 98.11 82.91 47.48 82.66" style="fill:#ebebeb"></polygon><polygon points="47.48 117.25 98.11 117 148.74 116.92 250 116.75 351.26 116.92 401.89 117 452.52 117.25 401.89 117.49 351.26 117.58 250 117.75 148.74 117.58 98.11 117.49 47.48 117.25" style="fill:#ebebeb"></polygon><polygon points="47.48 151.83 98.11 151.59 148.74 151.5 250 151.33 351.26 151.5 401.89 151.59 452.52 151.83 401.89 152.08 351.26 152.16 250 152.33 148.74 152.16 98.11 152.07 47.48 151.83" style="fill:#ebebeb"></polygon><polygon points="47.48 324.75 98.11 324.51 148.74 324.42 250 324.25 351.26 324.42 401.89 324.51 452.52 324.75 401.89 325 351.26 325.08 250 325.25 148.74 325.08 98.11 325 47.48 324.75" style="fill:#ebebeb"></polygon><polygon points="47.48 359.34 98.11 359.09 148.74 359.01 250 358.84 351.26 359 401.89 359.09 452.52 359.34 401.89 359.58 351.26 359.67 250 359.84 148.74 359.67 98.11 359.58 47.48 359.34" style="fill:#ebebeb"></polygon><polygon points="284.34 377.39 284.48 403.04 284.69 403.04 284.83 377.39 284.92 331.26 285.08 239 284.92 146.74 284.83 100.61 284.58 54.48 284.34 100.61 284.25 146.74 284.08 239 284.25 331.26 284.34 377.39" style="fill:#ebebeb"></polygon><polygon points="249.75 377.39 249.89 403.04 250.11 403.04 250.25 377.39 250.33 331.26 250.5 239 250.33 146.74 250.24 100.61 250 54.48 249.76 100.61 249.67 146.74 249.5 239 249.67 331.26 249.75 377.39" style="fill:#ebebeb"></polygon><polygon points="215.17 377.39 215.31 403.04 215.52 403.04 215.66 377.39 215.75 331.26 215.91 239 215.75 146.74 215.66 100.61 215.42 54.48 215.17 100.61 215.08 146.74 214.92 239 215.08 331.26 215.17 377.39" style="fill:#ebebeb"></polygon><polygon points="180.59 377.39 180.72 403.04 180.94 403.04 181.08 377.39 181.16 331.26 181.33 239 181.16 146.74 181.07 100.61 180.83 54.48 180.59 100.61 180.5 146.74 180.33 239 180.5 331.26 180.59 377.39" style="fill:#ebebeb"></polygon><polygon points="388.09 377.39 388.23 403.04 388.45 403.04 388.58 377.39 388.67 331.26 388.84 239 388.67 146.74 388.58 100.61 388.34 54.48 388.09 100.61 388.01 146.74 387.84 239 388 331.26 388.09 377.39" style="fill:#ebebeb"></polygon><polygon points="353.51 377.39 353.64 403.04 353.86 403.04 354 377.39 354.08 331.26 354.25 239 354.08 146.74 354 100.61 353.75 54.48 353.51 100.61 353.42 146.74 353.25 239 353.42 331.26 353.51 377.39" style="fill:#ebebeb"></polygon><polygon points="318.92 377.39 319.06 403.04 319.28 403.04 319.41 377.39 319.5 331.26 319.67 239 319.5 146.74 319.41 100.61 319.17 54.48 318.93 100.61 318.84 146.74 318.67 239 318.84 331.26 318.92 377.39" style="fill:#ebebeb"></polygon><polygon points="422.68 377.39 422.81 403.04 423.03 403.04 423.17 377.39 423.25 331.26 423.42 239 423.25 146.74 423.16 100.61 422.92 54.48 422.68 100.61 422.59 146.74 422.42 239 422.59 331.26 422.68 377.39" style="fill:#ebebeb"></polygon><polygon points="388.09 377.39 388.23 403.04 388.45 403.04 388.58 377.39 388.67 331.26 388.84 239 388.67 146.74 388.58 100.61 388.34 54.48 388.09 100.61 388.01 146.74 387.84 239 388 331.26 388.09 377.39" style="fill:#ebebeb"></polygon><polygon points="146 377.39 146.14 403.04 146.36 403.04 146.49 377.39 146.58 331.26 146.75 239 146.58 146.74 146.49 100.61 146.25 54.48 146 100.61 145.92 146.74 145.75 239 145.91 331.26 146 377.39" style="fill:#ebebeb"></polygon><polygon points="111.42 377.39 111.55 403.04 111.77 403.04 111.91 377.39 112 331.26 112.16 239 111.99 146.74 111.91 100.61 111.66 54.48 111.42 100.61 111.33 146.74 111.16 239 111.33 331.26 111.42 377.39" style="fill:#ebebeb"></polygon><polygon points="76.83 377.39 76.97 403.04 77.19 403.04 77.32 377.39 77.41 331.26 77.58 239 77.41 146.74 77.32 100.61 77.08 54.48 76.84 100.61 76.75 146.74 76.58 239 76.75 331.26 76.83 377.39" style="fill:#ebebeb"></polygon><rect x="326.89" y="257.99" width="115.44" height="10.73" style="fill:#c7c7c7"></rect><circle cx="323.56" cy="263.35" r="10.09" transform="translate(-7.35 517.41) rotate(-76.66)" style="fill:#c7c7c7"></circle><circle cx="445.66" cy="263.35" r="10.09" transform="translate(-55.69 392.27) rotate(-45)" style="fill:#c7c7c7"></circle><rect x="337.66" y="255.35" width="93.91" height="125.37" style="fill:#dbdbdb"></rect><rect x="337.66" y="365.56" width="93.91" height="7.67" style="fill:#c7c7c7"></rect><rect x="337.66" y="357.75" width="93.91" height="2.46" style="fill:#c7c7c7"></rect><rect x="47.48" y="205.07" width="202.48" height="7.85" style="fill:#ebebeb"></rect><polygon points="77.24 212.78 77.24 255.66 66.27 255.66 63.22 222.97 62.27 212.78 77.24 212.78" style="fill:#ebebeb"></polygon><polygon points="62.27 212.78 77.24 212.78 77.24 222.97 63.22 222.97 62.27 212.78" style="fill:#dbdbdb"></polygon><polygon points="235.18 212.78 234.23 222.97 231.18 255.66 220.21 255.66 220.21 212.78 235.18 212.78" style="fill:#ebebeb"></polygon><polygon points="235.18 212.78 234.23 222.97 220.21 222.97 220.21 212.78 235.18 212.78" style="fill:#dbdbdb"></polygon><rect x="159.52" y="153.34" width="1" height="50.73" transform="translate(-31.63 34.45) rotate(-11.19)" style="fill:#ebebeb"></rect><rect x="136.59" y="178.71" width="52.89" height="1" transform="translate(-48.09 298.04) rotate(-77.08)" style="fill:#ebebeb"></rect><rect x="140.54" y="179.23" width="52.83" height="1" transform="translate(-53.81 286.7) rotate(-72.96)" style="fill:#ebebeb"></rect><rect x="163.18" y="154.36" width="1" height="50.39" transform="translate(-46.49 57.65) rotate(-17.53)" style="fill:#ebebeb"></rect><rect x="164.29" y="153.08" width="1" height="51.04" transform="translate(-4.03 3.81) rotate(-1.31)" style="fill:#ebebeb"></rect><polygon points="172.92 205.4 155.1 205.4 158.63 183.06 169.39 183.06 172.92 205.4" style="fill:#c7c7c7"></polygon><rect x="73.38" y="158.01" width="32.07" height="47.39" style="fill:#dbdbdb"></rect><rect x="82.87" y="148.43" width="13.08" height="9.58" style="fill:#ebebeb"></rect><rect x="77.84" y="170.03" width="23.03" height="22.03" style="fill:#ebebeb"></rect><rect x="107.8" y="151.83" width="27.49" height="53.56" style="fill:#dbdbdb"></rect><rect x="115.94" y="143.62" width="11.21" height="8.21" style="fill:#c7c7c7"></rect><rect x="107.8" y="172.26" width="27.49" height="18.89" style="fill:#c7c7c7"></rect><rect x="345.41" y="54.02" width="105.16" height="75.91" style="fill:#ebebeb"></rect><rect x="355.34" y="63.95" width="85.31" height="56.06" style="fill:#fff"></rect><rect x="355.34" y="63.95" width="85.31" height="56.06" style="fill:#fff"></rect><rect x="355.34" y="63.94" width="85.31" height="56.06" style="fill:#fff"></rect><polygon points="404.34 63.94 355.33 112.95 355.33 95.34 386.74 63.94 404.34 63.94" style="fill:#ebebeb"></polygon><polygon points="440.65 84.26 440.65 90.06 410.7 120.01 404.89 120.01 440.65 84.26" style="fill:#ebebeb"></polygon><polygon points="373.19 63.94 355.33 81.79 355.33 79.85 371.25 63.94 373.19 63.94" style="fill:#ebebeb"></polygon><polygon points="440.65 102.49 440.65 104.43 425.07 120.01 423.13 120.01 440.65 102.49" style="fill:#ebebeb"></polygon><polygon points="440.17 63.94 384.1 120.01 382.16 120.01 438.24 63.94 440.17 63.94" style="fill:#ebebeb"></polygon><rect x="228.79" y="54.02" width="105.16" height="75.91" style="fill:#ebebeb"></rect><rect x="238.71" y="63.95" width="85.31" height="56.06" style="fill:#fff"></rect><rect x="238.71" y="63.94" width="85.31" height="56.06" style="fill:#fff"></rect><polygon points="324.02 71.14 324.02 88.75 292.77 120.01 275.15 120.01 324.02 71.14" style="fill:#ebebeb"></polygon><polygon points="278.58 63.94 238.71 103.83 238.71 98.02 272.79 63.94 278.58 63.94" style="fill:#ebebeb"></polygon><polygon points="254.13 63.94 238.71 79.37 238.71 77.44 252.2 63.94 254.13 63.94" style="fill:#ebebeb"></polygon><polygon points="324.02 100.07 324.02 102.01 306.03 120.01 304.09 120.01 324.02 100.07" style="fill:#ebebeb"></polygon><polygon points="290.74 63.94 238.71 115.97 238.71 114.03 288.81 63.94 290.74 63.94" style="fill:#ebebeb"></polygon><rect x="112.16" y="54.02" width="105.16" height="75.91" style="fill:#ebebeb"></rect><rect x="122.09" y="63.95" width="85.31" height="56.06" style="fill:#fff"></rect><polygon points="183.72 63.94 127.66 120.01 122.09 120.01 122.09 107.96 166.1 63.94 183.72 63.94" style="fill:#ebebeb"></polygon><polygon points="207.4 89.92 207.4 107.55 194.94 120.01 177.31 120.01 207.4 89.92" style="fill:#ebebeb"></polygon><polygon points="133.09 63.94 122.09 74.94 122.09 69.15 127.29 63.94 133.09 63.94" style="fill:#ebebeb"></polygon><polygon points="207.4 70 207.4 71.94 159.33 120.01 157.39 120.01 207.4 70" style="fill:#ebebeb"></polygon><polygon points="160.25 63.94 122.09 102.11 122.09 100.17 158.31 63.94 160.25 63.94" style="fill:#ebebeb"></polygon></g><g id="freepik--Sink--inject-213"><polygon points="46.98 402.76 97.74 402.51 148.49 402.43 250 402.26 351.51 402.43 402.26 402.51 453.01 402.76 402.26 403 351.51 403.09 250 403.26 148.49 403.09 97.74 403 46.98 402.76" style="fill:#263238"></polygon><polygon points="277.21 441.25 46.34 441.25 46.34 365.61 210.26 365.61 277.21 384.04 277.21 441.25" style="fill:#455a64"></polygon><path d="M69.45,376.6c8,2.32,16,4.7,24.07,7.07s16,4.78,24,7.19l-.19,0c12.12-.1,24.24-.24,36.37-.24l36.37-.11,36.37.09,18.18.05,18.19.15-.19,1.37L237,384.45c-8.55-2.61-17.11-5.18-25.64-7.85,8.64,2.29,17.26,4.68,25.88,7L263,390.8l4.78,1.33-5,0-18.19.15-18.18.05-36.37.09-36.37-.11c-12.13,0-24.25-.13-36.37-.24h-.11l-.08,0c-8-2.55-15.94-5.07-23.89-7.68S77.38,379.24,69.45,376.6Z" style="fill:#263238"></path><polygon points="199.75 303.36 126.65 303.36 127.89 289.93 199.75 289.93 199.75 303.36" style="fill:#455a64"></polygon><rect x="178.1" y="303.36" width="18.53" height="5.39" style="fill:#263238"></rect><polygon points="146.24 289.92 146.24 365.61 120.9 365.61 127.9 289.92 146.24 289.92" style="fill:#455a64"></polygon><polygon points="146.24 357.33 146.24 365.61 120.9 365.61 121.66 357.33 146.24 357.33" style="fill:#37474f"></polygon><polygon points="104.31 342.8 104.31 365.61 85.85 365.61 88.45 350.76 89.85 342.8 104.31 342.8" style="fill:#37474f"></polygon><polygon points="104.31 342.8 104.31 350.76 88.45 350.76 89.85 342.8 104.31 342.8" style="fill:#263238"></polygon><rect x="83.12" y="336.6" width="27.52" height="7.31" style="fill:#37474f"></rect><polygon points="169.2 342.8 169.2 365.61 150.74 365.61 153.34 350.76 154.74 342.8 169.2 342.8" style="fill:#ebebeb"></polygon><polygon points="169.2 342.8 169.2 350.76 153.34 350.76 154.74 342.8 169.2 342.8" style="fill:#dbdbdb"></polygon><rect x="148.02" y="336.6" width="27.52" height="7.31" style="fill:#ebebeb"></rect></g><g id="freepik--Character--inject-213"><path d="M352.17,259.72h-8.3c-.55-4.05-1.75-10.65-3.74-14.17,0,0,1.85,8.93,1.1,14.17h-7.29c-.64-5.65-2.36-15.89-6.81-23.13.21.77,3.87,14.62,3,23.13H265.9c-2.85-13.55-.64-28.3-1.76-25.08-3,8.59-3.85,19-4,25.08H253a44.82,44.82,0,0,1,.58-10.23c.94-4.5-2.75,4.41-3.22,10.23h-4.55s-.91-19.31,6.16-33.07c9.38-18.31,3.89-25.09,7.74-45.14C264.05,158.7,294,131.11,324,160c2.42,2.33,16.36,14.05,16.49,35.75.14,16.31-3.57,24.93,2,33.31C349.5,239.44,352.47,251,352.17,259.72Z" style="fill:#263238"></path><path d="M242.83,257a51.73,51.73,0,0,1,1.92-20.67,65.24,65.24,0,0,1,3.71-9.81c.72-1.57,1.61-3.13,2.38-4.64a34.94,34.94,0,0,0,2-4.61c2.29-6.37,3-13.24,3.86-20.08.43-3.43.89-6.88,1.59-10.29a46.89,46.89,0,0,1,3.16-9.91c-2.17,6.6-2.6,13.49-3.19,20.36-.27,3.44-.6,6.89-1.09,10.35a55.49,55.49,0,0,1-2.45,10.24,36.38,36.38,0,0,1-2.17,4.86c-.82,1.56-1.64,3-2.4,4.55a72.82,72.82,0,0,0-3.93,9.44,66.26,66.26,0,0,0-2.52,9.93c-.32,1.69-.53,3.39-.69,5.11S242.81,255.26,242.83,257Z" style="fill:#263238"></path><path d="M340.48,195.7c.14,2.77-.06,5.54,0,8.3s.06,5.49.3,8.21a49.72,49.72,0,0,0,1.37,8c.15.66.38,1.29.57,1.94l.14.48.16.4c.12.28.27.57.42.85.64,1.16,1.39,2.33,2.11,3.51,1.43,2.38,2.83,4.8,4,7.33a53.56,53.56,0,0,1,3.05,7.83,44.56,44.56,0,0,1,1.67,8.22,41.49,41.49,0,0,1,0,8.34A52.86,52.86,0,0,0,351.14,243a77.66,77.66,0,0,0-7.32-14.61c-.7-1.19-1.43-2.36-2.12-3.62-.17-.33-.33-.66-.49-1-.07-.18-.15-.39-.21-.57l-.15-.51c-.18-.68-.42-1.36-.55-2.05a43.92,43.92,0,0,1-1.09-8.36,64.59,64.59,0,0,1,.28-8.36C339.78,201.18,340.17,198.45,340.48,195.7Z" style="fill:#263238"></path><path d="M332.77,243.52c-.72,15.33-12.25,94.88-31.84,109.18-23.72,17.32-71.85,14.13-87,14.58-6.61.19-11.4-41.23-6.27-46.1s57.6-4.35,62.36-6.66S292.56,270,309.1,245.14C321.89,225.9,333.65,224.67,332.77,243.52Z" style="fill:#f7a9a0"></path><path d="M216.55,367.27c-4.08.06-31.1-.43-38.09-1.87s-26.81-7.07-26.25-12.53,6.5-4.29,6.5-4.29-8-3.7-6.93-9.15S162,336.12,162,336.12s-7.93-4.39-6.48-9.75,10.32-1.67,10.32-1.67-7.44-3.68-4.39-7.59c3.68-4.71,16.63,3.63,24.47,4.64,1.78.23,36.41,2.11,36.41,2.11Z" style="fill:#f7a9a0"></path><path d="M165.94,324.82c9.54,6.11,14.77,7.13,25.92,7.2.21,0,.26.33,0,.35-10.92.92-17.66.58-26.27-7.1C165.2,324.89,165.49,324.53,165.94,324.82Z" style="fill:#263238"></path><path d="M162.12,336.05c10.46,5.47,16.12,6.63,27.79,7.56.17,0,.16.3,0,.3-11.53,0-18.25-.45-28-7.29C161.49,336.31,161.65,335.8,162.12,336.05Z" style="fill:#263238"></path><path d="M160.15,349c10.51,4.57,16.67,6.11,28.11,5.56a.21.21,0,0,1,.05.42c-11.62,1.7-19.31-.17-28.26-5.64C159.44,349,159.49,348.74,160.15,349Z" style="fill:#263238"></path><path d="M229.66,318.39s-12.85-6-19.08-7.39-31.36,2-30.94,7.44c.54,7.06,15.43,8,22.78,7.47,0,0,1.23,16.33,11.78,19.3S229.66,318.39,229.66,318.39Z" style="fill:#f7a9a0"></path><path d="M180.42,320.33c5.14,6.09,14.75,4.8,21.91,4.84a.66.66,0,0,1,.65.86c1,6.81,4.34,16.14,10.83,19.4a.17.17,0,0,1-.13.31c-7.43-2.56-11.48-11.45-12.07-19-7.35.07-17,.94-21.25-6.38C180.34,320.34,180.39,320.3,180.42,320.33Z" style="fill:#263238"></path><path d="M336.05,241.45c-1.76,25.82-14.44,76.32-14.44,76.32l-37.09-20.68-7.88-4.4s15.16-28.85,28.92-47.85c4.34-6,8.31-10.16,11.84-12.85C329.71,222.6,336.76,231,336.05,241.45Z" style="fill:#FF725E"></path><path d="M320.2,291.27h-1.52a2.56,2.56,0,0,1-2.56-2.56,2.06,2.06,0,0,0-2.06-2.06h-1.59v-.5h1.59a2.56,2.56,0,0,1,2.56,2.56,2.07,2.07,0,0,0,2.06,2.06h1.52Zm-11.79-34.15h-1.52a2.06,2.06,0,0,1-2.06-2.06,2.56,2.56,0,0,0-2.56-2.56h-1.6v.5h1.6a2.06,2.06,0,0,1,2.06,2.06,2.56,2.56,0,0,0,2.56,2.56h1.52Zm14,8.81-1.07-1.07a2.06,2.06,0,0,1,0-2.91,2.58,2.58,0,0,0,.75-1.81,2.54,2.54,0,0,0-.75-1.81l-1.13-1.13-.35.35,1.13,1.13a2.06,2.06,0,0,1,0,2.91,2.56,2.56,0,0,0,0,3.62l1.07,1.07Zm-34.11,24.66-1.07-1.07a2.06,2.06,0,0,1,0-2.92,2.54,2.54,0,0,0,.75-1.81,2.58,2.58,0,0,0-.75-1.81l-1.13-1.13-.36.36,1.13,1.13a2,2,0,0,1,0,2.91,2.58,2.58,0,0,0,0,3.62l1.07,1.07Zm11.87-17.54a2.06,2.06,0,0,1,2.91,0,2.56,2.56,0,0,0,3.62,0l1.13-1.13-.35-.35-1.13,1.13a2.08,2.08,0,0,1-2.92,0,2.56,2.56,0,0,0-3.62,0l-1.07,1.07.36.35Zm35.23-26.55a2.57,2.57,0,0,0-3.63,0l-1.07,1.07.36.35,1.07-1.07a2.06,2.06,0,0,1,2.91,0,2.8,2.8,0,0,0,.48.37l.06-.57A1.19,1.19,0,0,1,335.41,246.5Zm-34.87,54.42a2.07,2.07,0,0,1,2.06-2.06,2.56,2.56,0,0,0,2.56-2.56v-1.51h-.5v1.51a2.06,2.06,0,0,1-2.06,2.06,2.56,2.56,0,0,0-2.56,2.56v1.6h.5Zm19.67-64.43a2.07,2.07,0,0,1,2.06-2.07,2.55,2.55,0,0,0,2.56-2.56v-1.51h-.5v1.51a2.06,2.06,0,0,1-2.06,2.06,2.57,2.57,0,0,0-2.56,2.57v1.59h.5Z" style="fill:#fff"></path><path d="M336.05,241.45c-1.76,25.82-14.44,76.32-14.44,76.32l-37.09-20.68L317.4,232C329.71,222.6,336.76,231,336.05,241.45Z" style="fill:#263238"></path><path d="M380.09,340.61s-2.39,26.91-5.6,62.15H296.65c4.52-35.3,8-62.15,8-62.15Z" style="fill:#455a64"></path><path d="M417.05,402.76H318.48c-8.87-27.89-13.94-62.22-13.94-62.22H408.16s10.19,20.68,8.86,60.2C417,401.19,417,401.87,417.05,402.76Z" style="fill:#455a64"></path><path d="M315.29,340.08c0-.3.55-.37.55,0a292.24,292.24,0,0,0,1.47,29.32c.41,4.52,4.05,29.51,11.89,27.68,1.31-.3,2-1.59,2.18-3.57.25-2.38-.64-5.3-1-7.66-.87-5.23-1.57-10.48-2-15.76a143.86,143.86,0,0,1,.31-29.56.26.26,0,0,1,.51,0c0,13.65.35,27.28,2.39,40.8,1,6.5,4.25,16.28-2.55,17.28s-11.4-15.37-12.24-19.85C314.39,366.24,314.3,352.74,315.29,340.08Z" style="fill:#263238"></path><path d="M330.71,402.76H329c-.56-1.49-1.13-2.95-1.64-4.44a.88.88,0,0,1,1.65-.6A40.43,40.43,0,0,1,330.71,402.76Z" style="fill:#263238"></path><path d="M396.79,372.06c-3.05-.2-6.09-.07-9.12-.48a41.71,41.71,0,0,1-8.75-2.13,27.23,27.23,0,0,1-7.64-4.19,34,34,0,0,1-6.11-6.56c-1-1.4-2-2.81-2.9-4.28s-1.7-3-2.68-4.4c-.09-.13-.32,0-.26.12a50.78,50.78,0,0,0,4.12,8.41,31.57,31.57,0,0,0,5.8,7.36c4.61,4.29,10.74,6.46,16.94,7,1.76.16,3.54.25,5.31.27a33.62,33.62,0,0,0,5.31-.25A.45.45,0,0,0,396.79,372.06Z" style="fill:#263238"></path><path d="M408,399.67q0,1.54,0,3.09h-.75c0-1.55-.06-3.1-.11-4.65A275.85,275.85,0,0,0,404.84,370q-1-7.08-2.21-14.13c-.7-3.94-1.52-8.16-4-11.43-.06-.08.07-.16.14-.08,3,3.66,3.94,8.23,4.87,12.73a214.31,214.31,0,0,1,3.81,28.32Q408,392.53,408,399.67Z" style="fill:#263238"></path><path d="M300.52,360.21l2.85-47.72s-12.84-14.19-10-27c1.43-6.49,23.58-55.87,25.75-57.89,8.73-8.14,23.46-4.89,29.5-.32,33.48,25.3,57.07,79.58,68.39,133Z" style="fill:#FF725E"></path><path d="M380.25,317.11h-1.51a2.56,2.56,0,0,1-2.56-2.56,2.07,2.07,0,0,0-2.06-2.06h-1.6V312h1.6a2.56,2.56,0,0,1,2.56,2.56,2.06,2.06,0,0,0,2.06,2.06h1.51Zm-27.2-78.36h-1.51a2.06,2.06,0,0,1-2.06-2.06,2.56,2.56,0,0,0-2.56-2.56h-1.6v.5h1.6a2.06,2.06,0,0,1,2.06,2.06,2.56,2.56,0,0,0,2.56,2.56h1.51Zm-32.85,52h-1.52a2.07,2.07,0,0,1-2.06-2.06,2.56,2.56,0,0,0-2.56-2.56h-1.59v.5h1.59a2.06,2.06,0,0,1,2.06,2.06,2.56,2.56,0,0,0,2.56,2.56h1.52Zm38.17-6.93h-1.52a2.07,2.07,0,0,1-2.06-2.06,2.56,2.56,0,0,0-2.56-2.56h-1.59v.5h1.59a2.06,2.06,0,0,1,2.06,2.06,2.56,2.56,0,0,0,2.56,2.56h1.52Zm-51.48-26.72a2.05,2.05,0,0,1-1.59-.75c-.07.16-.14.33-.22.5a2.51,2.51,0,0,0,1.81.75h1.52v-.5ZM411.5,342.67H410a2.06,2.06,0,0,1-2.06-2.06,2.56,2.56,0,0,0-2.56-2.56h-1.6v.5h1.6a2.06,2.06,0,0,1,2.06,2.06,2.56,2.56,0,0,0,2.56,2.56h1.51ZM339.12,324.1h-1.51a2.06,2.06,0,0,1-2.06-2.06,2.56,2.56,0,0,0-2.56-2.56h-1.6v.5H333a2.06,2.06,0,0,1,2.06,2.06,2.56,2.56,0,0,0,2.56,2.56h1.51Zm24,34h-1.52a2.06,2.06,0,0,1-2.06-2.06,2.56,2.56,0,0,0-2.56-2.56h-1.59v.5H357A2.06,2.06,0,0,1,359,356a2.56,2.56,0,0,0,2.56,2.56h1.52ZM311,355.62h-1.52a2.06,2.06,0,0,1-2.06-2.06,2.56,2.56,0,0,0-2.56-2.56H303.3v.5h1.59a2.06,2.06,0,0,1,2.06,2.06,2.56,2.56,0,0,0,2.56,2.56H311Zm50.11-23.9-1.07-1.07a2.08,2.08,0,0,1,0-2.92,2.5,2.5,0,0,0,.75-1.81,2.53,2.53,0,0,0-.75-1.81L358.94,323l-.35.36,1.13,1.13a2.06,2.06,0,0,1,0,2.91,2.56,2.56,0,0,0,0,3.62l1.07,1.07Zm30.14,25.07-1.07-1.07a2.05,2.05,0,0,1,0-2.92,2.58,2.58,0,0,0,0-3.62l-1.13-1.13-.36.36,1.13,1.13a2,2,0,0,1,0,2.91,2.56,2.56,0,0,0,0,3.62l1.07,1.07ZM376,295.21,375,294.14a2,2,0,0,1,0-2.91,2.57,2.57,0,0,0,0-3.63l-1.13-1.12-.36.35,1.13,1.13a2,2,0,0,1,0,2.91,2.58,2.58,0,0,0,0,3.62l1.07,1.07Zm-53.6-29.28-1.07-1.07a2.06,2.06,0,0,1,0-2.91,2.58,2.58,0,0,0,.75-1.81,2.54,2.54,0,0,0-.75-1.81l-1.13-1.13-.35.35,1.13,1.13a2.06,2.06,0,0,1,0,2.91,2.56,2.56,0,0,0,0,3.62l1.07,1.07ZM355,261l-1.07-1.07a2.06,2.06,0,0,1,0-2.91,2.53,2.53,0,0,0,.75-1.81,2.5,2.5,0,0,0-.75-1.81l-1.13-1.13-.35.35,1.13,1.13a2.06,2.06,0,0,1,0,2.91,2.56,2.56,0,0,0,0,3.62l1.07,1.07Zm-35.52,54.62-1.06-1.07a2,2,0,0,1,0-2.91,2.57,2.57,0,0,0,0-3.63l-1.13-1.12-.36.35,1.13,1.13a2,2,0,0,1,0,2.91,2.56,2.56,0,0,0,0,3.62l1.07,1.07Zm50.83,24.77a2.06,2.06,0,0,1,2.91,0,2.56,2.56,0,0,0,3.62,0l1.13-1.13-.35-.35L376.45,340a2.08,2.08,0,0,1-2.92,0,2.56,2.56,0,0,0-3.62,0l-1.07,1.06.36.36Zm-70.09-67.33a2.06,2.06,0,0,1,2.91,0,2.56,2.56,0,0,0,3.62,0l1.13-1.13-.35-.35-1.13,1.13a2.08,2.08,0,0,1-2.92,0,2.56,2.56,0,0,0-3.62,0l-1.07,1.07.36.35Zm17.07,62.53a2.06,2.06,0,0,1,2.91,0,2.56,2.56,0,0,0,3.62,0l1.13-1.13-.35-.35-1.13,1.12a2.06,2.06,0,0,1-2.92,0,2.58,2.58,0,0,0-3.62,0l-1.07,1.07.36.36ZM333,298.86a2.06,2.06,0,0,1,2.91,0,2.56,2.56,0,0,0,3.62,0l1.13-1.13-.35-.35-1.13,1.13a2.06,2.06,0,0,1-2.91,0,2.56,2.56,0,0,0-3.62,0l-1.07,1.07.35.35Zm-6.25,58.31a2.11,2.11,0,0,1,2.92,0,2.56,2.56,0,0,0,3.62,0L334.4,356l-.36-.35-1.12,1.13a2.08,2.08,0,0,1-2.92,0,2.56,2.56,0,0,0-3.62,0l-1.07,1.07.35.35Zm61.85-55a2.08,2.08,0,0,1,2.92,0,2.5,2.5,0,0,0,1.81.75,2.53,2.53,0,0,0,1.81-.75l1.13-1.13-.36-.35-1.13,1.13a2.06,2.06,0,0,1-2.91,0,2.56,2.56,0,0,0-3.62,0l-1.07,1.07.35.35Zm-56.44-55.33a2.06,2.06,0,0,1,2.91,0,2.58,2.58,0,0,0,1.81.75h0a2.54,2.54,0,0,0,1.81-.75l1.13-1.13-.35-.35-1.13,1.13a2,2,0,0,1-1.46.6h0a2,2,0,0,1-1.45-.6,2.57,2.57,0,0,0-3.63,0l-1.07,1.07.36.35Zm57,84.48a2.06,2.06,0,0,1,2.06-2.06,2.56,2.56,0,0,0,2.56-2.56v-1.52h-.5v1.52a2.06,2.06,0,0,1-2.06,2.06,2.56,2.56,0,0,0-2.56,2.56v1.59h.5Zm-48.63,13.26a2.07,2.07,0,0,1,2.06-2.06,2.56,2.56,0,0,0,2.56-2.56v-1.51h-.5V340a2.06,2.06,0,0,1-2.06,2.06,2.56,2.56,0,0,0-2.56,2.56v1.6h.5Zm11.89-36.48a2.06,2.06,0,0,1,2.06-2.06,2.56,2.56,0,0,0,2.56-2.56V302h-.5v1.51a2.06,2.06,0,0,1-2.06,2.06,2.56,2.56,0,0,0-2.56,2.56v1.6h.5Zm-51.9-7.19a2.07,2.07,0,0,1,2.06-2.06,2.56,2.56,0,0,0,2.56-2.56v-1.51h-.5v1.51a2.06,2.06,0,0,1-2.06,2.06,2.56,2.56,0,0,0-2.56,2.56v1.6h.5ZM334,276.8a2.06,2.06,0,0,1,2.06-2.06,2.56,2.56,0,0,0,2.56-2.56v-1.51h-.5v1.51a2.06,2.06,0,0,1-2.06,2.06,2.56,2.56,0,0,0-2.56,2.56v1.6h.5Zm35.23-6.86a2.06,2.06,0,0,1,2.06-2.06,2.56,2.56,0,0,0,2.56-2.56V263.8h-.5v1.52a2.06,2.06,0,0,1-2.06,2.06,2.56,2.56,0,0,0-2.56,2.56v1.59h.5Zm-49.06-33.45a2.07,2.07,0,0,1,2.06-2.07,2.55,2.55,0,0,0,2.56-2.56v-1.51h-.5v1.51a2.06,2.06,0,0,1-2.06,2.06,2.57,2.57,0,0,0-2.56,2.57v1.59h.5Z" style="fill:#fff"></path><path d="M339.35,225.23c.39,2.16-11.55,19-20.73,22.46-3,1.12-1.8-14.95-1.8-14.95l-.77-1.07-10.86-15,14.1-20.9,2.1-2.87s2.7,4.3,6,9.68c.16.25.31.5.47.77s.38.58.55.87c.51.8,1,1.61,1.51,2.44.38.62.75,1.23,1.12,1.9l1.15,2C335.92,217.19,339.17,224.31,339.35,225.23Z" style="fill:#f7a9a0"></path><path d="M327.4,202.59a37.12,37.12,0,0,1-11.35,29.08l-10.86-15,14.1-20.9,2.1-2.87S324.09,197.21,327.4,202.59Z" style="fill:#263238"></path><path d="M270.31,203.63c9.91,30.94,29.56,28.5,36.23,26.36,6-2,26.42-9.34,19.76-41.14s-24.17-37-38.25-33.25S260.4,172.69,270.31,203.63Z" style="fill:#f7a9a0"></path><path d="M274.51,197.1c.67-.37,1.24-.82,1.87-1.25s1.32-.79,1.66-1.63a1.16,1.16,0,0,0-.53-1.31,2.87,2.87,0,0,0-2.87.43,4.2,4.2,0,0,0-1.9,2.36A1.24,1.24,0,0,0,274.51,197.1Z" style="fill:#263238"></path><path d="M295.65,189.41a20.83,20.83,0,0,1-2.21.38,3.64,3.64,0,0,1-2.33,0,1.15,1.15,0,0,1-.52-1.31,2.86,2.86,0,0,1,2.37-1.67,4.2,4.2,0,0,1,3,.4A1.24,1.24,0,0,1,295.65,189.41Z" style="fill:#263238"></path><path d="M294.67,198.62c0-.08.19,0,.22.13.71,2.09,1.87,4.38,4,4.37.07,0,.1.1,0,.12C296.51,203.77,295,200.72,294.67,198.62Z" style="fill:#263238"></path><path d="M295.71,195.77c3.24-1.5,6,5.09,3,6.48S293,197,295.71,195.77Z" style="fill:#263238"></path><path d="M297.15,195.58c.73.13,1.57.55,2.29.33s1.16-1.2,1.4-2.08c0-.09.11-.06.15,0,.54,1.25.6,2.75-.67,3.5s-2.52-.06-3.37-1.19C296.8,196,296.86,195.52,297.15,195.58Z" style="fill:#263238"></path><path d="M281.49,203c-.05-.07-.12.16-.08.25.93,2,1.66,4.46.11,5.92,0,.05,0,.15.07.11C283.7,208,282.69,204.78,281.49,203Z" style="fill:#263238"></path><path d="M278.77,201.68c-3.38,1.15-.84,7.82,2.29,6.76S281.6,200.72,278.77,201.68Z" style="fill:#263238"></path><path d="M277.54,202.65c-.39.55-.67,1.4-1.28,1.68s-1.53-.19-2.26-.71c-.07-.05-.1,0-.07.12.45,1.28,1.38,2.45,2.69,2.23s1.61-1.61,1.43-3C278,202.72,277.7,202.43,277.54,202.65Z" style="fill:#263238"></path><path d="M300.2,214.7c-.26.7-.43,1.57-1.13,2a5.73,5.73,0,0,1-2.39.51c-.07,0-.11.1,0,.14a3,3,0,0,0,3.06-.11,2.33,2.33,0,0,0,.73-2.51C300.41,214.57,300.24,214.6,300.2,214.7Z" style="fill:#263238"></path><path d="M288.63,210.75s.81,3.23,1.4,4.68c.05.13.43.06.93-.11,0,0,0,0,.06,0a7.42,7.42,0,0,0,5.63-5.26.16.16,0,0,0-.29-.12,11.14,11.14,0,0,1-5.55,4.33c-.26-.35-1.21-5.58-1.45-5.51a13.86,13.86,0,0,0-3,2.07c-1.89-6.69-2.69-13.62-4.67-20.25a.21.21,0,0,0-.42.05c.33,7.33,2.34,15.08,4.11,22C285.61,213.52,288.15,211.23,288.63,210.75Z" style="fill:#263238"></path><path d="M290.63,214.16a9,9,0,0,0,4.25,1.75,4.11,4.11,0,0,0,2.42-.51c1.61-.93,1.21-2.53.52-3.8a9.58,9.58,0,0,0-1.35-1.86A11.77,11.77,0,0,1,290.63,214.16Z" style="fill:#263238"></path><path d="M294.88,215.91a4.11,4.11,0,0,0,2.42-.51c1.61-.93,1.21-2.53.52-3.8C296,212.3,294.54,214.06,294.88,215.91Z" style="fill:#f291b8"></path><path d="M325,186.94c-7.11,3.05-11.76-8.24-11.76-8.24s-8.41,2.66-14.48-10.17c0,0-.59,9.52-10.9,15.72-2.18,1.31,3.09-8,3.09-8s-5.8,12.36-24.47,16.39c-1.32.29-6.35-19.08,4.63-31s24.72-13.5,36.72-8.45c0,0,11.88.43,16.94,9.4S327.73,185.75,325,186.94Z" style="fill:#263238"></path><path d="M321.14,190.8s2.63-12.09,7.85-11.53,6,16.17,1.77,20.11a5.5,5.5,0,0,1-7.93.12Z" style="fill:#f7a9a0"></path><path d="M329.1,183.75c.07,0,.14.06.08.12-2.9,2.88-3.39,6.89-3.27,10.79.5-1.73,1.62-3,3.87-2.52.12,0,.09.21,0,.23a3.36,3.36,0,0,0-3,2.52,16.13,16.13,0,0,0-.49,3.46c0,.38-.66.45-.69,0a.28.28,0,0,1,0-.09C323.65,193.88,324.5,186.2,329.1,183.75Z" style="fill:#263238"></path><circle cx="167.34" cy="345.4" r="10.46" style="fill:#fff"></circle><circle cx="175.53" cy="350.76" r="10.46" style="fill:#fff"></circle><circle cx="236.11" cy="328.05" r="10.46" transform="translate(-144.68 463.56) rotate(-73.84)" style="fill:#fff"></circle><circle cx="193.09" cy="345.75" r="10.46" transform="translate(-174.73 492.49) rotate(-82.57)" style="fill:#fff"></circle><circle cx="203.55" cy="327.77" r="10.46" style="fill:#fff"></circle><circle cx="182.16" cy="328.72" r="15.86" transform="translate(-179.78 429.9) rotate(-76.63)" style="fill:#fff"></circle><circle cx="180.83" cy="364.61" r="13.85" style="fill:#fff"></circle><circle cx="163.64" cy="359.34" r="5.57" style="fill:#fff"></circle><path d="M212.17,323.09a5.57,5.57,0,1,1,1.61-7.71A5.58,5.58,0,0,1,212.17,323.09Z" style="fill:#fff"></path><circle cx="223.76" cy="322.37" r="5.57" transform="translate(-137.91 474.64) rotate(-78.07)" style="fill:#fff"></circle><path d="M171.34,374.55c5.16,1.86,3.1,19.11,10.46,18.94s3.57-14.95,8-17.87S171.34,374.55,171.34,374.55Z" style="fill:#fff"></path><circle cx="170.25" cy="325.47" r="1.8" style="fill:#ebebeb"></circle><circle cx="208.02" cy="321.15" r="1.8" style="fill:#ebebeb"></circle><path d="M162.17,344.58a1.8,1.8,0,1,1-1.8-1.8A1.81,1.81,0,0,1,162.17,344.58Z" style="fill:#ebebeb"></path><path d="M170.65,330.45a1.1,1.1,0,1,1-1.1-1.1A1.1,1.1,0,0,1,170.65,330.45Z" style="fill:#ebebeb"></path><path d="M204.65,320.75a1.1,1.1,0,1,1-1.1-1.1A1.1,1.1,0,0,1,204.65,320.75Z" style="fill:#ebebeb"></path><path d="M162.17,359.94a1.1,1.1,0,1,1-1.1-1.1A1.1,1.1,0,0,1,162.17,359.94Z" style="fill:#ebebeb"></path><path d="M174.09,328.19a.75.75,0,1,1-.75-.75A.75.75,0,0,1,174.09,328.19Z" style="fill:#ebebeb"></path><path d="M207,318.43a.75.75,0,0,1-1.5,0,.75.75,0,0,1,1.5,0Z" style="fill:#ebebeb"></path><path d="M164.39,361.47a.76.76,0,0,1-1.51,0,.76.76,0,0,1,1.51,0Z" style="fill:#ebebeb"></path><rect x="170.28" y="329.3" width="53.47" height="34.95" transform="translate(-64.94 46.02) rotate(-11.45)" style="fill:#FF725E"></rect><g style="opacity:0.1"><path d="M213.27,355c-2.8.69-5.61,1.37-8.43,2s-5.63,1.29-8.46,1.86l-8.47,1.78-8.5,1.67-.43.08-.09-.43c-.6-3-1.13-6-1.67-9s-1-6-1.52-9c.74,3,1.45,5.91,2.11,8.88s1.34,5.93,1.95,8.91l-.52-.35,8.47-1.77,8.5-1.66c2.83-.58,5.68-1,8.52-1.58S210.42,355.47,213.27,355Z"></path><path d="M174.56,338.36q4.94-1.2,9.91-2.3c3.31-.72,6.61-1.48,9.93-2.16l9.95-2.08c3.32-.69,6.65-1.32,10-2l.44-.09.09.44c.79,3.93,1.53,7.86,2.25,11.8s1.42,7.88,2.07,11.83c-.93-3.9-1.84-7.8-2.69-11.71s-1.72-7.82-2.52-11.74l.54.36c-3.32.68-6.64,1.4-10,2l-10,2c-3.32.66-6.66,1.25-10,1.88S177.9,337.81,174.56,338.36Z"></path></g><path d="M352.56,243.2c.51,15.33-4.62,95.55-23,111.37-22.26,19.17-71.18,22.37-86.28,24-6.58.72-14-42.72-9.25-48s57.07-8.94,61.63-11.62,18.94-46.18,33.44-72.29C340.31,226.5,351.94,224.34,352.56,243.2Z" style="fill:#f7a9a0"></path><path d="M352.88,279.31l-.06.49c-2.4,20.15-5.44,38.3-5.44,38.3l-43.23-19.77-.54-.24-3.06-1.4s12.8-30,25-50c17.27-28.37,30-19.26,30.13-5.81C355.79,251.24,354.49,265.7,352.88,279.31Z" style="fill:#FF725E"></path><path d="M353.05,239.25h-1.51a2.56,2.56,0,0,1-2.56-2.56,2.06,2.06,0,0,0-2.06-2.06h-1.6v-.5h1.6a2.56,2.56,0,0,1,2.56,2.56,2.06,2.06,0,0,0,2.06,2.06h1.51ZM320.2,290.77h-1.52a2.07,2.07,0,0,1-2.06-2.06,2.56,2.56,0,0,0-2.56-2.56h-1.59v.5h1.59a2.06,2.06,0,0,1,2.06,2.06,2.56,2.56,0,0,0,2.56,2.56h1.52Zm32-11.55h-1.59v.5h1.59a2.21,2.21,0,0,1,.59.08l.06-.49A2.32,2.32,0,0,0,352.23,279.22Zm-29.81-13.29-1.07-1.07a2.06,2.06,0,0,1,0-2.91,2.58,2.58,0,0,0,.75-1.81,2.54,2.54,0,0,0-.75-1.81l-1.13-1.13-.35.35,1.13,1.13a2.06,2.06,0,0,1,0,2.91,2.56,2.56,0,0,0,0,3.62l1.07,1.07ZM355,261l-1.07-1.07a2.06,2.06,0,0,1,0-2.91,2.53,2.53,0,0,0,.75-1.81,2.5,2.5,0,0,0-.75-1.81l-1.13-1.13-.35.35,1.13,1.13a2.06,2.06,0,0,1,0,2.91,2.56,2.56,0,0,0,0,3.62l1.07,1.07Zm-22,37.87a2.06,2.06,0,0,1,2.91,0,2.56,2.56,0,0,0,3.62,0l1.13-1.13-.35-.35-1.13,1.13a2.06,2.06,0,0,1-2.91,0,2.56,2.56,0,0,0-3.62,0l-1.07,1.07.35.35Zm-.84-52a2.06,2.06,0,0,1,2.91,0,2.58,2.58,0,0,0,1.81.75h0a2.54,2.54,0,0,0,1.81-.75l1.13-1.13-.35-.35-1.13,1.13a2,2,0,0,1-1.46.6h0a2,2,0,0,1-1.45-.6,2.57,2.57,0,0,0-3.63,0l-1.07,1.07.36.35Zm-28,51.48a2.54,2.54,0,0,0,1-2v-1.51h-.5v1.51a2,2,0,0,1-1.05,1.79ZM334,276.8a2.06,2.06,0,0,1,2.06-2.06,2.56,2.56,0,0,0,2.56-2.56v-1.51h-.5v1.51a2.06,2.06,0,0,1-2.06,2.06,2.56,2.56,0,0,0-2.56,2.56v1.6h.5Z" style="fill:#fff"></path><path d="M318.54,259.23c-1.46,2.71-2.58,5.62-3.9,8.4-4.66,9.83-9.26,19.68-13.72,29.6-.19.44-.82.08-.64-.35q1.82-4.26,3.69-8.49,3.31-7.45,6.9-14.78c.83-1.69,1.66-3.37,2.52-5.05a23.15,23.15,0,0,1,.83-2.56c.38-1.09.77-2.17,1.09-3.28a.08.08,0,0,1,.16,0c-.33,1.12-.62,2.26-.93,3.38l-.12.39.11-.21c1.26-2.4,2.7-4.72,3.87-7.17C318.44,259.06,318.59,259.14,318.54,259.23Zm36.07,22.31a5.34,5.34,0,0,0-.62,1.15c-.21.49-.43,1-.63,1.47l-.52,1.32c.38-2.82.84-5.66,1-8.49,0-.1-.16-.11-.18,0-.62,2.64-.94,5.38-1.35,8.06s-.82,5.3-1.24,8c-.85,5.35-1.77,10.69-2.51,16-.4,2.94-.78,5.55-1.11,8.63-.34-.07-2-.5-2.38-.67-.17-.06-.21.06-.07.12.54.25,2.24,1.14,2.67,1.28.17.05,1.17-5.73,1.65-8.41s.9-5.29,1.29-8c.73-4.89,1.38-9.8,2-14.7a.28.28,0,0,0,.12-.1,11.16,11.16,0,0,0,.55-1.39c.17-.47.33-.94.5-1.4s.32-.94.47-1.41a5.72,5.72,0,0,1,.51-1.4C354.78,281.56,354.67,281.47,354.61,281.54Zm-9,26.16c-2.49-1.31-5.08-2.4-7.63-3.58s-5-2.28-7.58-3.37q-7.69-3.27-15.51-6.25c-2.9-1.11-5.82-2.17-8.72-3.28a.08.08,0,0,0-.06.14c5.05,2.25,10.08,4.56,15.16,6.76s10.28,4.31,15.47,6.34c2.93,1.15,5.81,2.41,8.78,3.45A.11.11,0,0,0,345.64,307.7Zm-40-8.76c-.14-.16-4.24-2.12-4.48-2.17a1,1,0,0,0-.64.06c-.18.05-.09.47.07.6a34.88,34.88,0,0,0,5,1.71C305.65,299.12,305.65,299,305.6,298.94Z" style="fill:#263238"></path><path d="M188.81,334.78C187.33,340,192,343,192,343a11.42,11.42,0,0,0-3.66,6.89c-.45,4.71,6.74,7.47,6.74,7.47a14.17,14.17,0,0,0-2.71,7.88c0,4.55,6.88,8.37,6.88,8.37a8.24,8.24,0,0,0,1.87,7.65c3.87,4.12,17,6.38,24.67,5.92s29.2-9,33.46-10.22l-2.54-49.59s-35.22-7.79-44.22-6C204.88,323,190.47,329,188.81,334.78Z" style="fill:#f7a9a0"></path><path d="M192.28,342.21c7.67-3.58,16-4.69,24.21-6.27a.14.14,0,0,1,0,.28c-8.2,1.48-16,4.57-24.14,6.37A.2.2,0,0,1,192.28,342.21Z" style="fill:#263238"></path><path d="M195.18,356.72a22,22,0,0,1,5.65-1.19q3-.43,6.08-.76c4.07-.43,8.15-.78,12.24-1,.18,0,.24.26,0,.28-4,.45-8.1.95-12.14,1.56-2,.31-4,.63-6,1a26,26,0,0,1-5.74.69A.29.29,0,0,1,195.18,356.72Z" style="fill:#263238"></path><path d="M199.4,373.61c1.51-.72,3.5-.67,5.14-.81l5.58-.51c3.71-.36,7.42-.73,11.12-1.22.18,0,.24.26,0,.29-3.76.52-7.5,1.08-11.26,1.57-1.85.24-3.69.47-5.54.68-1.57.19-3.52.6-5.08.18A.1.1,0,0,1,199.4,373.61Z" style="fill:#263238"></path><path d="M300.88,309.48c-1.39,2.6-2.46,5.71-4.33,7.9a7.09,7.09,0,0,1-4.14,2.23c-1.88.39-3.8.58-5.69.85l-24.16,3.46q-3.33.48-6.66,1c-1.87.28-5.71.77-5.9.72-4.89-1.39-9.91-2.52-14.92-3.44a78.51,78.51,0,0,0-15-1.4c-1.44,0-2.88.08-4.32.2s-2.88.37-4.32.46a.08.08,0,1,0,0,.15,24.65,24.65,0,0,1,3.94-.34c1.24,0,2.48,0,3.72,0,2.53.08,5.06.33,7.57.63a148.77,148.77,0,0,1,14.77,2.76c2.76.63,5.5,1.37,8.27,2,.23.05,8.18-1,12-1.49l12.33-1.69,12.46-1.71c1.94-.27,3.91-.48,5.84-.84a7.9,7.9,0,0,0,4.28-2.06,11.26,11.26,0,0,0,2.43-4c.62-1.58,1.42-3.46,2-5.06C301.26,309.28,301,309.21,300.88,309.48Z" style="fill:#263238"></path></g><g id="freepik--Soap--inject-213"><polygon points="425.95 454.1 380.7 454.1 381.55 442.13 381.81 438.61 382.1 434.51 382.6 427.47 384.94 394.53 422.77 394.53 424.53 427.47 424.9 434.51 425.12 438.61 425.31 442.13 425.95 454.1" style="fill:#FF725E"></polygon><polygon points="424.9 434.51 382.1 434.51 382.6 427.47 424.53 427.47 424.9 434.51" style="fill:#263238"></polygon><polygon points="425.31 442.13 381.55 442.13 381.81 438.61 425.12 438.61 425.31 442.13" style="fill:#263238"></polygon><rect x="395.17" y="387.08" width="17.16" height="7.46" style="fill:#fff"></rect><polygon points="399.7 381.32 391.48 380.26 391.48 378.46 399.7 378.46 399.7 381.32" style="fill:#fff"></polygon><rect x="399.7" y="378.46" width="8.1" height="8.63" style="fill:#fff"></rect><rect x="399.7" y="384.17" width="8.1" height="2.91" style="fill:#dbdbdb"></rect></g></svg>